  0
SECTION
  2
HEADER
  9
$ANGBASE
  50
0.0
  9
$ANGDIR
  70
1
  9
$MEASUREMENT
  70
1
  0
ENDSEC
  0
SECTION
  2
TABLES
  0
TABLE
  2
LTYPE
  70
4
  0
LTYPE
  5
40F
  2
CONTINUOUS
  70
0
  3
Solid line
  72
65
  73
0
  40
0.0
  0
LTYPE
  5
410
  2
DASHDOT
 70
0
  3
Dash Dot ____ _ ____ _
 72
65
 73
4
 40
2.0
 49
1.25
 49
-0.25
 49
0.25
 49
-0.25
  0
LTYPE
  5
411
  2
DASHED
 70
0
  3
Dashed __ __ __ __ __
 72
65
 73
2
 40
0.75
 49
0.5
 49
-0.25
  0
LTYPE
  5
43B
  2
DOTTED
 70
0
  3
Dotted .  .  .  .
 72
65
 73
2
 40
0.2
 49
0.0
 49
-0.2
  0
ENDTAB
  0
TABLE
  2
STYLE
  70
4
  0
STYLE
  2
KICAD
  70
0
  40
0
  41
1
  42
1
  50
0
  71
0
  3
isocp.shx
  0
STYLE
  2
KICADB
  70
0
  40
0
  41
1
  42
1
  50
0
  71
0
  3
isocp.shx
  0
STYLE
  2
KICADI
  70
0
  40
0
  41
1
  42
1
  50
15
  71
0
  3
isocp.shx
  0
STYLE
  2
KICADBI
  70
0
  40
0
  41
1
  42
1
  50
15
  71
0
  3
isocp.shx
  0
ENDTAB
  0
TABLE
  2
LAYER
  70
1
  0
LAYER
  2
BLACK
  70
0
  62
7
  6
CONTINUOUS
  0
ENDTAB
  0
ENDSEC
  0
SECTION
  2
ENTITIES
0
LINE
8
BLACK
6
CONTINUOUS
10
156.4824260000000038
20
-109.717573999999999
11
156.5
21
-109.7599999999999909
0
LINE
8
BLACK
6
CONTINUOUS
10
156.5
20
-109.7599999999999909
11
156.4824260000000038
21
-109.802425999999997
0
LINE
8
BLACK
6
CONTINUOUS
10
156.4824260000000038
20
-109.802425999999997
11
156.4399999999999977
21
-109.8199999999999932
0
LINE
8
BLACK
6
CONTINUOUS
10
156.4399999999999977
20
-109.8199999999999932
11
156.1699999999999875
21
-109.8199999999999932
0
LINE
8
BLACK
6
CONTINUOUS
10
156.1699999999999875
20
-109.8199999999999932
11
156.1699999999999875
21
-116.2399999999999949
0
LINE
8
BLACK
6
CONTINUOUS
10
156.1699999999999875
20
-116.2399999999999949
11
156.4399999999999977
21
-116.2399999999999949
0
LINE
8
BLACK
6
CONTINUOUS
10
156.4399999999999977
20
-116.2399999999999949
11
156.4824260000000038
21
-116.2575739999999911
0
LINE
8
BLACK
6
CONTINUOUS
10
156.4824260000000038
20
-116.2575739999999911
11
156.5
21
-116.2999999999999972
0
LINE
8
BLACK
6
CONTINUOUS
10
156.5
20
-116.2999999999999972
11
156.4824260000000038
21
-116.342425999999989
0
LINE
8
BLACK
6
CONTINUOUS
10
156.4824260000000038
20
-116.342425999999989
11
156.4399999999999977
21
-116.3599999999999994
0
LINE
8
BLACK
6
CONTINUOUS
10
156.4399999999999977
20
-116.3599999999999994
11
156.1099999999999852
21
-116.3599999999999994
0
LINE
8
BLACK
6
CONTINUOUS
10
156.1099999999999852
20
-116.3599999999999994
11
156.0675739999999792
21
-116.342425999999989
0
LINE
8
BLACK
6
CONTINUOUS
10
156.0675739999999792
20
-116.342425999999989
11
156.0499999999999829
21
-116.2999999999999972
0
LINE
8
BLACK
6
CONTINUOUS
10
156.0499999999999829
20
-116.2999999999999972
11
156.0499999999999829
21
-109.7599999999999909
0
LINE
8
BLACK
6
CONTINUOUS
10
156.0499999999999829
20
-109.7599999999999909
11
156.0675739999999792
21
-109.717573999999999
0
LINE
8
BLACK
6
CONTINUOUS
10
156.0675739999999792
20
-109.717573999999999
11
156.1099999999999852
21
-109.6999999999999886
0
LINE
8
BLACK
6
CONTINUOUS
10
156.1099999999999852
20
-109.6999999999999886
11
156.4399999999999977
21
-109.6999999999999886
0
LINE
8
BLACK
6
CONTINUOUS
10
156.4399999999999977
20
-109.6999999999999886
11
156.4824260000000038
21
-109.717573999999999
0
LINE
8
BLACK
6
CONTINUOUS
10
158.8499999999999943
20
-109.6999999999999886
11
158.8924260000000004
21
-109.717573999999999
0
LINE
8
BLACK
6
CONTINUOUS
10
158.8924260000000004
20
-109.717573999999999
11
158.9099999999999966
21
-109.7599999999999909
0
LINE
8
BLACK
6
CONTINUOUS
10
158.9099999999999966
20
-109.7599999999999909
11
158.9099999999999966
21
-116.2999999999999972
0
LINE
8
BLACK
6
CONTINUOUS
10
158.9099999999999966
20
-116.2999999999999972
11
158.8924260000000004
21
-116.342425999999989
0
LINE
8
BLACK
6
CONTINUOUS
10
158.8924260000000004
20
-116.342425999999989
11
158.8499999999999943
21
-116.3599999999999994
0
LINE
8
BLACK
6
CONTINUOUS
10
158.8499999999999943
20
-116.3599999999999994
11
158.5199999999999818
21
-116.3599999999999994
0
LINE
8
BLACK
6
CONTINUOUS
10
158.5199999999999818
20
-116.3599999999999994
11
158.4775740000000042
21
-116.342425999999989
0
LINE
8
BLACK
6
CONTINUOUS
10
158.4775740000000042
20
-116.342425999999989
11
158.4599999999999795
21
-116.2999999999999972
0
LINE
8
BLACK
6
CONTINUOUS
10
158.4599999999999795
20
-116.2999999999999972
11
158.4775740000000042
21
-116.2575739999999911
0
LINE
8
BLACK
6
CONTINUOUS
10
158.4775740000000042
20
-116.2575739999999911
11
158.5199999999999818
21
-116.2399999999999949
0
LINE
8
BLACK
6
CONTINUOUS
10
158.5199999999999818
20
-116.2399999999999949
11
158.789999999999992
21
-116.2399999999999949
0
LINE
8
BLACK
6
CONTINUOUS
10
158.789999999999992
20
-116.2399999999999949
11
158.789999999999992
21
-109.8199999999999932
0
LINE
8
BLACK
6
CONTINUOUS
10
158.789999999999992
20
-109.8199999999999932
11
158.5199999999999818
21
-109.8199999999999932
0
LINE
8
BLACK
6
CONTINUOUS
10
158.5199999999999818
20
-109.8199999999999932
11
158.4775740000000042
21
-109.802425999999997
0
LINE
8
BLACK
6
CONTINUOUS
10
158.4775740000000042
20
-109.802425999999997
11
158.4599999999999795
21
-109.7599999999999909
0
LINE
8
BLACK
6
CONTINUOUS
10
158.4599999999999795
20
-109.7599999999999909
11
158.4775740000000042
21
-109.717573999999999
0
LINE
8
BLACK
6
CONTINUOUS
10
158.4775740000000042
20
-109.717573999999999
11
158.5199999999999818
21
-109.6999999999999886
0
LINE
8
BLACK
6
CONTINUOUS
10
158.5199999999999818
20
-109.6999999999999886
11
158.8499999999999943
21
-109.6999999999999886
0
LINE
8
BLACK
6
CONTINUOUS
10
149.9024259999999913
20
-110.3375739999999894
11
149.9117149999999867
21
-110.3599999999999994
0
LINE
8
BLACK
6
CONTINUOUS
10
149.9117149999999867
20
-110.3599999999999994
11
151.5300000000000011
21
-110.3599999999999994
0
LINE
8
BLACK
6
CONTINUOUS
10
151.5300000000000011
20
-110.3599999999999994
11
151.5724260000000072
21
-110.3775739999999956
0
LINE
8
BLACK
6
CONTINUOUS
10
151.5724260000000072
20
-110.3775739999999956
11
151.5900000000000034
21
-110.4200000000000017
0
LINE
8
BLACK
6
CONTINUOUS
10
151.5900000000000034
20
-110.4200000000000017
11
151.5900000000000034
21
-115.7599999999999909
0
LINE
8
BLACK
6
CONTINUOUS
10
151.5900000000000034
20
-115.7599999999999909
11
151.5724260000000072
21
-115.802425999999997
0
LINE
8
BLACK
6
CONTINUOUS
10
151.5724260000000072
20
-115.802425999999997
11
151.5300000000000011
21
-115.8199999999999932
0
LINE
8
BLACK
6
CONTINUOUS
10
151.5300000000000011
20
-115.8199999999999932
11
149.9117149999999867
21
-115.8199999999999932
0
LINE
8
BLACK
6
CONTINUOUS
10
149.9117149999999867
20
-115.8199999999999932
11
149.9024259999999913
21
-115.842425999999989
0
LINE
8
BLACK
6
CONTINUOUS
10
149.9024259999999913
20
-115.842425999999989
11
149.8599999999999852
21
-115.8599999999999994
0
LINE
8
BLACK
6
CONTINUOUS
10
149.8599999999999852
20
-115.8599999999999994
11
149.8175739999999792
21
-115.842425999999989
0
LINE
8
BLACK
6
CONTINUOUS
10
149.8175739999999792
20
-115.842425999999989
11
149.8082849999999837
21
-115.8199999999999932
0
LINE
8
BLACK
6
CONTINUOUS
10
149.8082849999999837
20
-115.8199999999999932
11
148.1899999999999977
21
-115.8199999999999932
0
LINE
8
BLACK
6
CONTINUOUS
10
148.1899999999999977
20
-115.8199999999999932
11
148.1475739999999917
21
-115.802425999999997
0
LINE
8
BLACK
6
CONTINUOUS
10
148.1475739999999917
20
-115.802425999999997
11
148.1299999999999955
21
-115.7599999999999909
0
LINE
8
BLACK
6
CONTINUOUS
10
148.1299999999999955
20
-115.7599999999999909
11
148.1299999999999955
21
-110.4200000000000017
0
LINE
8
BLACK
6
CONTINUOUS
10
148.1299999999999955
20
-110.4200000000000017
11
148.1475739999999917
21
-110.3775739999999956
0
LINE
8
BLACK
6
CONTINUOUS
10
148.1475739999999917
20
-110.3775739999999956
11
148.1899999999999977
21
-110.3599999999999994
0
LINE
8
BLACK
6
CONTINUOUS
10
148.1899999999999977
20
-110.3599999999999994
11
149.8082849999999837
21
-110.3599999999999994
0
LINE
8
BLACK
6
CONTINUOUS
10
149.8082849999999837
20
-110.3599999999999994
11
149.8175739999999792
21
-110.3375739999999894
0
LINE
8
BLACK
6
CONTINUOUS
10
149.8175739999999792
20
-110.3375739999999894
11
149.8599999999999852
21
-110.3199999999999932
0
LINE
8
BLACK
6
CONTINUOUS
10
149.8599999999999852
20
-110.3199999999999932
11
149.9024259999999913
21
-110.3375739999999894
0
LINE
8
BLACK
6
CONTINUOUS
10
149.8599999999999852
20
-110.4799999999999898
11
148.25
21
-110.4799999999999898
0
LINE
8
BLACK
6
CONTINUOUS
10
148.25
20
-110.4799999999999898
11
148.25
21
-115.6999999999999886
0
LINE
8
BLACK
6
CONTINUOUS
10
148.25
20
-115.6999999999999886
11
151.4699999999999989
21
-115.6999999999999886
0
LINE
8
BLACK
6
CONTINUOUS
10
151.4699999999999989
20
-115.6999999999999886
11
151.4699999999999989
21
-110.4799999999999898
0
LINE
8
BLACK
6
CONTINUOUS
10
151.4699999999999989
20
-110.4799999999999898
11
149.8599999999999852
21
-110.4799999999999898
0
LINE
8
BLACK
6
CONTINUOUS
10
141.0300000000000011
20
-110.7199999999999989
11
141.0724260000000072
21
-110.7375739999999951
0
LINE
8
BLACK
6
CONTINUOUS
10
141.0724260000000072
20
-110.7375739999999951
11
141.0900000000000034
21
-110.7800000000000011
0
LINE
8
BLACK
6
CONTINUOUS
10
141.0900000000000034
20
-110.7800000000000011
11
141.0900000000000034
21
-115.2800000000000011
0
LINE
8
BLACK
6
CONTINUOUS
10
141.0900000000000034
20
-115.2800000000000011
11
141.0724260000000072
21
-115.322425999999993
0
LINE
8
BLACK
6
CONTINUOUS
10
141.0724260000000072
20
-115.322425999999993
11
141.0300000000000011
21
-115.3399999999999892
0
LINE
8
BLACK
6
CONTINUOUS
10
141.0300000000000011
20
-115.3399999999999892
11
130.75
21
-115.3399999999999892
0
LINE
8
BLACK
6
CONTINUOUS
10
130.75
20
-115.3399999999999892
11
130.7075739999999939
21
-115.322425999999993
0
LINE
8
BLACK
6
CONTINUOUS
10
130.7075739999999939
20
-115.322425999999993
11
130.6899999999999977
21
-115.2800000000000011
0
LINE
8
BLACK
6
CONTINUOUS
10
130.6899999999999977
20
-115.2800000000000011
11
130.6899999999999977
21
-114.0300000000000011
0
LINE
8
BLACK
6
CONTINUOUS
10
130.6899999999999977
20
-114.0300000000000011
11
130.6929370000000006
21
-114.0229089999999985
0
LINE
8
BLACK
6
CONTINUOUS
10
130.6929370000000006
20
-114.0229089999999985
11
130.6929370000000006
21
-114.0114589999999879
0
LINE
8
BLACK
6
CONTINUOUS
10
130.6929370000000006
20
-114.0114589999999879
11
130.7039709999999957
21
-113.996270999999993
0
LINE
8
BLACK
6
CONTINUOUS
10
130.7039709999999957
20
-113.996270999999993
11
130.7075739999999939
21
-113.9875739999999951
0
LINE
8
BLACK
6
CONTINUOUS
10
130.7075739999999939
20
-113.9875739999999951
11
130.7114589999999907
21
-113.9859639999999956
0
LINE
8
BLACK
6
CONTINUOUS
10
130.7114589999999907
20
-113.9859639999999956
11
130.7147329999999954
21
-113.981459000000001
0
LINE
8
BLACK
6
CONTINUOUS
10
130.7147329999999954
20
-113.981459000000001
11
130.75
21
-113.9699999999999989
0
LINE
8
BLACK
6
CONTINUOUS
10
130.75
20
-113.9699999999999989
11
130.8425819999999931
21
-113.9699999999999989
0
LINE
8
BLACK
6
CONTINUOUS
10
130.8425819999999931
20
-113.9699999999999989
11
131.024187999999981
21
-113.9338759999999979
0
LINE
8
BLACK
6
CONTINUOUS
10
131.024187999999981
20
-113.9338759999999979
11
131.195256999999998
21
-113.8630169999999993
0
LINE
8
BLACK
6
CONTINUOUS
10
131.195256999999998
20
-113.8630169999999993
11
131.3492149999999867
21
-113.7601449999999943
0
LINE
8
BLACK
6
CONTINUOUS
10
131.3492149999999867
20
-113.7601449999999943
11
131.4801449999999932
21
-113.6292149999999879
0
LINE
8
BLACK
6
CONTINUOUS
10
131.4801449999999932
20
-113.6292149999999879
11
131.5830169999999839
21
-113.4752569999999992
0
LINE
8
BLACK
6
CONTINUOUS
10
131.5830169999999839
20
-113.4752569999999992
11
131.6538759999999968
21
-113.3041879999999964
0
LINE
8
BLACK
6
CONTINUOUS
10
131.6538759999999968
20
-113.3041879999999964
11
131.6899999999999977
21
-113.1225819999999942
0
LINE
8
BLACK
6
CONTINUOUS
10
131.6899999999999977
20
-113.1225819999999942
11
131.6899999999999977
21
-112.9374179999999939
0
LINE
8
BLACK
6
CONTINUOUS
10
131.6899999999999977
20
-112.9374179999999939
11
131.6538759999999968
21
-112.7558119999999917
0
LINE
8
BLACK
6
CONTINUOUS
10
131.6538759999999968
20
-112.7558119999999917
11
131.5830169999999839
21
-112.5847429999999889
0
LINE
8
BLACK
6
CONTINUOUS
10
131.5830169999999839
20
-112.5847429999999889
11
131.4801449999999932
21
-112.4307850000000002
0
LINE
8
BLACK
6
CONTINUOUS
10
131.4801449999999932
20
-112.4307850000000002
11
131.3492149999999867
21
-112.2998549999999938
0
LINE
8
BLACK
6
CONTINUOUS
10
131.3492149999999867
20
-112.2998549999999938
11
131.195256999999998
21
-112.1969829999999888
0
LINE
8
BLACK
6
CONTINUOUS
10
131.195256999999998
20
-112.1969829999999888
11
131.024187999999981
21
-112.1261239999999901
0
LINE
8
BLACK
6
CONTINUOUS
10
131.024187999999981
20
-112.1261239999999901
11
130.8425819999999931
21
-112.0899999999999892
0
LINE
8
BLACK
6
CONTINUOUS
10
130.8425819999999931
20
-112.0899999999999892
11
130.75
21
-112.0899999999999892
0
LINE
8
BLACK
6
CONTINUOUS
10
130.75
20
-112.0899999999999892
11
130.7147329999999954
21
-112.0785410000000013
0
LINE
8
BLACK
6
CONTINUOUS
10
130.7147329999999954
20
-112.0785410000000013
11
130.7114589999999907
21
-112.074034999999995
0
LINE
8
BLACK
6
CONTINUOUS
10
130.7114589999999907
20
-112.074034999999995
11
130.7075739999999939
21
-112.072425999999993
0
LINE
8
BLACK
6
CONTINUOUS
10
130.7075739999999939
20
-112.072425999999993
11
130.7039709999999957
21
-112.0637279999999976
0
LINE
8
BLACK
6
CONTINUOUS
10
130.7039709999999957
20
-112.0637279999999976
11
130.6929370000000006
21
-112.0485410000000002
0
LINE
8
BLACK
6
CONTINUOUS
10
130.6929370000000006
20
-112.0485410000000002
11
130.6929370000000006
21
-112.0370899999999921
0
LINE
8
BLACK
6
CONTINUOUS
10
130.6929370000000006
20
-112.0370899999999921
11
130.6899999999999977
21
-112.0300000000000011
0
LINE
8
BLACK
6
CONTINUOUS
10
130.6899999999999977
20
-112.0300000000000011
11
130.6899999999999977
21
-110.7800000000000011
0
LINE
8
BLACK
6
CONTINUOUS
10
130.6899999999999977
20
-110.7800000000000011
11
130.7075739999999939
21
-110.7375739999999951
0
LINE
8
BLACK
6
CONTINUOUS
10
130.7075739999999939
20
-110.7375739999999951
11
130.75
21
-110.7199999999999989
0
LINE
8
BLACK
6
CONTINUOUS
10
130.75
20
-110.7199999999999989
11
141.0300000000000011
21
-110.7199999999999989
0
LINE
8
BLACK
6
CONTINUOUS
10
130.8100000000000023
20
-110.8399999999999892
11
130.8100000000000023
21
-111.9755589999999899
0
LINE
8
BLACK
6
CONTINUOUS
10
130.8100000000000023
20
-111.9755589999999899
11
130.9447739999999953
21
-111.9880489999999895
0
LINE
8
BLACK
6
CONTINUOUS
10
130.9447739999999953
20
-111.9880489999999895
11
131.1329159999999945
21
-112.0415789999999987
0
LINE
8
BLACK
6
CONTINUOUS
10
131.1329159999999945
20
-112.0415789999999987
11
131.3080180000000041
21
-112.1287699999999887
0
LINE
8
BLACK
6
CONTINUOUS
10
131.3080180000000041
20
-112.1287699999999887
11
131.4641169999999875
21
-112.246651
0
LINE
8
BLACK
6
CONTINUOUS
10
131.4641169999999875
20
-112.246651
11
131.5958980000000054
21
-112.3912069999999943
0
LINE
8
BLACK
6
CONTINUOUS
10
131.5958980000000054
20
-112.3912069999999943
11
131.6988729999999919
21
-112.55751699999999
0
LINE
8
BLACK
6
CONTINUOUS
10
131.6988729999999919
20
-112.55751699999999
11
131.7695349999999905
21
-112.7399169999999913
0
LINE
8
BLACK
6
CONTINUOUS
10
131.7695349999999905
20
-112.7399169999999913
11
131.8054779999999937
21
-112.9321959999999905
0
LINE
8
BLACK
6
CONTINUOUS
10
131.8054779999999937
20
-112.9321959999999905
11
131.8054779999999937
21
-113.1278039999999976
0
LINE
8
BLACK
6
CONTINUOUS
10
131.8054779999999937
20
-113.1278039999999976
11
131.7695349999999905
21
-113.3200829999999968
0
LINE
8
BLACK
6
CONTINUOUS
10
131.7695349999999905
20
-113.3200829999999968
11
131.6988729999999919
21
-113.502482999999998
0
LINE
8
BLACK
6
CONTINUOUS
10
131.6988729999999919
20
-113.502482999999998
11
131.5958980000000054
21
-113.6687929999999938
0
LINE
8
BLACK
6
CONTINUOUS
10
131.5958980000000054
20
-113.6687929999999938
11
131.4641169999999875
21
-113.8133489999999881
0
LINE
8
BLACK
6
CONTINUOUS
10
131.4641169999999875
20
-113.8133489999999881
11
131.3080180000000041
21
-113.9312299999999993
0
LINE
8
BLACK
6
CONTINUOUS
10
131.3080180000000041
20
-113.9312299999999993
11
131.1329159999999945
21
-114.0184209999999894
0
LINE
8
BLACK
6
CONTINUOUS
10
131.1329159999999945
20
-114.0184209999999894
11
130.9447739999999953
21
-114.0719509999999985
0
LINE
8
BLACK
6
CONTINUOUS
10
130.9447739999999953
20
-114.0719509999999985
11
130.8100000000000023
21
-114.0844400000000007
0
LINE
8
BLACK
6
CONTINUOUS
10
130.8100000000000023
20
-114.0844400000000007
11
130.8100000000000023
21
-115.2199999999999989
0
LINE
8
BLACK
6
CONTINUOUS
10
130.8100000000000023
20
-115.2199999999999989
11
140.9699999999999989
21
-115.2199999999999989
0
LINE
8
BLACK
6
CONTINUOUS
10
140.9699999999999989
20
-115.2199999999999989
11
140.9699999999999989
21
-110.8399999999999892
0
LINE
8
BLACK
6
CONTINUOUS
10
140.9699999999999989
20
-110.8399999999999892
11
130.8100000000000023
21
-110.8399999999999892
0
LINE
8
BLACK
6
CONTINUOUS
10
152.9426119999999969
20
-113.2036319999999989
11
152.9902319999999918
21
-113.2512509999999963
0
LINE
8
BLACK
6
CONTINUOUS
10
152.9902319999999918
20
-113.2512509999999963
11
153.005172999999985
21
-113.2725879999999989
0
LINE
8
BLACK
6
CONTINUOUS
10
153.005172999999985
20
-113.2725879999999989
11
153.0055629999999951
21
-113.2770560000000017
0
LINE
8
BLACK
6
CONTINUOUS
10
153.0055629999999951
20
-113.2770560000000017
11
153.0083510000000047
21
-113.2805679999999882
0
LINE
8
BLACK
6
CONTINUOUS
10
153.0083510000000047
20
-113.2805679999999882
11
153.0559700000000021
21
-113.4234239999999971
0
LINE
8
BLACK
6
CONTINUOUS
10
153.0559700000000021
20
-113.4234239999999971
11
153.0592589999999973
21
-113.4456039999999888
0
LINE
8
BLACK
6
CONTINUOUS
10
153.0592589999999973
20
-113.4456039999999888
11
153.0598190000000045
21
-113.4471419999999995
0
LINE
8
BLACK
6
CONTINUOUS
10
153.0598190000000045
20
-113.4471419999999995
11
153.0598190000000045
21
-113.5423799999999943
0
LINE
8
BLACK
6
CONTINUOUS
10
153.0598190000000045
20
-113.5423799999999943
11
153.055925000000002
21
-113.5644619999999918
0
LINE
8
BLACK
6
CONTINUOUS
10
153.055925000000002
20
-113.5644619999999918
11
153.0559700000000021
21
-113.5660979999999967
0
LINE
8
BLACK
6
CONTINUOUS
10
153.0559700000000021
20
-113.5660979999999967
11
153.0083510000000047
21
-113.7089539999999914
0
LINE
8
BLACK
6
CONTINUOUS
10
153.0083510000000047
20
-113.7089539999999914
11
152.9959479999999985
21
-113.731859
0
LINE
8
BLACK
6
CONTINUOUS
10
152.9959479999999985
20
-113.731859
11
152.9921279999999797
21
-113.7342049999999887
0
LINE
8
BLACK
6
CONTINUOUS
10
152.9921279999999797
20
-113.7342049999999887
11
152.9902329999999893
21
-113.73827
0
LINE
8
BLACK
6
CONTINUOUS
10
152.9902329999999893
20
-113.73827
11
152.894993999999997
21
-113.8335079999999948
0
LINE
8
BLACK
6
CONTINUOUS
10
152.894993999999997
20
-113.8335079999999948
11
152.87662499999999
21
-113.8463699999999932
0
LINE
8
BLACK
6
CONTINUOUS
10
152.87662499999999
20
-113.8463699999999932
11
152.8755019999999831
21
-113.8475569999999948
0
LINE
8
BLACK
6
CONTINUOUS
10
152.8755019999999831
20
-113.8475569999999948
11
152.7802639999999883
21
-113.8951759999999922
0
LINE
8
BLACK
6
CONTINUOUS
10
152.7802639999999883
20
-113.8951759999999922
11
152.7678569999999922
21
-113.8988659999999982
0
LINE
8
BLACK
6
CONTINUOUS
10
152.7678569999999922
20
-113.8988659999999982
11
152.7649130000000071
21
-113.9008549999999929
0
LINE
8
BLACK
6
CONTINUOUS
10
152.7649130000000071
20
-113.9008549999999929
11
152.574436999999989
21
-113.9484739999999903
0
LINE
8
BLACK
6
CONTINUOUS
10
152.574436999999989
20
-113.9484739999999903
11
152.559504000000004
21
-113.9495269999999891
0
LINE
8
BLACK
6
CONTINUOUS
10
152.559504000000004
20
-113.9495269999999891
11
152.5562469999999848
21
-113.9507129999999933
0
LINE
8
BLACK
6
CONTINUOUS
10
152.5562469999999848
20
-113.9507129999999933
11
152.4133899999999926
21
-113.9507129999999933
0
LINE
8
BLACK
6
CONTINUOUS
10
152.4133899999999926
20
-113.9507129999999933
11
152.3986479999999801
21
-113.9481129999999922
0
LINE
8
BLACK
6
CONTINUOUS
10
152.3986479999999801
20
-113.9481129999999922
11
152.3951999999999884
21
-113.9484739999999903
0
LINE
8
BLACK
6
CONTINUOUS
10
152.3951999999999884
20
-113.9484739999999903
11
152.2047239999999988
21
-113.9008549999999929
0
LINE
8
BLACK
6
CONTINUOUS
10
152.2047239999999988
20
-113.9008549999999929
11
152.1929010000000062
21
-113.8955819999999903
0
LINE
8
BLACK
6
CONTINUOUS
10
152.1929010000000062
20
-113.8955819999999903
11
152.1893729999999891
21
-113.8951759999999922
0
LINE
8
BLACK
6
CONTINUOUS
10
152.1893729999999891
20
-113.8951759999999922
11
152.0941349999999943
21
-113.8475569999999948
0
LINE
8
BLACK
6
CONTINUOUS
10
152.0941349999999943
20
-113.8475569999999948
11
152.076123999999993
21
-113.8341980000000007
0
LINE
8
BLACK
6
CONTINUOUS
10
152.076123999999993
20
-113.8341980000000007
11
152.0746429999999805
21
-113.8335079999999948
0
LINE
8
BLACK
6
CONTINUOUS
10
152.0746429999999805
20
-113.8335079999999948
11
151.9794049999999856
21
-113.73827
0
LINE
8
BLACK
6
CONTINUOUS
10
151.9794049999999856
20
-113.73827
11
151.9644649999999899
21
-113.7169329999999974
0
LINE
8
BLACK
6
CONTINUOUS
10
151.9644649999999899
20
-113.7169329999999974
11
151.9640739999999823
21
-113.7124659999999921
0
LINE
8
BLACK
6
CONTINUOUS
10
151.9640739999999823
20
-113.7124659999999921
11
151.9612869999999987
21
-113.7089539999999914
0
LINE
8
BLACK
6
CONTINUOUS
10
151.9612869999999987
20
-113.7089539999999914
11
151.9136680000000013
21
-113.5660969999999992
0
LINE
8
BLACK
6
CONTINUOUS
10
151.9136680000000013
20
-113.5660969999999992
11
151.910379000000006
21
-113.5439179999999908
0
LINE
8
BLACK
6
CONTINUOUS
10
151.910379000000006
20
-113.5439179999999908
11
151.9098189999999988
21
-113.5423799999999943
0
LINE
8
BLACK
6
CONTINUOUS
10
151.9098189999999988
20
-113.5423799999999943
11
151.9098189999999988
21
-113.4471419999999995
0
LINE
8
BLACK
6
CONTINUOUS
10
151.9098189999999988
20
-113.4471419999999995
11
151.9137120000000039
21
-113.4250589999999903
0
LINE
8
BLACK
6
CONTINUOUS
10
151.9137120000000039
20
-113.4250589999999903
11
151.9136680000000013
21
-113.4234249999999946
0
LINE
8
BLACK
6
CONTINUOUS
10
151.9136680000000013
20
-113.4234249999999946
11
151.9612869999999987
21
-113.2805679999999882
0
LINE
8
BLACK
6
CONTINUOUS
10
151.9612869999999987
20
-113.2805679999999882
11
151.9736889999999789
21
-113.2576629999999938
0
LINE
8
BLACK
6
CONTINUOUS
10
151.9736889999999789
20
-113.2576629999999938
11
151.9775099999999952
21
-113.255314999999996
0
LINE
8
BLACK
6
CONTINUOUS
10
151.9775099999999952
20
-113.255314999999996
11
151.9794049999999856
21
-113.2512519999999938
0
LINE
8
BLACK
6
CONTINUOUS
10
151.9794049999999856
20
-113.2512519999999938
11
152.0270239999999831
21
-113.2036329999999964
0
LINE
8
BLACK
6
CONTINUOUS
10
152.0270239999999831
20
-113.2036329999999964
11
152.0483609999999999
21
-113.1886930000000007
0
LINE
8
BLACK
6
CONTINUOUS
10
152.0483609999999999
20
-113.1886930000000007
11
152.0994680000000017
21
-113.1842219999999912
0
LINE
8
BLACK
6
CONTINUOUS
10
152.0994680000000017
20
-113.1842219999999912
11
152.1414939999999945
21
-113.2136479999999921
0
LINE
8
BLACK
6
CONTINUOUS
10
152.1414939999999945
20
-113.2136479999999921
11
152.1547709999999825
21
-113.2632029999999901
0
LINE
8
BLACK
6
CONTINUOUS
10
152.1547709999999825
20
-113.2632029999999901
11
152.1330899999999815
21
-113.3096989999999948
0
LINE
8
BLACK
6
CONTINUOUS
10
152.1330899999999815
20
-113.3096989999999948
11
152.0979899999999816
21
-113.3447979999999973
0
LINE
8
BLACK
6
CONTINUOUS
10
152.0979899999999816
20
-113.3447979999999973
11
152.0598190000000045
21
-113.4593119999999971
0
LINE
8
BLACK
6
CONTINUOUS
10
152.0598190000000045
20
-113.4593119999999971
11
152.0598190000000045
21
-113.5302089999999993
0
LINE
8
BLACK
6
CONTINUOUS
10
152.0598190000000045
20
-113.5302089999999993
11
152.0979899999999816
21
-113.644722999999999
0
LINE
8
BLACK
6
CONTINUOUS
10
152.0979899999999816
20
-113.644722999999999
11
152.1721029999999928
21
-113.718835999999996
0
LINE
8
BLACK
6
CONTINUOUS
10
152.1721029999999928
20
-113.718835999999996
11
152.2490899999999954
21
-113.7573289999999986
0
LINE
8
BLACK
6
CONTINUOUS
10
152.2490899999999954
20
-113.7573289999999986
11
152.4226239999999848
21
-113.8007130000000018
0
LINE
8
BLACK
6
CONTINUOUS
10
152.4226239999999848
20
-113.8007130000000018
11
152.5470129999999926
21
-113.8007130000000018
0
LINE
8
BLACK
6
CONTINUOUS
10
152.5470129999999926
20
-113.8007130000000018
11
152.7205469999999821
21
-113.7573289999999986
0
LINE
8
BLACK
6
CONTINUOUS
10
152.7205469999999821
20
-113.7573289999999986
11
152.7975339999999846
21
-113.7188349999999986
0
LINE
8
BLACK
6
CONTINUOUS
10
152.7975339999999846
20
-113.7188349999999986
11
152.8716479999999933
21
-113.6447220000000016
0
LINE
8
BLACK
6
CONTINUOUS
10
152.8716479999999933
20
-113.6447220000000016
11
152.9098189999999988
21
-113.5302099999999967
0
LINE
8
BLACK
6
CONTINUOUS
10
152.9098189999999988
20
-113.5302099999999967
11
152.9098189999999988
21
-113.4593119999999971
0
LINE
8
BLACK
6
CONTINUOUS
10
152.9098189999999988
20
-113.4593119999999971
11
152.8716479999999933
21
-113.3447989999999947
0
LINE
8
BLACK
6
CONTINUOUS
10
152.8716479999999933
20
-113.3447989999999947
11
152.8365479999999934
21
-113.3096999999999923
0
LINE
8
BLACK
6
CONTINUOUS
10
152.8365479999999934
20
-113.3096999999999923
11
152.8216070000000002
21
-113.2883629999999897
0
LINE
8
BLACK
6
CONTINUOUS
10
152.8216070000000002
20
-113.2883629999999897
11
152.8171349999999791
21
-113.2372549999999904
0
LINE
8
BLACK
6
CONTINUOUS
10
152.8171349999999791
20
-113.2372549999999904
11
152.8465609999999799
21
-113.1952289999999977
0
LINE
8
BLACK
6
CONTINUOUS
10
152.8465609999999799
20
-113.1952289999999977
11
152.8961160000000064
21
-113.1819519999999955
0
LINE
8
BLACK
6
CONTINUOUS
10
152.8961160000000064
20
-113.1819519999999955
11
152.9426119999999969
21
-113.2036319999999989
0
LINE
8
BLACK
6
CONTINUOUS
10
130.0399940000000072
20
-113.149998999999994
11
130.0434290000000033
21
-113.1528809999999936
0
LINE
8
BLACK
6
CONTINUOUS
10
130.0434290000000033
20
-113.1528809999999936
11
130.0478829999999846
21
-113.1533939999999916
0
LINE
8
BLACK
6
CONTINUOUS
10
130.0478829999999846
20
-113.1533939999999916
11
130.1431210000000078
21
-113.201012999999989
0
LINE
8
BLACK
6
CONTINUOUS
10
130.1431210000000078
20
-113.201012999999989
11
130.1611289999999883
21
-113.2143689999999907
0
LINE
8
BLACK
6
CONTINUOUS
10
130.1611289999999883
20
-113.2143689999999907
11
130.1626119999999958
21
-113.2150609999999915
0
LINE
8
BLACK
6
CONTINUOUS
10
130.1626119999999958
20
-113.2150609999999915
11
130.2102319999999906
21
-113.2626799999999889
0
LINE
8
BLACK
6
CONTINUOUS
10
130.2102319999999906
20
-113.2626799999999889
11
130.2230940000000032
21
-113.2810479999999984
0
LINE
8
BLACK
6
CONTINUOUS
10
130.2230940000000032
20
-113.2810479999999984
11
130.2242819999999881
21
-113.2821730000000002
0
LINE
8
BLACK
6
CONTINUOUS
10
130.2242819999999881
20
-113.2821730000000002
11
130.2719009999999855
21
-113.3774109999999951
0
LINE
8
BLACK
6
CONTINUOUS
10
130.2719009999999855
20
-113.3774109999999951
11
130.279326999999995
21
-113.4023770000000013
0
LINE
8
BLACK
6
CONTINUOUS
10
130.279326999999995
20
-113.4023770000000013
11
130.2782849999999826
21
-113.4067379999999901
0
LINE
8
BLACK
6
CONTINUOUS
10
130.2782849999999826
20
-113.4067379999999901
11
130.2798190000000034
21
-113.4109519999999947
0
LINE
8
BLACK
6
CONTINUOUS
10
130.2798190000000034
20
-113.4109519999999947
11
130.2798190000000034
21
-113.6014279999999985
0
LINE
8
BLACK
6
CONTINUOUS
10
130.2798190000000034
20
-113.6014279999999985
11
130.2752959999999973
21
-113.6270799999999923
0
LINE
8
BLACK
6
CONTINUOUS
10
130.2752959999999973
20
-113.6270799999999923
11
130.2724130000000002
21
-113.6305149999999884
0
LINE
8
BLACK
6
CONTINUOUS
10
130.2724130000000002
20
-113.6305149999999884
11
130.2719009999999855
21
-113.6349689999999981
0
LINE
8
BLACK
6
CONTINUOUS
10
130.2719009999999855
20
-113.6349689999999981
11
130.2242819999999881
21
-113.7302069999999929
0
LINE
8
BLACK
6
CONTINUOUS
10
130.2242819999999881
20
-113.7302069999999929
11
130.2109219999999823
21
-113.7482179999999943
0
LINE
8
BLACK
6
CONTINUOUS
10
130.2109219999999823
20
-113.7482179999999943
11
130.2102319999999906
21
-113.74969999999999
0
LINE
8
BLACK
6
CONTINUOUS
10
130.2102319999999906
20
-113.74969999999999
11
130.1626119999999958
21
-113.7973190000000017
0
LINE
8
BLACK
6
CONTINUOUS
10
130.1626119999999958
20
-113.7973190000000017
11
130.1442459999999812
21
-113.8101779999999934
0
LINE
8
BLACK
6
CONTINUOUS
10
130.1442459999999812
20
-113.8101779999999934
11
130.1431210000000078
21
-113.81136699999999
0
LINE
8
BLACK
6
CONTINUOUS
10
130.1431210000000078
20
-113.81136699999999
11
130.0478829999999846
21
-113.8589860000000016
0
LINE
8
BLACK
6
CONTINUOUS
10
130.0478829999999846
20
-113.8589860000000016
11
130.0229159999999808
21
-113.8664119999999969
0
LINE
8
BLACK
6
CONTINUOUS
10
130.0229159999999808
20
-113.8664119999999969
11
130.0185549999999921
21
-113.8653699999999986
0
LINE
8
BLACK
6
CONTINUOUS
10
130.0185549999999921
20
-113.8653699999999986
11
130.0143419999999992
21
-113.866903999999991
0
LINE
8
BLACK
6
CONTINUOUS
10
130.0143419999999992
20
-113.866903999999991
11
129.2048189999999863
21
-113.866903999999991
0
LINE
8
BLACK
6
CONTINUOUS
10
129.2048189999999863
20
-113.866903999999991
11
129.1791670000000067
21
-113.8623809999999992
0
LINE
8
BLACK
6
CONTINUOUS
10
129.1791670000000067
20
-113.8623809999999992
11
129.1398669999999811
21
-113.8294039999999967
0
LINE
8
BLACK
6
CONTINUOUS
10
129.1398669999999811
20
-113.8294039999999967
11
129.1309579999999926
21
-113.7788800000000009
0
LINE
8
BLACK
6
CONTINUOUS
10
129.1309579999999926
20
-113.7788800000000009
11
129.1566100000000006
21
-113.7344509999999929
0
LINE
8
BLACK
6
CONTINUOUS
10
129.1566100000000006
20
-113.7344509999999929
11
129.2048189999999863
21
-113.7169039999999995
0
LINE
8
BLACK
6
CONTINUOUS
10
129.2048189999999863
20
-113.7169039999999995
11
129.9966369999999927
21
-113.7169039999999995
0
LINE
8
BLACK
6
CONTINUOUS
10
129.9966369999999927
20
-113.7169039999999995
11
130.0651529999999809
21
-113.6826449999999937
0
LINE
8
BLACK
6
CONTINUOUS
10
130.0651529999999809
20
-113.6826449999999937
11
130.0955610000000036
21
-113.652237999999997
0
LINE
8
BLACK
6
CONTINUOUS
10
130.0955610000000036
20
-113.652237999999997
11
130.1298189999999977
21
-113.583722999999992
0
LINE
8
BLACK
6
CONTINUOUS
10
130.1298189999999977
20
-113.583722999999992
11
130.1298189999999977
21
-113.4286570000000012
0
LINE
8
BLACK
6
CONTINUOUS
10
130.1298189999999977
20
-113.4286570000000012
11
130.0955610000000036
21
-113.3601409999999987
0
LINE
8
BLACK
6
CONTINUOUS
10
130.0955610000000036
20
-113.3601409999999987
11
130.0651529999999809
21
-113.329734000000002
0
LINE
8
BLACK
6
CONTINUOUS
10
130.0651529999999809
20
-113.329734000000002
11
129.9966369999999927
21
-113.2954759999999936
0
LINE
8
BLACK
6
CONTINUOUS
10
129.9966369999999927
20
-113.2954759999999936
11
129.2048189999999863
21
-113.2954759999999936
0
LINE
8
BLACK
6
CONTINUOUS
10
129.2048189999999863
20
-113.2954759999999936
11
129.1791670000000067
21
-113.2909530000000018
0
LINE
8
BLACK
6
CONTINUOUS
10
129.1791670000000067
20
-113.2909530000000018
11
129.1398669999999811
21
-113.2579759999999993
0
LINE
8
BLACK
6
CONTINUOUS
10
129.1398669999999811
20
-113.2579759999999993
11
129.1309579999999926
21
-113.2074519999999893
0
LINE
8
BLACK
6
CONTINUOUS
10
129.1309579999999926
20
-113.2074519999999893
11
129.1566100000000006
21
-113.1630229999999955
0
LINE
8
BLACK
6
CONTINUOUS
10
129.1566100000000006
20
-113.1630229999999955
11
129.2048189999999863
21
-113.1454759999999879
0
LINE
8
BLACK
6
CONTINUOUS
10
129.2048189999999863
20
-113.1454759999999879
11
130.0143419999999992
21
-113.1454759999999879
0
LINE
8
BLACK
6
CONTINUOUS
10
130.0143419999999992
20
-113.1454759999999879
11
130.0399940000000072
21
-113.149998999999994
0
LINE
8
BLACK
6
CONTINUOUS
10
152.2926149999999836
20
-112.2331779999999952
11
152.2942500000000052
21
-112.2331339999999926
0
LINE
8
BLACK
6
CONTINUOUS
10
152.2942500000000052
20
-112.2331339999999926
11
152.4371069999999975
21
-112.28075299999999
0
LINE
8
BLACK
6
CONTINUOUS
10
152.4371069999999975
20
-112.28075299999999
11
152.4600120000000061
21
-112.2931549999999987
0
LINE
8
BLACK
6
CONTINUOUS
10
152.4600120000000061
20
-112.2931549999999987
11
152.4623589999999922
21
-112.2969760000000008
0
LINE
8
BLACK
6
CONTINUOUS
10
152.4623589999999922
20
-112.2969760000000008
11
152.4664229999999918
21
-112.2988709999999912
0
LINE
8
BLACK
6
CONTINUOUS
10
152.4664229999999918
20
-112.2988709999999912
11
152.9098189999999988
21
-112.7422660000000008
0
LINE
8
BLACK
6
CONTINUOUS
10
152.9098189999999988
20
-112.7422660000000008
11
152.9098189999999988
21
-112.304284999999993
0
LINE
8
BLACK
6
CONTINUOUS
10
152.9098189999999988
20
-112.304284999999993
11
152.9143420000000049
21
-112.2786329999999992
0
LINE
8
BLACK
6
CONTINUOUS
10
152.9143420000000049
20
-112.2786329999999992
11
152.9473189999999931
21
-112.239333000000002
0
LINE
8
BLACK
6
CONTINUOUS
10
152.9473189999999931
20
-112.239333000000002
11
152.9978429999999889
21
-112.2304239999999993
0
LINE
8
BLACK
6
CONTINUOUS
10
152.9978429999999889
20
-112.2304239999999993
11
153.042271999999997
21
-112.2560759999999931
0
LINE
8
BLACK
6
CONTINUOUS
10
153.042271999999997
20
-112.2560759999999931
11
153.0598190000000045
21
-112.304284999999993
0
LINE
8
BLACK
6
CONTINUOUS
10
153.0598190000000045
20
-112.304284999999993
11
153.0598190000000045
21
-112.9233319999999878
0
LINE
8
BLACK
6
CONTINUOUS
10
153.0598190000000045
20
-112.9233319999999878
11
153.0569759999999917
21
-112.9394539999999978
0
LINE
8
BLACK
6
CONTINUOUS
10
153.0569759999999917
20
-112.9394539999999978
11
153.0572640000000035
21
-112.942742999999993
0
LINE
8
BLACK
6
CONTINUOUS
10
153.0572640000000035
20
-112.942742999999993
11
153.0561040000000048
21
-112.94439899999999
0
LINE
8
BLACK
6
CONTINUOUS
10
153.0561040000000048
20
-112.94439899999999
11
153.0552959999999985
21
-112.9489839999999958
0
LINE
8
BLACK
6
CONTINUOUS
10
153.0552959999999985
20
-112.9489839999999958
11
153.0407849999999996
21
-112.9662769999999909
0
LINE
8
BLACK
6
CONTINUOUS
10
153.0407849999999996
20
-112.9662769999999909
11
153.0278370000000052
21
-112.984769
0
LINE
8
BLACK
6
CONTINUOUS
10
153.0278370000000052
20
-112.984769
11
153.0245229999999879
21
-112.9856559999999916
0
LINE
8
BLACK
6
CONTINUOUS
10
153.0245229999999879
20
-112.9856559999999916
11
153.0223189999999818
21
-112.9882839999999931
0
LINE
8
BLACK
6
CONTINUOUS
10
153.0223189999999818
20
-112.9882839999999931
11
153.0000849999999843
21
-112.992204000000001
0
LINE
8
BLACK
6
CONTINUOUS
10
153.0000849999999843
20
-112.992204000000001
11
152.9782830000000047
21
-112.998045999999988
0
LINE
8
BLACK
6
CONTINUOUS
10
152.9782830000000047
20
-112.998045999999988
11
152.9751750000000072
21
-112.9965959999999967
0
LINE
8
BLACK
6
CONTINUOUS
10
152.9751750000000072
20
-112.9965959999999967
11
152.971794999999986
21
-112.9971929999999958
0
LINE
8
BLACK
6
CONTINUOUS
10
152.971794999999986
20
-112.9971929999999958
11
152.9522389999999916
21
-112.9859019999999958
0
LINE
8
BLACK
6
CONTINUOUS
10
152.9522389999999916
20
-112.9859019999999958
11
152.9317859999999882
21
-112.9763650000000013
0
LINE
8
BLACK
6
CONTINUOUS
10
152.9317859999999882
20
-112.9763650000000013
11
152.3728759999999909
21
-112.4174560000000014
0
LINE
8
BLACK
6
CONTINUOUS
10
152.3728759999999909
20
-112.4174560000000014
11
152.2583630000000028
21
-112.3792849999999959
0
LINE
8
BLACK
6
CONTINUOUS
10
152.2583630000000028
20
-112.3792849999999959
11
152.1929999999999836
21
-112.3792849999999959
0
LINE
8
BLACK
6
CONTINUOUS
10
152.1929999999999836
20
-112.3792849999999959
11
152.1244839999999954
21
-112.41354299999999
0
LINE
8
BLACK
6
CONTINUOUS
10
152.1244839999999954
20
-112.41354299999999
11
152.0940769999999986
21
-112.443950000000001
0
LINE
8
BLACK
6
CONTINUOUS
10
152.0940769999999986
20
-112.443950000000001
11
152.0598190000000045
21
-112.5124659999999892
0
LINE
8
BLACK
6
CONTINUOUS
10
152.0598190000000045
20
-112.5124659999999892
11
152.0598190000000045
21
-112.7151509999999917
0
LINE
8
BLACK
6
CONTINUOUS
10
152.0598190000000045
20
-112.7151509999999917
11
152.0940769999999986
21
-112.7836669999999941
0
LINE
8
BLACK
6
CONTINUOUS
10
152.0940769999999986
20
-112.7836669999999941
11
152.1330899999999815
21
-112.8226799999999912
0
LINE
8
BLACK
6
CONTINUOUS
10
152.1330899999999815
20
-112.8226799999999912
11
152.1480300000000057
21
-112.8440169999999938
0
LINE
8
BLACK
6
CONTINUOUS
10
152.1480300000000057
20
-112.8440169999999938
11
152.1525010000000009
21
-112.8951239999999956
0
LINE
8
BLACK
6
CONTINUOUS
10
152.1525010000000009
20
-112.8951239999999956
11
152.123075
21
-112.9371499999999884
0
LINE
8
BLACK
6
CONTINUOUS
10
152.123075
20
-112.9371499999999884
11
152.073520000000002
21
-112.9504269999999906
0
LINE
8
BLACK
6
CONTINUOUS
10
152.073520000000002
20
-112.9504269999999906
11
152.0270239999999831
21
-112.9287459999999896
0
LINE
8
BLACK
6
CONTINUOUS
10
152.0270239999999831
20
-112.9287459999999896
11
151.9794049999999856
21
-112.8811269999999922
0
LINE
8
BLACK
6
CONTINUOUS
10
151.9794049999999856
20
-112.8811269999999922
11
151.9665449999999964
21
-112.8627599999999944
0
LINE
8
BLACK
6
CONTINUOUS
10
151.9665449999999964
20
-112.8627599999999944
11
151.9653559999999857
21
-112.8616349999999926
0
LINE
8
BLACK
6
CONTINUOUS
10
151.9653559999999857
20
-112.8616349999999926
11
151.9177369999999883
21
-112.7663969999999978
0
LINE
8
BLACK
6
CONTINUOUS
10
151.9177369999999883
20
-112.7663969999999978
11
151.9103110000000072
21
-112.741429999999994
0
LINE
8
BLACK
6
CONTINUOUS
10
151.9103110000000072
20
-112.741429999999994
11
151.9113519999999937
21
-112.7370689999999911
0
LINE
8
BLACK
6
CONTINUOUS
10
151.9113519999999937
20
-112.7370689999999911
11
151.9098189999999988
21
-112.7328559999999982
0
LINE
8
BLACK
6
CONTINUOUS
10
151.9098189999999988
20
-112.7328559999999982
11
151.9098189999999988
21
-112.4947609999999969
0
LINE
8
BLACK
6
CONTINUOUS
10
151.9098189999999988
20
-112.4947609999999969
11
151.9143420000000049
21
-112.4691089999999889
0
LINE
8
BLACK
6
CONTINUOUS
10
151.9143420000000049
20
-112.4691089999999889
11
151.9172240000000045
21
-112.4656729999999953
0
LINE
8
BLACK
6
CONTINUOUS
10
151.9172240000000045
20
-112.4656729999999953
11
151.9177369999999883
21
-112.4612199999999973
0
LINE
8
BLACK
6
CONTINUOUS
10
151.9177369999999883
20
-112.4612199999999973
11
151.9653559999999857
21
-112.3659819999999883
0
LINE
8
BLACK
6
CONTINUOUS
10
151.9653559999999857
20
-112.3659819999999883
11
151.9787139999999965
21
-112.3479710000000011
0
LINE
8
BLACK
6
CONTINUOUS
10
151.9787139999999965
20
-112.3479710000000011
11
151.9794049999999856
21
-112.3464899999999886
0
LINE
8
BLACK
6
CONTINUOUS
10
151.9794049999999856
20
-112.3464899999999886
11
152.0270239999999831
21
-112.2988709999999912
0
LINE
8
BLACK
6
CONTINUOUS
10
152.0270239999999831
20
-112.2988709999999912
11
152.0453899999999976
21
-112.286011000000002
0
LINE
8
BLACK
6
CONTINUOUS
10
152.0453899999999976
20
-112.286011000000002
11
152.0465159999999969
21
-112.2848219999999912
0
LINE
8
BLACK
6
CONTINUOUS
10
152.0465159999999969
20
-112.2848219999999912
11
152.1417539999999917
21
-112.2372029999999938
0
LINE
8
BLACK
6
CONTINUOUS
10
152.1417539999999917
20
-112.2372029999999938
11
152.166719999999998
21
-112.2297769999999986
0
LINE
8
BLACK
6
CONTINUOUS
10
152.166719999999998
20
-112.2297769999999986
11
152.1710809999999867
21
-112.2308179999999993
0
LINE
8
BLACK
6
CONTINUOUS
10
152.1710809999999867
20
-112.2308179999999993
11
152.1752950000000055
21
-112.2292849999999902
0
LINE
8
BLACK
6
CONTINUOUS
10
152.1752950000000055
20
-112.2292849999999902
11
152.2705330000000004
21
-112.2292849999999902
0
LINE
8
BLACK
6
CONTINUOUS
10
152.2705330000000004
20
-112.2292849999999902
11
152.2926149999999836
21
-112.2331779999999952
0
LINE
8
BLACK
6
CONTINUOUS
10
129.5126149999999825
20
-112.149368999999993
11
129.5142500000000041
21
-112.1493249999999904
0
LINE
8
BLACK
6
CONTINUOUS
10
129.5142500000000041
20
-112.1493249999999904
11
129.6571069999999963
21
-112.196944000000002
0
LINE
8
BLACK
6
CONTINUOUS
10
129.6571069999999963
20
-112.196944000000002
11
129.6800120000000049
21
-112.2093459999999965
0
LINE
8
BLACK
6
CONTINUOUS
10
129.6800120000000049
20
-112.2093459999999965
11
129.6823589999999911
21
-112.2131669999999986
0
LINE
8
BLACK
6
CONTINUOUS
10
129.6823589999999911
20
-112.2131669999999986
11
129.6864229999999907
21
-112.215061999999989
0
LINE
8
BLACK
6
CONTINUOUS
10
129.6864229999999907
20
-112.215061999999989
11
130.1298189999999977
21
-112.6584569999999985
0
LINE
8
BLACK
6
CONTINUOUS
10
130.1298189999999977
20
-112.6584569999999985
11
130.1298189999999977
21
-112.2204759999999908
0
LINE
8
BLACK
6
CONTINUOUS
10
130.1298189999999977
20
-112.2204759999999908
11
130.1343420000000037
21
-112.194823999999997
0
LINE
8
BLACK
6
CONTINUOUS
10
130.1343420000000037
20
-112.194823999999997
11
130.167318999999992
21
-112.1555239999999998
0
LINE
8
BLACK
6
CONTINUOUS
10
130.167318999999992
20
-112.1555239999999998
11
130.2178429999999878
21
-112.1466149999999971
0
LINE
8
BLACK
6
CONTINUOUS
10
130.2178429999999878
20
-112.1466149999999971
11
130.2622719999999958
21
-112.1722669999999908
0
LINE
8
BLACK
6
CONTINUOUS
10
130.2622719999999958
20
-112.1722669999999908
11
130.2798190000000034
21
-112.2204759999999908
0
LINE
8
BLACK
6
CONTINUOUS
10
130.2798190000000034
20
-112.2204759999999908
11
130.2798190000000034
21
-112.8395229999999998
0
LINE
8
BLACK
6
CONTINUOUS
10
130.2798190000000034
20
-112.8395229999999998
11
130.2769759999999906
21
-112.8556449999999955
0
LINE
8
BLACK
6
CONTINUOUS
10
130.2769759999999906
20
-112.8556449999999955
11
130.2772640000000024
21
-112.8589339999999908
0
LINE
8
BLACK
6
CONTINUOUS
10
130.2772640000000024
20
-112.8589339999999908
11
130.2761040000000037
21
-112.860590000000002
0
LINE
8
BLACK
6
CONTINUOUS
10
130.2761040000000037
20
-112.860590000000002
11
130.2752959999999973
21
-112.8651749999999936
0
LINE
8
BLACK
6
CONTINUOUS
10
130.2752959999999973
20
-112.8651749999999936
11
130.2607849999999985
21
-112.8824679999999887
0
LINE
8
BLACK
6
CONTINUOUS
10
130.2607849999999985
20
-112.8824679999999887
11
130.2478370000000041
21
-112.9009599999999978
0
LINE
8
BLACK
6
CONTINUOUS
10
130.2478370000000041
20
-112.9009599999999978
11
130.2445229999999867
21
-112.9018469999999894
0
LINE
8
BLACK
6
CONTINUOUS
10
130.2445229999999867
20
-112.9018469999999894
11
130.2423189999999806
21
-112.9044749999999908
0
LINE
8
BLACK
6
CONTINUOUS
10
130.2423189999999806
20
-112.9044749999999908
11
130.2200849999999832
21
-112.9083949999999987
0
LINE
8
BLACK
6
CONTINUOUS
10
130.2200849999999832
20
-112.9083949999999987
11
130.1982830000000035
21
-112.914237
0
LINE
8
BLACK
6
CONTINUOUS
10
130.1982830000000035
20
-112.914237
11
130.1951750000000061
21
-112.9127869999999945
0
LINE
8
BLACK
6
CONTINUOUS
10
130.1951750000000061
20
-112.9127869999999945
11
130.1917949999999848
21
-112.9133839999999935
0
LINE
8
BLACK
6
CONTINUOUS
10
130.1917949999999848
20
-112.9133839999999935
11
130.1722389999999905
21
-112.9020929999999936
0
LINE
8
BLACK
6
CONTINUOUS
10
130.1722389999999905
20
-112.9020929999999936
11
130.1517859999999871
21
-112.892555999999999
0
LINE
8
BLACK
6
CONTINUOUS
10
130.1517859999999871
20
-112.892555999999999
11
129.5928759999999897
21
-112.3336469999999991
0
LINE
8
BLACK
6
CONTINUOUS
10
129.5928759999999897
20
-112.3336469999999991
11
129.4783630000000016
21
-112.2954759999999936
0
LINE
8
BLACK
6
CONTINUOUS
10
129.4783630000000016
20
-112.2954759999999936
11
129.4129999999999825
21
-112.2954759999999936
0
LINE
8
BLACK
6
CONTINUOUS
10
129.4129999999999825
20
-112.2954759999999936
11
129.3444839999999942
21
-112.329734000000002
0
LINE
8
BLACK
6
CONTINUOUS
10
129.3444839999999942
20
-112.329734000000002
11
129.3140769999999975
21
-112.3601409999999987
0
LINE
8
BLACK
6
CONTINUOUS
10
129.3140769999999975
20
-112.3601409999999987
11
129.2798190000000034
21
-112.4286570000000012
0
LINE
8
BLACK
6
CONTINUOUS
10
129.2798190000000034
20
-112.4286570000000012
11
129.2798190000000034
21
-112.6313419999999894
0
LINE
8
BLACK
6
CONTINUOUS
10
129.2798190000000034
20
-112.6313419999999894
11
129.3140769999999975
21
-112.6998579999999919
0
LINE
8
BLACK
6
CONTINUOUS
10
129.3140769999999975
20
-112.6998579999999919
11
129.3530899999999804
21
-112.738870999999989
0
LINE
8
BLACK
6
CONTINUOUS
10
129.3530899999999804
20
-112.738870999999989
11
129.3680300000000045
21
-112.7602079999999916
0
LINE
8
BLACK
6
CONTINUOUS
10
129.3680300000000045
20
-112.7602079999999916
11
129.3725009999999997
21
-112.8113149999999933
0
LINE
8
BLACK
6
CONTINUOUS
10
129.3725009999999997
20
-112.8113149999999933
11
129.3430749999999989
21
-112.8533410000000003
0
LINE
8
BLACK
6
CONTINUOUS
10
129.3430749999999989
20
-112.8533410000000003
11
129.2935200000000009
21
-112.8666179999999883
0
LINE
8
BLACK
6
CONTINUOUS
10
129.2935200000000009
20
-112.8666179999999883
11
129.2470239999999819
21
-112.8449370000000016
0
LINE
8
BLACK
6
CONTINUOUS
10
129.2470239999999819
20
-112.8449370000000016
11
129.1994049999999845
21
-112.79731799999999
0
LINE
8
BLACK
6
CONTINUOUS
10
129.1994049999999845
20
-112.79731799999999
11
129.1865449999999953
21
-112.7789509999999922
0
LINE
8
BLACK
6
CONTINUOUS
10
129.1865449999999953
20
-112.7789509999999922
11
129.1853559999999845
21
-112.7778259999999904
0
LINE
8
BLACK
6
CONTINUOUS
10
129.1853559999999845
20
-112.7778259999999904
11
129.1377369999999871
21
-112.6825879999999955
0
LINE
8
BLACK
6
CONTINUOUS
10
129.1377369999999871
20
-112.6825879999999955
11
129.1303110000000061
21
-112.6576209999999918
0
LINE
8
BLACK
6
CONTINUOUS
10
129.1303110000000061
20
-112.6576209999999918
11
129.1313519999999926
21
-112.6532599999999888
0
LINE
8
BLACK
6
CONTINUOUS
10
129.1313519999999926
20
-112.6532599999999888
11
129.1298189999999977
21
-112.6490469999999959
0
LINE
8
BLACK
6
CONTINUOUS
10
129.1298189999999977
20
-112.6490469999999959
11
129.1298189999999977
21
-112.4109519999999947
0
LINE
8
BLACK
6
CONTINUOUS
10
129.1298189999999977
20
-112.4109519999999947
11
129.1343420000000037
21
-112.3853000000000009
0
LINE
8
BLACK
6
CONTINUOUS
10
129.1343420000000037
20
-112.3853000000000009
11
129.1372240000000033
21
-112.3818639999999931
0
LINE
8
BLACK
6
CONTINUOUS
10
129.1372240000000033
20
-112.3818639999999931
11
129.1377369999999871
21
-112.3774109999999951
0
LINE
8
BLACK
6
CONTINUOUS
10
129.1377369999999871
20
-112.3774109999999951
11
129.1853559999999845
21
-112.2821730000000002
0
LINE
8
BLACK
6
CONTINUOUS
10
129.1853559999999845
20
-112.2821730000000002
11
129.1987139999999954
21
-112.2641619999999989
0
LINE
8
BLACK
6
CONTINUOUS
10
129.1987139999999954
20
-112.2641619999999989
11
129.1994049999999845
21
-112.2626810000000006
0
LINE
8
BLACK
6
CONTINUOUS
10
129.1994049999999845
20
-112.2626810000000006
11
129.2470239999999819
21
-112.215061999999989
0
LINE
8
BLACK
6
CONTINUOUS
10
129.2470239999999819
20
-112.215061999999989
11
129.2653899999999965
21
-112.2022019999999998
0
LINE
8
BLACK
6
CONTINUOUS
10
129.2653899999999965
20
-112.2022019999999998
11
129.2665159999999958
21
-112.201012999999989
0
LINE
8
BLACK
6
CONTINUOUS
10
129.2665159999999958
20
-112.201012999999989
11
129.3617539999999906
21
-112.1533939999999916
0
LINE
8
BLACK
6
CONTINUOUS
10
129.3617539999999906
20
-112.1533939999999916
11
129.3867199999999968
21
-112.1459679999999963
0
LINE
8
BLACK
6
CONTINUOUS
10
129.3867199999999968
20
-112.1459679999999963
11
129.3910809999999856
21
-112.1470089999999971
0
LINE
8
BLACK
6
CONTINUOUS
10
129.3910809999999856
20
-112.1470089999999971
11
129.3952950000000044
21
-112.1454759999999879
0
LINE
8
BLACK
6
CONTINUOUS
10
129.3952950000000044
20
-112.1454759999999879
11
129.4905329999999992
21
-112.1454759999999879
0
LINE
8
BLACK
6
CONTINUOUS
10
129.4905329999999992
20
-112.1454759999999879
11
129.5126149999999825
21
-112.149368999999993
0
LINE
8
BLACK
6
CONTINUOUS
10
142.1219759999999894
20
-105.8766099999999994
11
142.139522999999997
21
-105.9248189999999994
0
LINE
8
BLACK
6
CONTINUOUS
10
142.139522999999997
20
-105.9248189999999994
11
142.139522999999997
21
-106.7343419999999981
0
LINE
8
BLACK
6
CONTINUOUS
10
142.139522999999997
20
-106.7343419999999981
11
142.1349999999999909
21
-106.7599939999999918
0
LINE
8
BLACK
6
CONTINUOUS
10
142.1349999999999909
20
-106.7599939999999918
11
142.1321169999999938
21
-106.7634290000000021
0
LINE
8
BLACK
6
CONTINUOUS
10
142.1321169999999938
20
-106.7634290000000021
11
142.1316050000000075
21
-106.7678829999999977
0
LINE
8
BLACK
6
CONTINUOUS
10
142.1316050000000075
20
-106.7678829999999977
11
142.0839859999999817
21
-106.8631209999999925
0
LINE
8
BLACK
6
CONTINUOUS
10
142.0839859999999817
20
-106.8631209999999925
11
142.0706270000000018
21
-106.8811309999999963
0
LINE
8
BLACK
6
CONTINUOUS
10
142.0706270000000018
20
-106.8811309999999963
11
142.0699369999999817
21
-106.8826129999999921
0
LINE
8
BLACK
6
CONTINUOUS
10
142.0699369999999817
20
-106.8826129999999921
11
142.0223189999999818
21
-106.9302319999999895
0
LINE
8
BLACK
6
CONTINUOUS
10
142.0223189999999818
20
-106.9302319999999895
11
142.0039500000000032
21
-106.9430940000000021
0
LINE
8
BLACK
6
CONTINUOUS
10
142.0039500000000032
20
-106.9430940000000021
11
142.0028259999999989
21
-106.9442820000000012
0
LINE
8
BLACK
6
CONTINUOUS
10
142.0028259999999989
20
-106.9442820000000012
11
141.9075880000000041
21
-106.9919009999999986
0
LINE
8
BLACK
6
CONTINUOUS
10
141.9075880000000041
20
-106.9919009999999986
11
141.8826210000000003
21
-106.9993269999999939
0
LINE
8
BLACK
6
CONTINUOUS
10
141.8826210000000003
20
-106.9993269999999939
11
141.8782599999999832
21
-106.9982849999999956
0
LINE
8
BLACK
6
CONTINUOUS
10
141.8782599999999832
20
-106.9982849999999956
11
141.8740469999999902
21
-106.9998190000000022
0
LINE
8
BLACK
6
CONTINUOUS
10
141.8740469999999902
20
-106.9998190000000022
11
141.6835710000000006
21
-106.9998190000000022
0
LINE
8
BLACK
6
CONTINUOUS
10
141.6835710000000006
20
-106.9998190000000022
11
141.6579189999999926
21
-106.9952959999999962
0
LINE
8
BLACK
6
CONTINUOUS
10
141.6579189999999926
20
-106.9952959999999962
11
141.654482999999999
21
-106.9924129999999991
0
LINE
8
BLACK
6
CONTINUOUS
10
141.654482999999999
20
-106.9924129999999991
11
141.6500299999999868
21
-106.9919009999999986
0
LINE
8
BLACK
6
CONTINUOUS
10
141.6500299999999868
20
-106.9919009999999986
11
141.554791999999992
21
-106.9442820000000012
0
LINE
8
BLACK
6
CONTINUOUS
10
141.554791999999992
20
-106.9442820000000012
11
141.5367799999999932
21
-106.9309219999999954
0
LINE
8
BLACK
6
CONTINUOUS
10
141.5367799999999932
20
-106.9309219999999954
11
141.5352989999999807
21
-106.9302319999999895
0
LINE
8
BLACK
6
CONTINUOUS
10
141.5352989999999807
20
-106.9302319999999895
11
141.4876799999999832
21
-106.8826119999999946
0
LINE
8
BLACK
6
CONTINUOUS
10
141.4876799999999832
20
-106.8826119999999946
11
141.474819999999994
21
-106.8642459999999943
0
LINE
8
BLACK
6
CONTINUOUS
10
141.474819999999994
20
-106.8642459999999943
11
141.4736319999999807
21
-106.8631209999999925
0
LINE
8
BLACK
6
CONTINUOUS
10
141.4736319999999807
20
-106.8631209999999925
11
141.4260129999999833
21
-106.7678829999999977
0
LINE
8
BLACK
6
CONTINUOUS
10
141.4260129999999833
20
-106.7678829999999977
11
141.4185870000000023
21
-106.7429159999999939
0
LINE
8
BLACK
6
CONTINUOUS
10
141.4185870000000023
20
-106.7429159999999939
11
141.4196279999999888
21
-106.738554999999991
0
LINE
8
BLACK
6
CONTINUOUS
10
141.4196279999999888
20
-106.738554999999991
11
141.4180949999999939
21
-106.7343419999999981
0
LINE
8
BLACK
6
CONTINUOUS
10
141.4180949999999939
20
-106.7343419999999981
11
141.4180949999999939
21
-105.9248189999999994
0
LINE
8
BLACK
6
CONTINUOUS
10
141.4180949999999939
20
-105.9248189999999994
11
141.4226179999999999
21
-105.8991669999999914
0
LINE
8
BLACK
6
CONTINUOUS
10
141.4226179999999999
20
-105.8991669999999914
11
141.4555949999999882
21
-105.8598669999999942
0
LINE
8
BLACK
6
CONTINUOUS
10
141.4555949999999882
20
-105.8598669999999942
11
141.506118999999984
21
-105.8509579999999914
0
LINE
8
BLACK
6
CONTINUOUS
10
141.506118999999984
20
-105.8509579999999914
11
141.550547999999992
21
-105.8766099999999994
0
LINE
8
BLACK
6
CONTINUOUS
10
141.550547999999992
20
-105.8766099999999994
11
141.5680949999999996
21
-105.9248189999999994
0
LINE
8
BLACK
6
CONTINUOUS
10
141.5680949999999996
20
-105.9248189999999994
11
141.5680949999999996
21
-106.7166369999999915
0
LINE
8
BLACK
6
CONTINUOUS
10
141.5680949999999996
20
-106.7166369999999915
11
141.6023529999999937
21
-106.785152999999994
0
LINE
8
BLACK
6
CONTINUOUS
10
141.6023529999999937
20
-106.785152999999994
11
141.6327599999999904
21
-106.8155609999999882
0
LINE
8
BLACK
6
CONTINUOUS
10
141.6327599999999904
20
-106.8155609999999882
11
141.7012760000000071
21
-106.8498189999999965
0
LINE
8
BLACK
6
CONTINUOUS
10
141.7012760000000071
20
-106.8498189999999965
11
141.8563419999999837
21
-106.8498189999999965
0
LINE
8
BLACK
6
CONTINUOUS
10
141.8563419999999837
20
-106.8498189999999965
11
141.9248570000000029
21
-106.8155609999999882
0
LINE
8
BLACK
6
CONTINUOUS
10
141.9248570000000029
20
-106.8155609999999882
11
141.9552639999999997
21
-106.785152999999994
0
LINE
8
BLACK
6
CONTINUOUS
10
141.9552639999999997
20
-106.785152999999994
11
141.9895229999999913
21
-106.7166369999999915
0
LINE
8
BLACK
6
CONTINUOUS
10
141.9895229999999913
20
-106.7166369999999915
11
141.9895229999999913
21
-105.9248189999999994
0
LINE
8
BLACK
6
CONTINUOUS
10
141.9895229999999913
20
-105.9248189999999994
11
141.9940459999999973
21
-105.8991669999999914
0
LINE
8
BLACK
6
CONTINUOUS
10
141.9940459999999973
20
-105.8991669999999914
11
142.0270229999999856
21
-105.8598669999999942
0
LINE
8
BLACK
6
CONTINUOUS
10
142.0270229999999856
20
-105.8598669999999942
11
142.0775469999999814
21
-105.8509579999999914
0
LINE
8
BLACK
6
CONTINUOUS
10
142.0775469999999814
20
-105.8509579999999914
11
142.1219759999999894
21
-105.8766099999999994
0
LINE
8
BLACK
6
CONTINUOUS
10
142.7875850000000071
20
-105.851705999999993
11
142.7918329999999969
21
-105.8509579999999914
0
LINE
8
BLACK
6
CONTINUOUS
10
142.7918329999999969
20
-105.8509579999999914
11
142.8106809999999882
21
-105.8618400000000008
0
LINE
8
BLACK
6
CONTINUOUS
10
142.8106809999999882
20
-105.8618400000000008
11
142.830615999999992
21
-105.8705870000000004
0
LINE
8
BLACK
6
CONTINUOUS
10
142.830615999999992
20
-105.8705870000000004
11
142.8325269999999989
21
-105.8744540000000001
0
LINE
8
BLACK
6
CONTINUOUS
10
142.8325269999999989
20
-105.8744540000000001
11
142.8362620000000049
21
-105.8766099999999994
0
LINE
8
BLACK
6
CONTINUOUS
10
142.8362620000000049
20
-105.8766099999999994
11
142.8437059999999974
21
-105.8970629999999886
0
LINE
8
BLACK
6
CONTINUOUS
10
142.8437059999999974
20
-105.8970629999999886
11
142.8533539999999959
21
-105.9165759999999921
0
LINE
8
BLACK
6
CONTINUOUS
10
142.8533539999999959
20
-105.9165759999999921
11
142.8523329999999874
21
-105.9207649999999887
0
LINE
8
BLACK
6
CONTINUOUS
10
142.8523329999999874
20
-105.9207649999999887
11
142.8538089999999841
21
-105.9248189999999994
0
LINE
8
BLACK
6
CONTINUOUS
10
142.8538089999999841
20
-105.9248189999999994
11
142.8538089999999841
21
-106.8498189999999965
0
LINE
8
BLACK
6
CONTINUOUS
10
142.8538089999999841
20
-106.8498189999999965
11
143.0645229999999799
21
-106.8498189999999965
0
LINE
8
BLACK
6
CONTINUOUS
10
143.0645229999999799
20
-106.8498189999999965
11
143.0901749999999879
21
-106.8543419999999884
0
LINE
8
BLACK
6
CONTINUOUS
10
143.0901749999999879
20
-106.8543419999999884
11
143.1294749999999851
21
-106.8873189999999909
0
LINE
8
BLACK
6
CONTINUOUS
10
143.1294749999999851
20
-106.8873189999999909
11
143.1383840000000021
21
-106.9378430000000009
0
LINE
8
BLACK
6
CONTINUOUS
10
143.1383840000000021
20
-106.9378430000000009
11
143.1127319999999941
21
-106.9822719999999947
0
LINE
8
BLACK
6
CONTINUOUS
10
143.1127319999999941
20
-106.9822719999999947
11
143.0645229999999799
21
-106.9998190000000022
0
LINE
8
BLACK
6
CONTINUOUS
10
143.0645229999999799
20
-106.9998190000000022
11
142.4930949999999825
21
-106.9998190000000022
0
LINE
8
BLACK
6
CONTINUOUS
10
142.4930949999999825
20
-106.9998190000000022
11
142.4674430000000029
21
-106.9952959999999962
0
LINE
8
BLACK
6
CONTINUOUS
10
142.4674430000000029
20
-106.9952959999999962
11
142.4281430000000057
21
-106.9623189999999937
0
LINE
8
BLACK
6
CONTINUOUS
10
142.4281430000000057
20
-106.9623189999999937
11
142.4192339999999888
21
-106.9117949999999979
0
LINE
8
BLACK
6
CONTINUOUS
10
142.4192339999999888
20
-106.9117949999999979
11
142.4448859999999968
21
-106.8673659999999899
0
LINE
8
BLACK
6
CONTINUOUS
10
142.4448859999999968
20
-106.8673659999999899
11
142.4930949999999825
21
-106.8498189999999965
0
LINE
8
BLACK
6
CONTINUOUS
10
142.4930949999999825
20
-106.8498189999999965
11
142.7038090000000068
21
-106.8498189999999965
0
LINE
8
BLACK
6
CONTINUOUS
10
142.7038090000000068
20
-106.8498189999999965
11
142.7038090000000068
21
-106.1535039999999981
0
LINE
8
BLACK
6
CONTINUOUS
10
142.7038090000000068
20
-106.1535039999999981
11
142.641366000000005
21
-106.2159469999999999
0
LINE
8
BLACK
6
CONTINUOUS
10
142.641366000000005
20
-106.2159469999999999
11
142.622998999999993
21
-106.2288059999999916
0
LINE
8
BLACK
6
CONTINUOUS
10
142.622998999999993
20
-106.2288059999999916
11
142.6218739999999912
21
-106.2299959999999999
0
LINE
8
BLACK
6
CONTINUOUS
10
142.6218739999999912
20
-106.2299959999999999
11
142.5266359999999963
21
-106.2776149999999973
0
LINE
8
BLACK
6
CONTINUOUS
10
142.5266359999999963
20
-106.2776149999999973
11
142.5016689999999926
21
-106.2850409999999926
0
LINE
8
BLACK
6
CONTINUOUS
10
142.5016689999999926
20
-106.2850409999999926
11
142.4517709999999795
21
-106.2731209999999891
0
LINE
8
BLACK
6
CONTINUOUS
10
142.4517709999999795
20
-106.2731209999999891
11
142.4212069999999812
21
-106.2319159999999982
0
LINE
8
BLACK
6
CONTINUOUS
10
142.4212069999999812
20
-106.2319159999999982
11
142.4242820000000052
21
-106.180704999999989
0
LINE
8
BLACK
6
CONTINUOUS
10
142.4242820000000052
20
-106.180704999999989
11
142.4595539999999971
21
-106.1434509999999989
0
LINE
8
BLACK
6
CONTINUOUS
10
142.4595539999999971
20
-106.1434509999999989
11
142.5439059999999927
21
-106.1012750000000011
0
LINE
8
BLACK
6
CONTINUOUS
10
142.5439059999999927
20
-106.1012750000000011
11
142.625284999999991
21
-106.0198959999999886
0
LINE
8
BLACK
6
CONTINUOUS
10
142.625284999999991
20
-106.0198959999999886
11
142.7164049999999804
21
-105.8832159999999902
0
LINE
8
BLACK
6
CONTINUOUS
10
142.7164049999999804
20
-105.8832159999999902
11
142.7343979999999988
21
-105.8643809999999945
0
LINE
8
BLACK
6
CONTINUOUS
10
142.7343979999999988
20
-105.8643809999999945
11
142.7385369999999796
21
-105.8631689999999992
0
LINE
8
BLACK
6
CONTINUOUS
10
142.7385369999999796
20
-105.8631689999999992
11
142.7413090000000011
21
-105.8598669999999942
0
LINE
8
BLACK
6
CONTINUOUS
10
142.7413090000000011
20
-105.8598669999999942
11
142.7627410000000054
21
-105.8560870000000023
0
LINE
8
BLACK
6
CONTINUOUS
10
142.7627410000000054
20
-105.8560870000000023
11
142.7836360000000013
21
-105.8499739999999889
0
LINE
8
BLACK
6
CONTINUOUS
10
142.7836360000000013
20
-105.8499739999999889
11
142.7875850000000071
21
-105.851705999999993
0
LINE
8
BLACK
6
CONTINUOUS
10
159.5224259999999958
20
-105.1375740000000008
11
159.539999999999992
21
-105.1799999999999926
0
LINE
8
BLACK
6
CONTINUOUS
10
159.539999999999992
20
-105.1799999999999926
11
159.539999999999992
21
-105.5099999999999909
0
LINE
8
BLACK
6
CONTINUOUS
10
159.539999999999992
20
-105.5099999999999909
11
159.5224259999999958
21
-105.552425999999997
0
LINE
8
BLACK
6
CONTINUOUS
10
159.5224259999999958
20
-105.552425999999997
11
159.4799999999999898
21
-105.5699999999999932
0
LINE
8
BLACK
6
CONTINUOUS
10
159.4799999999999898
20
-105.5699999999999932
11
152.9399999999999977
21
-105.5699999999999932
0
LINE
8
BLACK
6
CONTINUOUS
10
152.9399999999999977
20
-105.5699999999999932
11
152.8975739999999917
21
-105.552425999999997
0
LINE
8
BLACK
6
CONTINUOUS
10
152.8975739999999917
20
-105.552425999999997
11
152.8799999999999955
21
-105.5099999999999909
0
LINE
8
BLACK
6
CONTINUOUS
10
152.8799999999999955
20
-105.5099999999999909
11
152.8799999999999955
21
-105.1799999999999926
0
LINE
8
BLACK
6
CONTINUOUS
10
152.8799999999999955
20
-105.1799999999999926
11
152.8975739999999917
21
-105.1375740000000008
0
LINE
8
BLACK
6
CONTINUOUS
10
152.8975739999999917
20
-105.1375740000000008
11
152.9399999999999977
21
-105.1199999999999903
0
LINE
8
BLACK
6
CONTINUOUS
10
152.9399999999999977
20
-105.1199999999999903
11
152.9824260000000038
21
-105.1375740000000008
0
LINE
8
BLACK
6
CONTINUOUS
10
152.9824260000000038
20
-105.1375740000000008
11
153.
21
-105.1799999999999926
0
LINE
8
BLACK
6
CONTINUOUS
10
153.
20
-105.1799999999999926
11
153.
21
-105.4499999999999886
0
LINE
8
BLACK
6
CONTINUOUS
10
153.
20
-105.4499999999999886
11
159.4199999999999875
21
-105.4499999999999886
0
LINE
8
BLACK
6
CONTINUOUS
10
159.4199999999999875
20
-105.4499999999999886
11
159.4199999999999875
21
-105.1799999999999926
0
LINE
8
BLACK
6
CONTINUOUS
10
159.4199999999999875
20
-105.1799999999999926
11
159.4375739999999837
21
-105.1375740000000008
0
LINE
8
BLACK
6
CONTINUOUS
10
159.4375739999999837
20
-105.1375740000000008
11
159.4799999999999898
21
-105.1199999999999903
0
LINE
8
BLACK
6
CONTINUOUS
10
159.4799999999999898
20
-105.1199999999999903
11
159.5224259999999958
21
-105.1375740000000008
0
LINE
8
BLACK
6
CONTINUOUS
10
144.5049999999999955
20
-95.1299999999999955
11
144.5474260000000015
21
-95.1475739999999917
0
LINE
8
BLACK
6
CONTINUOUS
10
144.5474260000000015
20
-95.1475739999999917
11
144.5649999999999977
21
-95.1899999999999977
0
LINE
8
BLACK
6
CONTINUOUS
10
144.5649999999999977
20
-95.1899999999999977
11
144.5649999999999977
21
-105.4699999999999989
0
LINE
8
BLACK
6
CONTINUOUS
10
144.5649999999999977
20
-105.4699999999999989
11
144.5474260000000015
21
-105.5124259999999907
0
LINE
8
BLACK
6
CONTINUOUS
10
144.5474260000000015
20
-105.5124259999999907
11
144.5049999999999955
21
-105.5300000000000011
0
LINE
8
BLACK
6
CONTINUOUS
10
144.5049999999999955
20
-105.5300000000000011
11
143.2549999999999955
21
-105.5300000000000011
0
LINE
8
BLACK
6
CONTINUOUS
10
143.2549999999999955
20
-105.5300000000000011
11
143.2479099999999903
21
-105.5270629999999983
0
LINE
8
BLACK
6
CONTINUOUS
10
143.2479099999999903
20
-105.5270629999999983
11
143.2364589999999964
21
-105.5270629999999983
0
LINE
8
BLACK
6
CONTINUOUS
10
143.2364589999999964
20
-105.5270629999999983
11
143.2212710000000015
21
-105.5160279999999915
0
LINE
8
BLACK
6
CONTINUOUS
10
143.2212710000000015
20
-105.5160279999999915
11
143.2125739999999894
21
-105.5124259999999907
0
LINE
8
BLACK
6
CONTINUOUS
10
143.2125739999999894
20
-105.5124259999999907
11
143.2109639999999899
21
-105.5085399999999964
0
LINE
8
BLACK
6
CONTINUOUS
10
143.2109639999999899
20
-105.5085399999999964
11
143.2064589999999953
21
-105.5052669999999893
0
LINE
8
BLACK
6
CONTINUOUS
10
143.2064589999999953
20
-105.5052669999999893
11
143.1949999999999932
21
-105.4699999999999989
0
LINE
8
BLACK
6
CONTINUOUS
10
143.1949999999999932
20
-105.4699999999999989
11
143.1949999999999932
21
-105.3774179999999916
0
LINE
8
BLACK
6
CONTINUOUS
10
143.1949999999999932
20
-105.3774179999999916
11
143.1588759999999922
21
-105.1958119999999894
0
LINE
8
BLACK
6
CONTINUOUS
10
143.1588759999999922
20
-105.1958119999999894
11
143.0880169999999794
21
-105.0247430000000008
0
LINE
8
BLACK
6
CONTINUOUS
10
143.0880169999999794
20
-105.0247430000000008
11
142.9851449999999886
21
-104.8707849999999979
0
LINE
8
BLACK
6
CONTINUOUS
10
142.9851449999999886
20
-104.8707849999999979
11
142.8542149999999822
21
-104.7398549999999915
0
LINE
8
BLACK
6
CONTINUOUS
10
142.8542149999999822
20
-104.7398549999999915
11
142.7002569999999935
21
-104.6369830000000007
0
LINE
8
BLACK
6
CONTINUOUS
10
142.7002569999999935
20
-104.6369830000000007
11
142.5291880000000049
21
-104.5661240000000021
0
LINE
8
BLACK
6
CONTINUOUS
10
142.5291880000000049
20
-104.5661240000000021
11
142.3475819999999885
21
-104.5300000000000011
0
LINE
8
BLACK
6
CONTINUOUS
10
142.3475819999999885
20
-104.5300000000000011
11
142.1624180000000024
21
-104.5300000000000011
0
LINE
8
BLACK
6
CONTINUOUS
10
142.1624180000000024
20
-104.5300000000000011
11
141.980811999999986
21
-104.5661240000000021
0
LINE
8
BLACK
6
CONTINUOUS
10
141.980811999999986
20
-104.5661240000000021
11
141.8097429999999974
21
-104.6369830000000007
0
LINE
8
BLACK
6
CONTINUOUS
10
141.8097429999999974
20
-104.6369830000000007
11
141.6557849999999803
21
-104.7398549999999915
0
LINE
8
BLACK
6
CONTINUOUS
10
141.6557849999999803
20
-104.7398549999999915
11
141.5248550000000023
21
-104.8707849999999979
0
LINE
8
BLACK
6
CONTINUOUS
10
141.5248550000000023
20
-104.8707849999999979
11
141.4219829999999831
21
-105.0247430000000008
0
LINE
8
BLACK
6
CONTINUOUS
10
141.4219829999999831
20
-105.0247430000000008
11
141.3511239999999987
21
-105.1958119999999894
0
LINE
8
BLACK
6
CONTINUOUS
10
141.3511239999999987
20
-105.1958119999999894
11
141.3149999999999977
21
-105.3774179999999916
0
LINE
8
BLACK
6
CONTINUOUS
10
141.3149999999999977
20
-105.3774179999999916
11
141.3149999999999977
21
-105.4699999999999989
0
LINE
8
BLACK
6
CONTINUOUS
10
141.3149999999999977
20
-105.4699999999999989
11
141.3035409999999956
21
-105.5052669999999893
0
LINE
8
BLACK
6
CONTINUOUS
10
141.3035409999999956
20
-105.5052669999999893
11
141.2990350000000035
21
-105.5085399999999964
0
LINE
8
BLACK
6
CONTINUOUS
10
141.2990350000000035
20
-105.5085399999999964
11
141.2974260000000015
21
-105.5124259999999907
0
LINE
8
BLACK
6
CONTINUOUS
10
141.2974260000000015
20
-105.5124259999999907
11
141.2887279999999919
21
-105.5160279999999915
0
LINE
8
BLACK
6
CONTINUOUS
10
141.2887279999999919
20
-105.5160279999999915
11
141.2735409999999945
21
-105.5270629999999983
0
LINE
8
BLACK
6
CONTINUOUS
10
141.2735409999999945
20
-105.5270629999999983
11
141.2620900000000006
21
-105.5270629999999983
0
LINE
8
BLACK
6
CONTINUOUS
10
141.2620900000000006
20
-105.5270629999999983
11
141.2549999999999955
21
-105.5300000000000011
0
LINE
8
BLACK
6
CONTINUOUS
10
141.2549999999999955
20
-105.5300000000000011
11
140.0049999999999955
21
-105.5300000000000011
0
LINE
8
BLACK
6
CONTINUOUS
10
140.0049999999999955
20
-105.5300000000000011
11
139.9625739999999894
21
-105.5124259999999907
0
LINE
8
BLACK
6
CONTINUOUS
10
139.9625739999999894
20
-105.5124259999999907
11
139.9449999999999932
21
-105.4699999999999989
0
LINE
8
BLACK
6
CONTINUOUS
10
139.9449999999999932
20
-105.4699999999999989
11
139.9449999999999932
21
-95.1899999999999977
0
LINE
8
BLACK
6
CONTINUOUS
10
139.9449999999999932
20
-95.1899999999999977
11
139.9625739999999894
21
-95.1475739999999917
0
LINE
8
BLACK
6
CONTINUOUS
10
139.9625739999999894
20
-95.1475739999999917
11
140.0049999999999955
21
-95.1299999999999955
0
LINE
8
BLACK
6
CONTINUOUS
10
140.0049999999999955
20
-95.1299999999999955
11
144.5049999999999955
21
-95.1299999999999955
0
LINE
8
BLACK
6
CONTINUOUS
10
140.0649999999999977
20
-95.25
11
140.0649999999999977
21
-105.4099999999999966
0
LINE
8
BLACK
6
CONTINUOUS
10
140.0649999999999977
20
-105.4099999999999966
11
141.2005599999999959
21
-105.4099999999999966
0
LINE
8
BLACK
6
CONTINUOUS
10
141.2005599999999959
20
-105.4099999999999966
11
141.2130489999999838
21
-105.2752259999999893
0
LINE
8
BLACK
6
CONTINUOUS
10
141.2130489999999838
20
-105.2752259999999893
11
141.2665790000000072
21
-105.0870839999999902
0
LINE
8
BLACK
6
CONTINUOUS
10
141.2665790000000072
20
-105.0870839999999902
11
141.3537699999999973
21
-104.9119819999999947
0
LINE
8
BLACK
6
CONTINUOUS
10
141.3537699999999973
20
-104.9119819999999947
11
141.4716509999999801
21
-104.7558829999999972
0
LINE
8
BLACK
6
CONTINUOUS
10
141.4716509999999801
20
-104.7558829999999972
11
141.6162070000000028
21
-104.6241019999999935
0
LINE
8
BLACK
6
CONTINUOUS
10
141.6162070000000028
20
-104.6241019999999935
11
141.7825169999999844
21
-104.5211269999999928
0
LINE
8
BLACK
6
CONTINUOUS
10
141.7825169999999844
20
-104.5211269999999928
11
141.9649169999999856
21
-104.4504649999999941
0
LINE
8
BLACK
6
CONTINUOUS
10
141.9649169999999856
20
-104.4504649999999941
11
142.157195999999999
21
-104.414521999999991
0
LINE
8
BLACK
6
CONTINUOUS
10
142.157195999999999
20
-104.414521999999991
11
142.3528039999999919
21
-104.414521999999991
0
LINE
8
BLACK
6
CONTINUOUS
10
142.3528039999999919
20
-104.414521999999991
11
142.5450830000000053
21
-104.4504649999999941
0
LINE
8
BLACK
6
CONTINUOUS
10
142.5450830000000053
20
-104.4504649999999941
11
142.7274830000000065
21
-104.5211269999999928
0
LINE
8
BLACK
6
CONTINUOUS
10
142.7274830000000065
20
-104.5211269999999928
11
142.8937929999999881
21
-104.6241019999999935
0
LINE
8
BLACK
6
CONTINUOUS
10
142.8937929999999881
20
-104.6241019999999935
11
143.0383489999999824
21
-104.7558829999999972
0
LINE
8
BLACK
6
CONTINUOUS
10
143.0383489999999824
20
-104.7558829999999972
11
143.1562299999999937
21
-104.9119819999999947
0
LINE
8
BLACK
6
CONTINUOUS
10
143.1562299999999937
20
-104.9119819999999947
11
143.2434209999999837
21
-105.0870839999999902
0
LINE
8
BLACK
6
CONTINUOUS
10
143.2434209999999837
20
-105.0870839999999902
11
143.2969510000000071
21
-105.2752259999999893
0
LINE
8
BLACK
6
CONTINUOUS
10
143.2969510000000071
20
-105.2752259999999893
11
143.3094399999999951
21
-105.4099999999999966
0
LINE
8
BLACK
6
CONTINUOUS
10
143.3094399999999951
20
-105.4099999999999966
11
144.4449999999999932
21
-105.4099999999999966
0
LINE
8
BLACK
6
CONTINUOUS
10
144.4449999999999932
20
-105.4099999999999966
11
144.4449999999999932
21
-95.25
0
LINE
8
BLACK
6
CONTINUOUS
10
144.4449999999999932
20
-95.25
11
140.0649999999999977
21
-95.25
0
LINE
8
BLACK
6
CONTINUOUS
10
131.8041189999999858
20
-103.3366099999999932
11
131.8216659999999933
21
-103.3848189999999931
0
LINE
8
BLACK
6
CONTINUOUS
10
131.8216659999999933
20
-103.3848189999999931
11
131.8216659999999933
21
-104.099103999999997
0
LINE
8
BLACK
6
CONTINUOUS
10
131.8216659999999933
20
-104.099103999999997
11
131.8177719999999908
21
-104.1211859999999945
0
LINE
8
BLACK
6
CONTINUOUS
10
131.8177719999999908
20
-104.1211859999999945
11
131.8178169999999909
21
-104.1228219999999993
0
LINE
8
BLACK
6
CONTINUOUS
10
131.8178169999999909
20
-104.1228219999999993
11
131.7701979999999935
21
-104.2656779999999941
0
LINE
8
BLACK
6
CONTINUOUS
10
131.7701979999999935
20
-104.2656779999999941
11
131.7577949999999873
21
-104.2885829999999885
0
LINE
8
BLACK
6
CONTINUOUS
10
131.7577949999999873
20
-104.2885829999999885
11
131.753974999999997
21
-104.2909289999999913
0
LINE
8
BLACK
6
CONTINUOUS
10
131.753974999999997
20
-104.2909289999999913
11
131.752081000000004
21
-104.294992999999991
0
LINE
8
BLACK
6
CONTINUOUS
10
131.752081000000004
20
-104.294992999999991
11
131.6568419999999833
21
-104.3902329999999949
0
LINE
8
BLACK
6
CONTINUOUS
10
131.6568419999999833
20
-104.3902329999999949
11
131.6355049999999949
21
-104.4051729999999907
0
LINE
8
BLACK
6
CONTINUOUS
10
131.6355049999999949
20
-104.4051729999999907
11
131.6310379999999896
21
-104.4055630000000008
0
LINE
8
BLACK
6
CONTINUOUS
10
131.6310379999999896
20
-104.4055630000000008
11
131.6275259999999889
21
-104.4083509999999961
0
LINE
8
BLACK
6
CONTINUOUS
10
131.6275259999999889
20
-104.4083509999999961
11
131.4846689999999967
21
-104.4559699999999935
0
LINE
8
BLACK
6
CONTINUOUS
10
131.4846689999999967
20
-104.4559699999999935
11
131.4624900000000025
21
-104.4592579999999913
0
LINE
8
BLACK
6
CONTINUOUS
10
131.4624900000000025
20
-104.4592579999999913
11
131.4609519999999918
21
-104.459818999999996
0
LINE
8
BLACK
6
CONTINUOUS
10
131.4609519999999918
20
-104.459818999999996
11
131.365713999999997
21
-104.459818999999996
0
LINE
8
BLACK
6
CONTINUOUS
10
131.365713999999997
20
-104.459818999999996
11
131.340061999999989
21
-104.4552959999999899
0
LINE
8
BLACK
6
CONTINUOUS
10
131.340061999999989
20
-104.4552959999999899
11
131.3007619999999918
21
-104.4223190000000017
0
LINE
8
BLACK
6
CONTINUOUS
10
131.3007619999999918
20
-104.4223190000000017
11
131.2918530000000032
21
-104.3717949999999917
0
LINE
8
BLACK
6
CONTINUOUS
10
131.2918530000000032
20
-104.3717949999999917
11
131.3175049999999828
21
-104.3273659999999978
0
LINE
8
BLACK
6
CONTINUOUS
10
131.3175049999999828
20
-104.3273659999999978
11
131.365713999999997
21
-104.3098189999999903
0
LINE
8
BLACK
6
CONTINUOUS
10
131.365713999999997
20
-104.3098189999999903
11
131.4487819999999942
21
-104.3098189999999903
0
LINE
8
BLACK
6
CONTINUOUS
10
131.4487819999999942
20
-104.3098189999999903
11
131.5632949999999823
21
-104.2716470000000015
0
LINE
8
BLACK
6
CONTINUOUS
10
131.5632949999999823
20
-104.2716470000000015
11
131.6334939999999847
21
-104.2014470000000017
0
LINE
8
BLACK
6
CONTINUOUS
10
131.6334939999999847
20
-104.2014470000000017
11
131.6716659999999877
21
-104.0869339999999994
0
LINE
8
BLACK
6
CONTINUOUS
10
131.6716659999999877
20
-104.0869339999999994
11
131.6716659999999877
21
-103.3848189999999931
0
LINE
8
BLACK
6
CONTINUOUS
10
131.6716659999999877
20
-103.3848189999999931
11
131.6761889999999937
21
-103.3591669999999993
0
LINE
8
BLACK
6
CONTINUOUS
10
131.6761889999999937
20
-103.3591669999999993
11
131.709165999999982
21
-103.3198670000000021
0
LINE
8
BLACK
6
CONTINUOUS
10
131.709165999999982
20
-103.3198670000000021
11
131.7596900000000062
21
-103.3109579999999994
0
LINE
8
BLACK
6
CONTINUOUS
10
131.7596900000000062
20
-103.3109579999999994
11
131.8041189999999858
21
-103.3366099999999932
0
LINE
8
BLACK
6
CONTINUOUS
10
132.4697280000000035
20
-103.3117060000000009
11
132.4739759999999933
21
-103.3109579999999994
0
LINE
8
BLACK
6
CONTINUOUS
10
132.4739759999999933
20
-103.3109579999999994
11
132.4928239999999846
21
-103.3218399999999946
0
LINE
8
BLACK
6
CONTINUOUS
10
132.4928239999999846
20
-103.3218399999999946
11
132.5127589999999884
21
-103.3305869999999942
0
LINE
8
BLACK
6
CONTINUOUS
10
132.5127589999999884
20
-103.3305869999999942
11
132.5146699999999953
21
-103.3344539999999938
0
LINE
8
BLACK
6
CONTINUOUS
10
132.5146699999999953
20
-103.3344539999999938
11
132.5184050000000013
21
-103.3366099999999932
0
LINE
8
BLACK
6
CONTINUOUS
10
132.5184050000000013
20
-103.3366099999999932
11
132.5258489999999938
21
-103.3570629999999966
0
LINE
8
BLACK
6
CONTINUOUS
10
132.5258489999999938
20
-103.3570629999999966
11
132.5354969999999923
21
-103.376576
0
LINE
8
BLACK
6
CONTINUOUS
10
132.5354969999999923
20
-103.376576
11
132.5344759999999837
21
-103.3807649999999967
0
LINE
8
BLACK
6
CONTINUOUS
10
132.5344759999999837
20
-103.3807649999999967
11
132.5359519999999804
21
-103.3848189999999931
0
LINE
8
BLACK
6
CONTINUOUS
10
132.5359519999999804
20
-103.3848189999999931
11
132.5359519999999804
21
-104.3098189999999903
0
LINE
8
BLACK
6
CONTINUOUS
10
132.5359519999999804
20
-104.3098189999999903
11
132.7466660000000047
21
-104.3098189999999903
0
LINE
8
BLACK
6
CONTINUOUS
10
132.7466660000000047
20
-104.3098189999999903
11
132.7723179999999843
21
-104.3143419999999963
0
LINE
8
BLACK
6
CONTINUOUS
10
132.7723179999999843
20
-104.3143419999999963
11
132.8116179999999815
21
-104.3473189999999988
0
LINE
8
BLACK
6
CONTINUOUS
10
132.8116179999999815
20
-104.3473189999999988
11
132.8205269999999985
21
-104.3978429999999946
0
LINE
8
BLACK
6
CONTINUOUS
10
132.8205269999999985
20
-104.3978429999999946
11
132.7948749999999905
21
-104.4422719999999885
0
LINE
8
BLACK
6
CONTINUOUS
10
132.7948749999999905
20
-104.4422719999999885
11
132.7466660000000047
21
-104.459818999999996
0
LINE
8
BLACK
6
CONTINUOUS
10
132.7466660000000047
20
-104.459818999999996
11
132.1752380000000073
21
-104.459818999999996
0
LINE
8
BLACK
6
CONTINUOUS
10
132.1752380000000073
20
-104.459818999999996
11
132.1495859999999993
21
-104.4552959999999899
0
LINE
8
BLACK
6
CONTINUOUS
10
132.1495859999999993
20
-104.4552959999999899
11
132.1102860000000021
21
-104.4223190000000017
0
LINE
8
BLACK
6
CONTINUOUS
10
132.1102860000000021
20
-104.4223190000000017
11
132.1013769999999852
21
-104.3717949999999917
0
LINE
8
BLACK
6
CONTINUOUS
10
132.1013769999999852
20
-104.3717949999999917
11
132.1270289999999932
21
-104.3273659999999978
0
LINE
8
BLACK
6
CONTINUOUS
10
132.1270289999999932
20
-104.3273659999999978
11
132.1752380000000073
21
-104.3098189999999903
0
LINE
8
BLACK
6
CONTINUOUS
10
132.1752380000000073
20
-104.3098189999999903
11
132.3859520000000032
21
-104.3098189999999903
0
LINE
8
BLACK
6
CONTINUOUS
10
132.3859520000000032
20
-104.3098189999999903
11
132.3859520000000032
21
-103.6135039999999918
0
LINE
8
BLACK
6
CONTINUOUS
10
132.3859520000000032
20
-103.6135039999999918
11
132.3235090000000014
21
-103.6759469999999936
0
LINE
8
BLACK
6
CONTINUOUS
10
132.3235090000000014
20
-103.6759469999999936
11
132.3051419999999894
21
-103.6888059999999996
0
LINE
8
BLACK
6
CONTINUOUS
10
132.3051419999999894
20
-103.6888059999999996
11
132.3040169999999875
21
-103.6899959999999936
0
LINE
8
BLACK
6
CONTINUOUS
10
132.3040169999999875
20
-103.6899959999999936
11
132.2087789999999927
21
-103.737614999999991
0
LINE
8
BLACK
6
CONTINUOUS
10
132.2087789999999927
20
-103.737614999999991
11
132.183811999999989
21
-103.7450410000000005
0
LINE
8
BLACK
6
CONTINUOUS
10
132.183811999999989
20
-103.7450410000000005
11
132.1339140000000043
21
-103.733120999999997
0
LINE
8
BLACK
6
CONTINUOUS
10
132.1339140000000043
20
-103.733120999999997
11
132.103350000000006
21
-103.691915999999992
0
LINE
8
BLACK
6
CONTINUOUS
10
132.103350000000006
20
-103.691915999999992
11
132.1064250000000015
21
-103.640704999999997
0
LINE
8
BLACK
6
CONTINUOUS
10
132.1064250000000015
20
-103.640704999999997
11
132.1416969999999935
21
-103.6034509999999926
0
LINE
8
BLACK
6
CONTINUOUS
10
132.1416969999999935
20
-103.6034509999999926
11
132.2260489999999891
21
-103.5612749999999949
0
LINE
8
BLACK
6
CONTINUOUS
10
132.2260489999999891
20
-103.5612749999999949
11
132.3074279999999874
21
-103.4798959999999965
0
LINE
8
BLACK
6
CONTINUOUS
10
132.3074279999999874
20
-103.4798959999999965
11
132.3985480000000052
21
-103.3432159999999982
0
LINE
8
BLACK
6
CONTINUOUS
10
132.3985480000000052
20
-103.3432159999999982
11
132.4165409999999952
21
-103.3243809999999883
0
LINE
8
BLACK
6
CONTINUOUS
10
132.4165409999999952
20
-103.3243809999999883
11
132.4206800000000044
21
-103.3231689999999929
0
LINE
8
BLACK
6
CONTINUOUS
10
132.4206800000000044
20
-103.3231689999999929
11
132.4234519999999975
21
-103.3198670000000021
0
LINE
8
BLACK
6
CONTINUOUS
10
132.4234519999999975
20
-103.3198670000000021
11
132.4448840000000018
21
-103.316086999999996
0
LINE
8
BLACK
6
CONTINUOUS
10
132.4448840000000018
20
-103.316086999999996
11
132.4657789999999977
21
-103.3099739999999969
0
LINE
8
BLACK
6
CONTINUOUS
10
132.4657789999999977
20
-103.3099739999999969
11
132.4697280000000035
21
-103.3117060000000009
0
LINE
8
BLACK
6
CONTINUOUS
10
159.4799999999999898
20
-102.7099999999999937
11
159.5224259999999958
21
-102.72757399999999
0
LINE
8
BLACK
6
CONTINUOUS
10
159.5224259999999958
20
-102.72757399999999
11
159.539999999999992
21
-102.769999999999996
0
LINE
8
BLACK
6
CONTINUOUS
10
159.539999999999992
20
-102.769999999999996
11
159.539999999999992
21
-103.0999999999999943
0
LINE
8
BLACK
6
CONTINUOUS
10
159.539999999999992
20
-103.0999999999999943
11
159.5224259999999958
21
-103.1424260000000004
0
LINE
8
BLACK
6
CONTINUOUS
10
159.5224259999999958
20
-103.1424260000000004
11
159.4799999999999898
21
-103.1599999999999966
0
LINE
8
BLACK
6
CONTINUOUS
10
159.4799999999999898
20
-103.1599999999999966
11
159.4375739999999837
21
-103.1424260000000004
0
LINE
8
BLACK
6
CONTINUOUS
10
159.4375739999999837
20
-103.1424260000000004
11
159.4199999999999875
21
-103.0999999999999943
0
LINE
8
BLACK
6
CONTINUOUS
10
159.4199999999999875
20
-103.0999999999999943
11
159.4199999999999875
21
-102.8299999999999983
0
LINE
8
BLACK
6
CONTINUOUS
10
159.4199999999999875
20
-102.8299999999999983
11
153.
21
-102.8299999999999983
0
LINE
8
BLACK
6
CONTINUOUS
10
153.
20
-102.8299999999999983
11
153.
21
-103.0999999999999943
0
LINE
8
BLACK
6
CONTINUOUS
10
153.
20
-103.0999999999999943
11
152.9824260000000038
21
-103.1424260000000004
0
LINE
8
BLACK
6
CONTINUOUS
10
152.9824260000000038
20
-103.1424260000000004
11
152.9399999999999977
21
-103.1599999999999966
0
LINE
8
BLACK
6
CONTINUOUS
10
152.9399999999999977
20
-103.1599999999999966
11
152.8975739999999917
21
-103.1424260000000004
0
LINE
8
BLACK
6
CONTINUOUS
10
152.8975739999999917
20
-103.1424260000000004
11
152.8799999999999955
21
-103.0999999999999943
0
LINE
8
BLACK
6
CONTINUOUS
10
152.8799999999999955
20
-103.0999999999999943
11
152.8799999999999955
21
-102.769999999999996
0
LINE
8
BLACK
6
CONTINUOUS
10
152.8799999999999955
20
-102.769999999999996
11
152.8975739999999917
21
-102.72757399999999
0
LINE
8
BLACK
6
CONTINUOUS
10
152.8975739999999917
20
-102.72757399999999
11
152.9399999999999977
21
-102.7099999999999937
0
LINE
8
BLACK
6
CONTINUOUS
10
152.9399999999999977
20
-102.7099999999999937
11
159.4799999999999898
21
-102.7099999999999937
0
LINE
8
BLACK
6
CONTINUOUS
10
133.4524260000000027
20
-101.5575740000000025
11
133.4699999999999989
21
-101.5999999999999943
0
LINE
8
BLACK
6
CONTINUOUS
10
133.4699999999999989
20
-101.5999999999999943
11
133.4699999999999989
21
-102.9299999999999926
0
LINE
8
BLACK
6
CONTINUOUS
10
133.4699999999999989
20
-102.9299999999999926
11
133.4524260000000027
21
-102.9724259999999987
0
LINE
8
BLACK
6
CONTINUOUS
10
133.4524260000000027
20
-102.9724259999999987
11
133.4099999999999966
21
-102.9899999999999949
0
LINE
8
BLACK
6
CONTINUOUS
10
133.4099999999999966
20
-102.9899999999999949
11
132.0799999999999841
21
-102.9899999999999949
0
LINE
8
BLACK
6
CONTINUOUS
10
132.0799999999999841
20
-102.9899999999999949
11
132.0375740000000064
21
-102.9724259999999987
0
LINE
8
BLACK
6
CONTINUOUS
10
132.0375740000000064
20
-102.9724259999999987
11
132.0199999999999818
21
-102.9299999999999926
0
LINE
8
BLACK
6
CONTINUOUS
10
132.0199999999999818
20
-102.9299999999999926
11
132.0375740000000064
21
-102.8875740000000008
0
LINE
8
BLACK
6
CONTINUOUS
10
132.0375740000000064
20
-102.8875740000000008
11
132.0799999999999841
21
-102.8699999999999903
0
LINE
8
BLACK
6
CONTINUOUS
10
132.0799999999999841
20
-102.8699999999999903
11
133.3499999999999943
21
-102.8699999999999903
0
LINE
8
BLACK
6
CONTINUOUS
10
133.3499999999999943
20
-102.8699999999999903
11
133.3499999999999943
21
-101.5999999999999943
0
LINE
8
BLACK
6
CONTINUOUS
10
133.3499999999999943
20
-101.5999999999999943
11
133.3675739999999905
21
-101.5575740000000025
0
LINE
8
BLACK
6
CONTINUOUS
10
133.3675739999999905
20
-101.5575740000000025
11
133.4099999999999966
21
-101.539999999999992
0
LINE
8
BLACK
6
CONTINUOUS
10
133.4099999999999966
20
-101.539999999999992
11
133.4524260000000027
21
-101.5575740000000025
0
LINE
8
BLACK
6
CONTINUOUS
10
156.7187759999999912
20
-101.1517059999999901
11
156.723023999999981
21
-101.1509579999999886
0
LINE
8
BLACK
6
CONTINUOUS
10
156.723023999999981
20
-101.1509579999999886
11
156.7418720000000008
21
-101.161839999999998
0
LINE
8
BLACK
6
CONTINUOUS
10
156.7418720000000008
20
-101.161839999999998
11
156.7618070000000046
21
-101.1705869999999976
0
LINE
8
BLACK
6
CONTINUOUS
10
156.7618070000000046
20
-101.1705869999999976
11
156.763717999999983
21
-101.1744539999999972
0
LINE
8
BLACK
6
CONTINUOUS
10
156.763717999999983
20
-101.1744539999999972
11
156.7674529999999891
21
-101.1766099999999966
0
LINE
8
BLACK
6
CONTINUOUS
10
156.7674529999999891
20
-101.1766099999999966
11
156.7748969999999815
21
-101.197063
0
LINE
8
BLACK
6
CONTINUOUS
10
156.7748969999999815
20
-101.197063
11
156.7845449999999801
21
-101.2165759999999892
0
LINE
8
BLACK
6
CONTINUOUS
10
156.7845449999999801
20
-101.2165759999999892
11
156.7835239999999999
21
-101.2207650000000001
0
LINE
8
BLACK
6
CONTINUOUS
10
156.7835239999999999
20
-101.2207650000000001
11
156.7849999999999966
21
-101.2248189999999965
0
LINE
8
BLACK
6
CONTINUOUS
10
156.7849999999999966
20
-101.2248189999999965
11
156.7849999999999966
21
-102.1498189999999937
0
LINE
8
BLACK
6
CONTINUOUS
10
156.7849999999999966
20
-102.1498189999999937
11
156.9957139999999924
21
-102.1498189999999937
0
LINE
8
BLACK
6
CONTINUOUS
10
156.9957139999999924
20
-102.1498189999999937
11
157.0213660000000004
21
-102.1543419999999998
0
LINE
8
BLACK
6
CONTINUOUS
10
157.0213660000000004
20
-102.1543419999999998
11
157.0606659999999977
21
-102.1873190000000022
0
LINE
8
BLACK
6
CONTINUOUS
10
157.0606659999999977
20
-102.1873190000000022
11
157.0695749999999862
21
-102.237842999999998
0
LINE
8
BLACK
6
CONTINUOUS
10
157.0695749999999862
20
-102.237842999999998
11
157.0439230000000066
21
-102.2822719999999919
0
LINE
8
BLACK
6
CONTINUOUS
10
157.0439230000000066
20
-102.2822719999999919
11
156.9957139999999924
21
-102.2998189999999994
0
LINE
8
BLACK
6
CONTINUOUS
10
156.9957139999999924
20
-102.2998189999999994
11
156.4242859999999951
21
-102.2998189999999994
0
LINE
8
BLACK
6
CONTINUOUS
10
156.4242859999999951
20
-102.2998189999999994
11
156.3986339999999871
21
-102.2952959999999933
0
LINE
8
BLACK
6
CONTINUOUS
10
156.3986339999999871
20
-102.2952959999999933
11
156.3593339999999898
21
-102.2623189999999909
0
LINE
8
BLACK
6
CONTINUOUS
10
156.3593339999999898
20
-102.2623189999999909
11
156.3504250000000013
21
-102.2117949999999951
0
LINE
8
BLACK
6
CONTINUOUS
10
156.3504250000000013
20
-102.2117949999999951
11
156.3760769999999809
21
-102.1673660000000012
0
LINE
8
BLACK
6
CONTINUOUS
10
156.3760769999999809
20
-102.1673660000000012
11
156.4242859999999951
21
-102.1498189999999937
0
LINE
8
BLACK
6
CONTINUOUS
10
156.4242859999999951
20
-102.1498189999999937
11
156.6349999999999909
21
-102.1498189999999937
0
LINE
8
BLACK
6
CONTINUOUS
10
156.6349999999999909
20
-102.1498189999999937
11
156.6349999999999909
21
-101.4535039999999952
0
LINE
8
BLACK
6
CONTINUOUS
10
156.6349999999999909
20
-101.4535039999999952
11
156.5725569999999891
21
-101.515946999999997
0
LINE
8
BLACK
6
CONTINUOUS
10
156.5725569999999891
20
-101.515946999999997
11
156.5541900000000055
21
-101.5288059999999888
0
LINE
8
BLACK
6
CONTINUOUS
10
156.5541900000000055
20
-101.5288059999999888
11
156.5530650000000037
21
-101.529995999999997
0
LINE
8
BLACK
6
CONTINUOUS
10
156.5530650000000037
20
-101.529995999999997
11
156.4578269999999804
21
-101.5776149999999944
0
LINE
8
BLACK
6
CONTINUOUS
10
156.4578269999999804
20
-101.5776149999999944
11
156.4328600000000051
21
-101.5850409999999897
0
LINE
8
BLACK
6
CONTINUOUS
10
156.4328600000000051
20
-101.5850409999999897
11
156.382961999999992
21
-101.5731210000000004
0
LINE
8
BLACK
6
CONTINUOUS
10
156.382961999999992
20
-101.5731210000000004
11
156.3523979999999938
21
-101.5319159999999954
0
LINE
8
BLACK
6
CONTINUOUS
10
156.3523979999999938
20
-101.5319159999999954
11
156.3554729999999893
21
-101.4807050000000004
0
LINE
8
BLACK
6
CONTINUOUS
10
156.3554729999999893
20
-101.4807050000000004
11
156.3907449999999812
21
-101.443450999999996
0
LINE
8
BLACK
6
CONTINUOUS
10
156.3907449999999812
20
-101.443450999999996
11
156.4750970000000052
21
-101.4012749999999983
0
LINE
8
BLACK
6
CONTINUOUS
10
156.4750970000000052
20
-101.4012749999999983
11
156.5564760000000035
21
-101.319896
0
LINE
8
BLACK
6
CONTINUOUS
10
156.5564760000000035
20
-101.319896
11
156.647595999999993
21
-101.1832160000000016
0
LINE
8
BLACK
6
CONTINUOUS
10
156.647595999999993
20
-101.1832160000000016
11
156.6655889999999829
21
-101.1643809999999917
0
LINE
8
BLACK
6
CONTINUOUS
10
156.6655889999999829
20
-101.1643809999999917
11
156.6697279999999921
21
-101.1631689999999963
0
LINE
8
BLACK
6
CONTINUOUS
10
156.6697279999999921
20
-101.1631689999999963
11
156.6724999999999852
21
-101.1598669999999913
0
LINE
8
BLACK
6
CONTINUOUS
10
156.6724999999999852
20
-101.1598669999999913
11
156.6939319999999896
21
-101.1560869999999994
0
LINE
8
BLACK
6
CONTINUOUS
10
156.6939319999999896
20
-101.1560869999999994
11
156.7148269999999854
21
-101.1499740000000003
0
LINE
8
BLACK
6
CONTINUOUS
10
156.7148269999999854
20
-101.1499740000000003
11
156.7187759999999912
21
-101.1517059999999901
0
LINE
8
BLACK
6
CONTINUOUS
10
155.8785089999999798
20
-101.1543419999999998
11
155.8819440000000043
21
-101.1572239999999994
0
LINE
8
BLACK
6
CONTINUOUS
10
155.8819440000000043
20
-101.1572239999999994
11
155.8863979999999856
21
-101.1577369999999974
0
LINE
8
BLACK
6
CONTINUOUS
10
155.8863979999999856
20
-101.1577369999999974
11
155.9816359999999804
21
-101.2053559999999948
0
LINE
8
BLACK
6
CONTINUOUS
10
155.9816359999999804
20
-101.2053559999999948
11
155.9996459999999843
21
-101.2187139999999914
0
LINE
8
BLACK
6
CONTINUOUS
10
155.9996459999999843
20
-101.2187139999999914
11
156.0011279999999942
21
-101.2194049999999947
0
LINE
8
BLACK
6
CONTINUOUS
10
156.0011279999999942
20
-101.2194049999999947
11
156.0487469999999917
21
-101.2670239999999922
0
LINE
8
BLACK
6
CONTINUOUS
10
156.0487469999999917
20
-101.2670239999999922
11
156.0616059999999834
21
-101.2853899999999925
0
LINE
8
BLACK
6
CONTINUOUS
10
156.0616059999999834
20
-101.2853899999999925
11
156.0627959999999916
21
-101.2865159999999918
0
LINE
8
BLACK
6
CONTINUOUS
10
156.0627959999999916
20
-101.2865159999999918
11
156.110414999999989
21
-101.3817540000000008
0
LINE
8
BLACK
6
CONTINUOUS
10
156.110414999999989
20
-101.3817540000000008
11
156.1178409999999985
21
-101.4067199999999929
0
LINE
8
BLACK
6
CONTINUOUS
10
156.1178409999999985
20
-101.4067199999999929
11
156.1167989999999861
21
-101.4110809999999958
0
LINE
8
BLACK
6
CONTINUOUS
10
156.1167989999999861
20
-101.4110809999999958
11
156.1183330000000069
21
-101.4152950000000004
0
LINE
8
BLACK
6
CONTINUOUS
10
156.1183330000000069
20
-101.4152950000000004
11
156.1183330000000069
21
-101.5581519999999927
0
LINE
8
BLACK
6
CONTINUOUS
10
156.1183330000000069
20
-101.5581519999999927
11
156.1138100000000009
21
-101.5838040000000007
0
LINE
8
BLACK
6
CONTINUOUS
10
156.1138100000000009
20
-101.5838040000000007
11
156.1109270000000038
21
-101.5872389999999967
0
LINE
8
BLACK
6
CONTINUOUS
10
156.1109270000000038
20
-101.5872389999999967
11
156.110414999999989
21
-101.5916929999999923
0
LINE
8
BLACK
6
CONTINUOUS
10
156.110414999999989
20
-101.5916929999999923
11
156.0627959999999916
21
-101.6869310000000013
0
LINE
8
BLACK
6
CONTINUOUS
10
156.0627959999999916
20
-101.6869310000000013
11
156.0494379999999808
21
-101.7049409999999909
0
LINE
8
BLACK
6
CONTINUOUS
10
156.0494379999999808
20
-101.7049409999999909
11
156.0487469999999917
21
-101.7064230000000009
0
LINE
8
BLACK
6
CONTINUOUS
10
156.0487469999999917
20
-101.7064230000000009
11
156.0011279999999942
21
-101.7540419999999983
0
LINE
8
BLACK
6
CONTINUOUS
10
156.0011279999999942
20
-101.7540419999999983
11
155.9827609999999822
21
-101.7669009999999901
0
LINE
8
BLACK
6
CONTINUOUS
10
155.9827609999999822
20
-101.7669009999999901
11
155.9816359999999804
21
-101.7680909999999983
0
LINE
8
BLACK
6
CONTINUOUS
10
155.9816359999999804
20
-101.7680909999999983
11
155.8863979999999856
21
-101.8157099999999957
0
LINE
8
BLACK
6
CONTINUOUS
10
155.8863979999999856
20
-101.8157099999999957
11
155.8614309999999819
21
-101.823135999999991
0
LINE
8
BLACK
6
CONTINUOUS
10
155.8614309999999819
20
-101.823135999999991
11
155.8570699999999931
21
-101.8220939999999928
0
LINE
8
BLACK
6
CONTINUOUS
10
155.8570699999999931
20
-101.8220939999999928
11
155.8538059999999916
21
-101.8232819999999919
0
LINE
8
BLACK
6
CONTINUOUS
10
155.8538059999999916
20
-101.8232819999999919
11
156.1047759999999869
21
-102.1818099999999987
0
LINE
8
BLACK
6
CONTINUOUS
10
156.1047759999999869
20
-102.1818099999999987
11
156.1157809999999984
21
-102.2054179999999945
0
LINE
8
BLACK
6
CONTINUOUS
10
156.1157809999999984
20
-102.2054179999999945
11
156.1113019999999949
21
-102.2565249999999963
0
LINE
8
BLACK
6
CONTINUOUS
10
156.1113019999999949
20
-102.2565249999999963
11
156.075019999999995
21
-102.2927969999999931
0
LINE
8
BLACK
6
CONTINUOUS
10
156.075019999999995
20
-102.2927969999999931
11
156.0239119999999957
21
-102.2972609999999918
0
LINE
8
BLACK
6
CONTINUOUS
10
156.0239119999999957
20
-102.2972609999999918
11
155.9818909999999903
21
-102.2678289999999919
0
LINE
8
BLACK
6
CONTINUOUS
10
155.9818909999999903
20
-102.2678289999999919
11
155.6709510000000023
21
-101.8236279999999994
0
LINE
8
BLACK
6
CONTINUOUS
10
155.6709510000000023
20
-101.8236279999999994
11
155.5469049999999811
21
-101.8236279999999994
0
LINE
8
BLACK
6
CONTINUOUS
10
155.5469049999999811
20
-101.8236279999999994
11
155.5469049999999811
21
-102.2248189999999965
0
LINE
8
BLACK
6
CONTINUOUS
10
155.5469049999999811
20
-102.2248189999999965
11
155.5423820000000035
21
-102.2504709999999903
0
LINE
8
BLACK
6
CONTINUOUS
10
155.5423820000000035
20
-102.2504709999999903
11
155.5094049999999868
21
-102.2897710000000018
0
LINE
8
BLACK
6
CONTINUOUS
10
155.5094049999999868
20
-102.2897710000000018
11
155.458880999999991
21
-102.2986799999999903
0
LINE
8
BLACK
6
CONTINUOUS
10
155.458880999999991
20
-102.2986799999999903
11
155.4144519999999829
21
-102.2730279999999965
0
LINE
8
BLACK
6
CONTINUOUS
10
155.4144519999999829
20
-102.2730279999999965
11
155.3969050000000038
21
-102.2248189999999965
0
LINE
8
BLACK
6
CONTINUOUS
10
155.3969050000000038
20
-102.2248189999999965
11
155.3969050000000038
21
-101.2248189999999965
0
LINE
8
BLACK
6
CONTINUOUS
10
155.3969050000000038
20
-101.2248189999999965
11
155.3986219999999889
21
-101.2150769999999937
0
LINE
8
BLACK
6
CONTINUOUS
10
155.3986219999999889
20
-101.2150769999999937
11
155.3980439999999987
21
-101.2117949999999951
0
LINE
8
BLACK
6
CONTINUOUS
10
155.3980439999999987
20
-101.2117949999999951
11
155.3997099999999989
21
-101.2089089999999914
0
LINE
8
BLACK
6
CONTINUOUS
10
155.3997099999999989
20
-101.2089089999999914
11
155.4014279999999815
21
-101.1991669999999885
0
LINE
8
BLACK
6
CONTINUOUS
10
155.4014279999999815
20
-101.1991669999999885
11
155.4139529999999922
21
-101.1842389999999909
0
LINE
8
BLACK
6
CONTINUOUS
10
155.4139529999999922
20
-101.1842389999999909
11
155.4236960000000067
21
-101.1673660000000012
0
LINE
8
BLACK
6
CONTINUOUS
10
155.4236960000000067
20
-101.1673660000000012
11
155.4300539999999842
21
-101.1650509999999912
0
LINE
8
BLACK
6
CONTINUOUS
10
155.4300539999999842
20
-101.1650509999999912
11
155.4344049999999982
21
-101.1598669999999913
0
LINE
8
BLACK
6
CONTINUOUS
10
155.4344049999999982
20
-101.1598669999999913
11
155.4535960000000046
21
-101.1564819999999969
0
LINE
8
BLACK
6
CONTINUOUS
10
155.4535960000000046
20
-101.1564819999999969
11
155.4719049999999925
21
-101.1498189999999937
0
LINE
8
BLACK
6
CONTINUOUS
10
155.4719049999999925
20
-101.1498189999999937
11
155.8528570000000002
21
-101.1498189999999937
0
LINE
8
BLACK
6
CONTINUOUS
10
155.8528570000000002
20
-101.1498189999999937
11
155.8785089999999798
21
-101.1543419999999998
0
LINE
8
BLACK
6
CONTINUOUS
10
155.5469049999999811
20
-101.6736279999999937
11
155.8351519999999937
21
-101.6736279999999937
0
LINE
8
BLACK
6
CONTINUOUS
10
155.8351519999999937
20
-101.6736279999999937
11
155.9036679999999819
21
-101.6393699999999995
0
LINE
8
BLACK
6
CONTINUOUS
10
155.9036679999999819
20
-101.6393699999999995
11
155.9340750000000071
21
-101.6089629999999886
0
LINE
8
BLACK
6
CONTINUOUS
10
155.9340750000000071
20
-101.6089629999999886
11
155.9683330000000012
21
-101.5404470000000003
0
LINE
8
BLACK
6
CONTINUOUS
10
155.9683330000000012
20
-101.5404470000000003
11
155.9683330000000012
21
-101.4329999999999927
0
LINE
8
BLACK
6
CONTINUOUS
10
155.9683330000000012
20
-101.4329999999999927
11
155.9340750000000071
21
-101.3644839999999903
0
LINE
8
BLACK
6
CONTINUOUS
10
155.9340750000000071
20
-101.3644839999999903
11
155.9036679999999819
21
-101.3340769999999935
0
LINE
8
BLACK
6
CONTINUOUS
10
155.9036679999999819
20
-101.3340769999999935
11
155.8351519999999937
21
-101.2998189999999994
0
LINE
8
BLACK
6
CONTINUOUS
10
155.8351519999999937
20
-101.2998189999999994
11
155.5469049999999811
21
-101.2998189999999994
0
LINE
8
BLACK
6
CONTINUOUS
10
155.5469049999999811
20
-101.2998189999999994
11
155.5469049999999811
21
-101.6736279999999937
0
LINE
8
BLACK
6
CONTINUOUS
10
133.4099999999999966
20
-87.5099999999999909
11
133.4524260000000027
21
-87.5275740000000013
0
LINE
8
BLACK
6
CONTINUOUS
10
133.4524260000000027
20
-87.5275740000000013
11
133.4699999999999989
21
-87.5699999999999932
0
LINE
8
BLACK
6
CONTINUOUS
10
133.4699999999999989
20
-87.5699999999999932
11
133.4699999999999989
21
-100.3299999999999983
0
LINE
8
BLACK
6
CONTINUOUS
10
133.4699999999999989
20
-100.3299999999999983
11
133.4524260000000027
21
-100.3724259999999902
0
LINE
8
BLACK
6
CONTINUOUS
10
133.4524260000000027
20
-100.3724259999999902
11
133.4099999999999966
21
-100.3900000000000006
0
LINE
8
BLACK
6
CONTINUOUS
10
133.4099999999999966
20
-100.3900000000000006
11
130.75
21
-100.3900000000000006
0
LINE
8
BLACK
6
CONTINUOUS
10
130.75
20
-100.3900000000000006
11
130.7075739999999939
21
-100.3724259999999902
0
LINE
8
BLACK
6
CONTINUOUS
10
130.7075739999999939
20
-100.3724259999999902
11
130.6899999999999977
21
-100.3299999999999983
0
LINE
8
BLACK
6
CONTINUOUS
10
130.6899999999999977
20
-100.3299999999999983
11
130.6899999999999977
21
-87.5699999999999932
0
LINE
8
BLACK
6
CONTINUOUS
10
130.6899999999999977
20
-87.5699999999999932
11
130.7075739999999939
21
-87.5275740000000013
0
LINE
8
BLACK
6
CONTINUOUS
10
130.7075739999999939
20
-87.5275740000000013
11
130.75
21
-87.5099999999999909
0
LINE
8
BLACK
6
CONTINUOUS
10
130.75
20
-87.5099999999999909
11
133.4099999999999966
21
-87.5099999999999909
0
LINE
8
BLACK
6
CONTINUOUS
10
130.8100000000000023
20
-87.6299999999999955
11
130.8100000000000023
21
-100.269999999999996
0
LINE
8
BLACK
6
CONTINUOUS
10
130.8100000000000023
20
-100.269999999999996
11
133.3499999999999943
21
-100.269999999999996
0
LINE
8
BLACK
6
CONTINUOUS
10
133.3499999999999943
20
-100.269999999999996
11
133.3499999999999943
21
-87.6299999999999955
0
LINE
8
BLACK
6
CONTINUOUS
10
133.3499999999999943
20
-87.6299999999999955
11
130.8100000000000023
21
-87.6299999999999955
0
LINE
8
BLACK
6
CONTINUOUS
10
155.8149389999999812
20
-98.5737120000000004
11
155.8165740000000028
21
-98.5736679999999978
0
LINE
8
BLACK
6
CONTINUOUS
10
155.8165740000000028
20
-98.5736679999999978
11
155.959430999999995
21
-98.6212869999999953
0
LINE
8
BLACK
6
CONTINUOUS
10
155.959430999999995
20
-98.6212869999999953
11
155.9823360000000037
21
-98.6336889999999897
0
LINE
8
BLACK
6
CONTINUOUS
10
155.9823360000000037
20
-98.6336889999999897
11
155.9846829999999898
21
-98.6375099999999918
0
LINE
8
BLACK
6
CONTINUOUS
10
155.9846829999999898
20
-98.6375099999999918
11
155.9887469999999894
21
-98.6394049999999964
0
LINE
8
BLACK
6
CONTINUOUS
10
155.9887469999999894
20
-98.6394049999999964
11
156.0363659999999868
21
-98.6870239999999939
0
LINE
8
BLACK
6
CONTINUOUS
10
156.0363659999999868
20
-98.6870239999999939
11
156.0513059999999825
21
-98.7083609999999965
0
LINE
8
BLACK
6
CONTINUOUS
10
156.0513059999999825
20
-98.7083609999999965
11
156.0557770000000062
21
-98.7594679999999983
0
LINE
8
BLACK
6
CONTINUOUS
10
156.0557770000000062
20
-98.7594679999999983
11
156.0263510000000053
21
-98.801493999999991
0
LINE
8
BLACK
6
CONTINUOUS
10
156.0263510000000053
20
-98.801493999999991
11
155.9767959999999789
21
-98.8147709999999933
0
LINE
8
BLACK
6
CONTINUOUS
10
155.9767959999999789
20
-98.8147709999999933
11
155.9302999999999884
21
-98.7930899999999923
0
LINE
8
BLACK
6
CONTINUOUS
10
155.9302999999999884
20
-98.7930899999999923
11
155.8951999999999884
21
-98.7579899999999924
0
LINE
8
BLACK
6
CONTINUOUS
10
155.8951999999999884
20
-98.7579899999999924
11
155.7806870000000004
21
-98.7198190000000011
0
LINE
8
BLACK
6
CONTINUOUS
10
155.7806870000000004
20
-98.7198190000000011
11
155.7097890000000007
21
-98.7198190000000011
0
LINE
8
BLACK
6
CONTINUOUS
10
155.7097890000000007
20
-98.7198190000000011
11
155.5952759999999842
21
-98.7579899999999924
0
LINE
8
BLACK
6
CONTINUOUS
10
155.5952759999999842
20
-98.7579899999999924
11
155.5211630000000014
21
-98.8321029999999894
0
LINE
8
BLACK
6
CONTINUOUS
10
155.5211630000000014
20
-98.8321029999999894
11
155.4826689999999871
21
-98.909089999999992
0
LINE
8
BLACK
6
CONTINUOUS
10
155.4826689999999871
20
-98.909089999999992
11
155.4392859999999814
21
-99.0826239999999956
0
LINE
8
BLACK
6
CONTINUOUS
10
155.4392859999999814
20
-99.0826239999999956
11
155.4392859999999814
21
-99.2070129999999892
0
LINE
8
BLACK
6
CONTINUOUS
10
155.4392859999999814
20
-99.2070129999999892
11
155.4826689999999871
21
-99.3805469999999929
0
LINE
8
BLACK
6
CONTINUOUS
10
155.4826689999999871
20
-99.3805469999999929
11
155.5211630000000014
21
-99.4575339999999954
0
LINE
8
BLACK
6
CONTINUOUS
10
155.5211630000000014
20
-99.4575339999999954
11
155.5952759999999842
21
-99.5316479999999899
0
LINE
8
BLACK
6
CONTINUOUS
10
155.5952759999999842
20
-99.5316479999999899
11
155.7097890000000007
21
-99.5698189999999954
0
LINE
8
BLACK
6
CONTINUOUS
10
155.7097890000000007
20
-99.5698189999999954
11
155.7806870000000004
21
-99.5698189999999954
0
LINE
8
BLACK
6
CONTINUOUS
10
155.7806870000000004
20
-99.5698189999999954
11
155.8951999999999884
21
-99.5316469999999924
0
LINE
8
BLACK
6
CONTINUOUS
10
155.8951999999999884
20
-99.5316469999999924
11
155.9302989999999909
21
-99.49654799999999
0
LINE
8
BLACK
6
CONTINUOUS
10
155.9302989999999909
20
-99.49654799999999
11
155.9516359999999793
21
-99.4816069999999968
0
LINE
8
BLACK
6
CONTINUOUS
10
155.9516359999999793
20
-99.4816069999999968
11
156.002744000000007
21
-99.4771349999999899
0
LINE
8
BLACK
6
CONTINUOUS
10
156.002744000000007
20
-99.4771349999999899
11
156.0447690000000023
21
-99.5065609999999907
0
LINE
8
BLACK
6
CONTINUOUS
10
156.0447690000000023
20
-99.5065609999999907
11
156.0580469999999877
21
-99.5561159999999887
0
LINE
8
BLACK
6
CONTINUOUS
10
156.0580469999999877
20
-99.5561159999999887
11
156.0363659999999868
21
-99.602612999999991
0
LINE
8
BLACK
6
CONTINUOUS
10
156.0363659999999868
20
-99.602612999999991
11
155.9887479999999869
21
-99.6502320000000026
0
LINE
8
BLACK
6
CONTINUOUS
10
155.9887479999999869
20
-99.6502320000000026
11
155.9674109999999985
21
-99.6651729999999958
0
LINE
8
BLACK
6
CONTINUOUS
10
155.9674109999999985
20
-99.6651729999999958
11
155.9629419999999982
21
-99.6655629999999917
0
LINE
8
BLACK
6
CONTINUOUS
10
155.9629419999999982
20
-99.6655629999999917
11
155.959430999999995
21
-99.6683510000000012
0
LINE
8
BLACK
6
CONTINUOUS
10
155.959430999999995
20
-99.6683510000000012
11
155.8165740000000028
21
-99.7159699999999987
0
LINE
8
BLACK
6
CONTINUOUS
10
155.8165740000000028
20
-99.7159699999999987
11
155.7943949999999802
21
-99.7192579999999964
0
LINE
8
BLACK
6
CONTINUOUS
10
155.7943949999999802
20
-99.7192579999999964
11
155.7928569999999979
21
-99.7198190000000011
0
LINE
8
BLACK
6
CONTINUOUS
10
155.7928569999999979
20
-99.7198190000000011
11
155.6976190000000031
21
-99.7198190000000011
0
LINE
8
BLACK
6
CONTINUOUS
10
155.6976190000000031
20
-99.7198190000000011
11
155.6755359999999939
21
-99.7159249999999986
0
LINE
8
BLACK
6
CONTINUOUS
10
155.6755359999999939
20
-99.7159249999999986
11
155.6739010000000007
21
-99.7159699999999987
0
LINE
8
BLACK
6
CONTINUOUS
10
155.6739010000000007
20
-99.7159699999999987
11
155.531045000000006
21
-99.6683510000000012
0
LINE
8
BLACK
6
CONTINUOUS
10
155.531045000000006
20
-99.6683510000000012
11
155.5081399999999974
21
-99.6559479999999951
0
LINE
8
BLACK
6
CONTINUOUS
10
155.5081399999999974
20
-99.6559479999999951
11
155.5057929999999828
21
-99.6521279999999905
0
LINE
8
BLACK
6
CONTINUOUS
10
155.5057929999999828
20
-99.6521279999999905
11
155.5017289999999832
21
-99.6502330000000001
0
LINE
8
BLACK
6
CONTINUOUS
10
155.5017289999999832
20
-99.6502330000000001
11
155.4064909999999884
21
-99.5549939999999935
0
LINE
8
BLACK
6
CONTINUOUS
10
155.4064909999999884
20
-99.5549939999999935
11
155.3936280000000068
21
-99.5366250000000008
0
LINE
8
BLACK
6
CONTINUOUS
10
155.3936280000000068
20
-99.5366250000000008
11
155.3924419999999884
21
-99.5355019999999939
0
LINE
8
BLACK
6
CONTINUOUS
10
155.3924419999999884
20
-99.5355019999999939
11
155.344822999999991
21
-99.4402639999999991
0
LINE
8
BLACK
6
CONTINUOUS
10
155.344822999999991
20
-99.4402639999999991
11
155.3411319999999876
21
-99.4278569999999888
0
LINE
8
BLACK
6
CONTINUOUS
10
155.3411319999999876
20
-99.4278569999999888
11
155.3391440000000046
21
-99.4249129999999894
0
LINE
8
BLACK
6
CONTINUOUS
10
155.3391440000000046
20
-99.4249129999999894
11
155.2915250000000071
21
-99.2344369999999998
0
LINE
8
BLACK
6
CONTINUOUS
10
155.2915250000000071
20
-99.2344369999999998
11
155.2904709999999966
21
-99.2195040000000006
0
LINE
8
BLACK
6
CONTINUOUS
10
155.2904709999999966
20
-99.2195040000000006
11
155.2892860000000042
21
-99.2162469999999956
0
LINE
8
BLACK
6
CONTINUOUS
10
155.2892860000000042
20
-99.2162469999999956
11
155.2892860000000042
21
-99.0733899999999892
0
LINE
8
BLACK
6
CONTINUOUS
10
155.2892860000000042
20
-99.0733899999999892
11
155.2918849999999793
21
-99.0586479999999909
0
LINE
8
BLACK
6
CONTINUOUS
10
155.2918849999999793
20
-99.0586479999999909
11
155.2915250000000071
21
-99.0551999999999992
0
LINE
8
BLACK
6
CONTINUOUS
10
155.2915250000000071
20
-99.0551999999999992
11
155.3391440000000046
21
-98.8647239999999954
0
LINE
8
BLACK
6
CONTINUOUS
10
155.3391440000000046
20
-98.8647239999999954
11
155.3444159999999954
21
-98.8529009999999886
0
LINE
8
BLACK
6
CONTINUOUS
10
155.3444159999999954
20
-98.8529009999999886
11
155.344822999999991
21
-98.8493729999999999
0
LINE
8
BLACK
6
CONTINUOUS
10
155.344822999999991
20
-98.8493729999999999
11
155.3924419999999884
21
-98.7541349999999909
0
LINE
8
BLACK
6
CONTINUOUS
10
155.3924419999999884
20
-98.7541349999999909
11
155.4057999999999993
21
-98.7361239999999896
0
LINE
8
BLACK
6
CONTINUOUS
10
155.4057999999999993
20
-98.7361239999999896
11
155.4064909999999884
21
-98.7346429999999913
0
LINE
8
BLACK
6
CONTINUOUS
10
155.4064909999999884
20
-98.7346429999999913
11
155.5017289999999832
21
-98.6394049999999964
0
LINE
8
BLACK
6
CONTINUOUS
10
155.5017289999999832
20
-98.6394049999999964
11
155.523066
21
-98.624463999999989
0
LINE
8
BLACK
6
CONTINUOUS
10
155.523066
20
-98.624463999999989
11
155.5275340000000028
21
-98.6240729999999957
0
LINE
8
BLACK
6
CONTINUOUS
10
155.5275340000000028
20
-98.6240729999999957
11
155.531045000000006
21
-98.6212869999999953
0
LINE
8
BLACK
6
CONTINUOUS
10
155.531045000000006
20
-98.6212869999999953
11
155.6739010000000007
21
-98.5736679999999978
0
LINE
8
BLACK
6
CONTINUOUS
10
155.6739010000000007
20
-98.5736679999999978
11
155.6960809999999924
21
-98.5703779999999909
0
LINE
8
BLACK
6
CONTINUOUS
10
155.6960809999999924
20
-98.5703779999999909
11
155.6976190000000031
21
-98.5698189999999954
0
LINE
8
BLACK
6
CONTINUOUS
10
155.6976190000000031
20
-98.5698189999999954
11
155.7928569999999979
21
-98.5698189999999954
0
LINE
8
BLACK
6
CONTINUOUS
10
155.7928569999999979
20
-98.5698189999999954
11
155.8149389999999812
21
-98.5737120000000004
0
LINE
8
BLACK
6
CONTINUOUS
10
156.7708899999999801
20
-98.5743420000000015
11
156.7743250000000046
21
-98.5772240000000011
0
LINE
8
BLACK
6
CONTINUOUS
10
156.7743250000000046
20
-98.5772240000000011
11
156.7787789999999859
21
-98.5777369999999991
0
LINE
8
BLACK
6
CONTINUOUS
10
156.7787789999999859
20
-98.5777369999999991
11
156.8740169999999807
21
-98.6253559999999965
0
LINE
8
BLACK
6
CONTINUOUS
10
156.8740169999999807
20
-98.6253559999999965
11
156.8920269999999846
21
-98.6387139999999931
0
LINE
8
BLACK
6
CONTINUOUS
10
156.8920269999999846
20
-98.6387139999999931
11
156.8935089999999946
21
-98.6394049999999964
0
LINE
8
BLACK
6
CONTINUOUS
10
156.8935089999999946
20
-98.6394049999999964
11
156.941127999999992
21
-98.6870239999999939
0
LINE
8
BLACK
6
CONTINUOUS
10
156.941127999999992
20
-98.6870239999999939
11
156.9539869999999837
21
-98.7053899999999942
0
LINE
8
BLACK
6
CONTINUOUS
10
156.9539869999999837
20
-98.7053899999999942
11
156.9551769999999919
21
-98.7065159999999935
0
LINE
8
BLACK
6
CONTINUOUS
10
156.9551769999999919
20
-98.7065159999999935
11
157.0027959999999894
21
-98.8017540000000025
0
LINE
8
BLACK
6
CONTINUOUS
10
157.0027959999999894
20
-98.8017540000000025
11
157.0102219999999988
21
-98.8267199999999946
0
LINE
8
BLACK
6
CONTINUOUS
10
157.0102219999999988
20
-98.8267199999999946
11
157.0091799999999864
21
-98.8310809999999975
0
LINE
8
BLACK
6
CONTINUOUS
10
157.0091799999999864
20
-98.8310809999999975
11
157.0107139999999788
21
-98.8352950000000021
0
LINE
8
BLACK
6
CONTINUOUS
10
157.0107139999999788
20
-98.8352950000000021
11
157.0107139999999788
21
-98.9305329999999969
0
LINE
8
BLACK
6
CONTINUOUS
10
157.0107139999999788
20
-98.9305329999999969
11
157.0068200000000047
21
-98.9526149999999944
0
LINE
8
BLACK
6
CONTINUOUS
10
157.0068200000000047
20
-98.9526149999999944
11
157.0068650000000048
21
-98.9542509999999993
0
LINE
8
BLACK
6
CONTINUOUS
10
157.0068650000000048
20
-98.9542509999999993
11
156.9592459999999789
21
-99.0971069999999941
0
LINE
8
BLACK
6
CONTINUOUS
10
156.9592459999999789
20
-99.0971069999999941
11
156.9468430000000012
21
-99.1200119999999885
0
LINE
8
BLACK
6
CONTINUOUS
10
156.9468430000000012
20
-99.1200119999999885
11
156.9430229999999824
21
-99.1223579999999913
0
LINE
8
BLACK
6
CONTINUOUS
10
156.9430229999999824
20
-99.1223579999999913
11
156.941127999999992
21
-99.1264230000000026
0
LINE
8
BLACK
6
CONTINUOUS
10
156.941127999999992
20
-99.1264230000000026
11
156.4977329999999824
21
-99.5698189999999954
0
LINE
8
BLACK
6
CONTINUOUS
10
156.4977329999999824
20
-99.5698189999999954
11
156.9357139999999902
21
-99.5698189999999954
0
LINE
8
BLACK
6
CONTINUOUS
10
156.9357139999999902
20
-99.5698189999999954
11
156.9613659999999982
21
-99.5743420000000015
0
LINE
8
BLACK
6
CONTINUOUS
10
156.9613659999999982
20
-99.5743420000000015
11
157.0006659999999954
21
-99.6073189999999897
0
LINE
8
BLACK
6
CONTINUOUS
10
157.0006659999999954
20
-99.6073189999999897
11
157.0095749999999839
21
-99.6578429999999997
0
LINE
8
BLACK
6
CONTINUOUS
10
157.0095749999999839
20
-99.6578429999999997
11
156.9839230000000043
21
-99.7022719999999936
0
LINE
8
BLACK
6
CONTINUOUS
10
156.9839230000000043
20
-99.7022719999999936
11
156.9357139999999902
21
-99.7198190000000011
0
LINE
8
BLACK
6
CONTINUOUS
10
156.9357139999999902
20
-99.7198190000000011
11
156.3166669999999954
21
-99.7198190000000011
0
LINE
8
BLACK
6
CONTINUOUS
10
156.3166669999999954
20
-99.7198190000000011
11
156.3005440000000021
21
-99.7169760000000025
0
LINE
8
BLACK
6
CONTINUOUS
10
156.3005440000000021
20
-99.7169760000000025
11
156.2972560000000044
21
-99.7172640000000001
0
LINE
8
BLACK
6
CONTINUOUS
10
156.2972560000000044
20
-99.7172640000000001
11
156.2955989999999815
21
-99.7161040000000014
0
LINE
8
BLACK
6
CONTINUOUS
10
156.2955989999999815
20
-99.7161040000000014
11
156.2910149999999874
21
-99.715295999999995
0
LINE
8
BLACK
6
CONTINUOUS
10
156.2910149999999874
20
-99.715295999999995
11
156.2737209999999948
21
-99.7007849999999962
0
LINE
8
BLACK
6
CONTINUOUS
10
156.2737209999999948
20
-99.7007849999999962
11
156.2552299999999832
21
-99.6878370000000018
0
LINE
8
BLACK
6
CONTINUOUS
10
156.2552299999999832
20
-99.6878370000000018
11
156.2543419999999799
21
-99.6845229999999987
0
LINE
8
BLACK
6
CONTINUOUS
10
156.2543419999999799
20
-99.6845229999999987
11
156.2517149999999901
21
-99.6823189999999926
0
LINE
8
BLACK
6
CONTINUOUS
10
156.2517149999999901
20
-99.6823189999999926
11
156.247793999999999
21
-99.6600849999999951
0
LINE
8
BLACK
6
CONTINUOUS
10
156.247793999999999
20
-99.6600849999999951
11
156.2419529999999952
21
-99.6382830000000013
0
LINE
8
BLACK
6
CONTINUOUS
10
156.2419529999999952
20
-99.6382830000000013
11
156.2434020000000032
21
-99.6351749999999896
0
LINE
8
BLACK
6
CONTINUOUS
10
156.2434020000000032
20
-99.6351749999999896
11
156.2428060000000016
21
-99.6317949999999968
0
LINE
8
BLACK
6
CONTINUOUS
10
156.2428060000000016
20
-99.6317949999999968
11
156.2540960000000041
21
-99.6122390000000024
0
LINE
8
BLACK
6
CONTINUOUS
10
156.2540960000000041
20
-99.6122390000000024
11
156.2636339999999961
21
-99.591785999999999
0
LINE
8
BLACK
6
CONTINUOUS
10
156.2636339999999961
20
-99.591785999999999
11
156.8225419999999986
21
-99.0328760000000017
0
LINE
8
BLACK
6
CONTINUOUS
10
156.8225419999999986
20
-99.0328760000000017
11
156.8607140000000015
21
-98.9183629999999994
0
LINE
8
BLACK
6
CONTINUOUS
10
156.8607140000000015
20
-98.9183629999999994
11
156.8607140000000015
21
-98.8529999999999944
0
LINE
8
BLACK
6
CONTINUOUS
10
156.8607140000000015
20
-98.8529999999999944
11
156.826455999999979
21
-98.784483999999992
0
LINE
8
BLACK
6
CONTINUOUS
10
156.826455999999979
20
-98.784483999999992
11
156.7960489999999822
21
-98.7540769999999952
0
LINE
8
BLACK
6
CONTINUOUS
10
156.7960489999999822
20
-98.7540769999999952
11
156.727532999999994
21
-98.7198190000000011
0
LINE
8
BLACK
6
CONTINUOUS
10
156.727532999999994
20
-98.7198190000000011
11
156.5248479999999915
21
-98.7198190000000011
0
LINE
8
BLACK
6
CONTINUOUS
10
156.5248479999999915
20
-98.7198190000000011
11
156.4563320000000033
21
-98.7540769999999952
0
LINE
8
BLACK
6
CONTINUOUS
10
156.4563320000000033
20
-98.7540769999999952
11
156.417318999999992
21
-98.7930899999999923
0
LINE
8
BLACK
6
CONTINUOUS
10
156.417318999999992
20
-98.7930899999999923
11
156.3959820000000036
21
-98.8080300000000022
0
LINE
8
BLACK
6
CONTINUOUS
10
156.3959820000000036
20
-98.8080300000000022
11
156.3448750000000018
21
-98.812501999999995
0
LINE
8
BLACK
6
CONTINUOUS
10
156.3448750000000018
20
-98.812501999999995
11
156.3028489999999806
21
-98.7830749999999966
0
LINE
8
BLACK
6
CONTINUOUS
10
156.3028489999999806
20
-98.7830749999999966
11
156.2895719999999926
21
-98.7335209999999961
0
LINE
8
BLACK
6
CONTINUOUS
10
156.2895719999999926
20
-98.7335209999999961
11
156.3112529999999936
21
-98.6870239999999939
0
LINE
8
BLACK
6
CONTINUOUS
10
156.3112529999999936
20
-98.6870239999999939
11
156.358871999999991
21
-98.6394049999999964
0
LINE
8
BLACK
6
CONTINUOUS
10
156.358871999999991
20
-98.6394049999999964
11
156.3772380000000055
21
-98.626544999999993
0
LINE
8
BLACK
6
CONTINUOUS
10
156.3772380000000055
20
-98.626544999999993
11
156.3783640000000048
21
-98.6253559999999965
0
LINE
8
BLACK
6
CONTINUOUS
10
156.3783640000000048
20
-98.6253559999999965
11
156.4736019999999996
21
-98.5777369999999991
0
LINE
8
BLACK
6
CONTINUOUS
10
156.4736019999999996
20
-98.5777369999999991
11
156.4985680000000059
21
-98.5703109999999896
0
LINE
8
BLACK
6
CONTINUOUS
10
156.4985680000000059
20
-98.5703109999999896
11
156.5029289999999946
21
-98.5713519999999903
0
LINE
8
BLACK
6
CONTINUOUS
10
156.5029289999999946
20
-98.5713519999999903
11
156.507142999999985
21
-98.5698189999999954
0
LINE
8
BLACK
6
CONTINUOUS
10
156.507142999999985
20
-98.5698189999999954
11
156.7452380000000005
21
-98.5698189999999954
0
LINE
8
BLACK
6
CONTINUOUS
10
156.7452380000000005
20
-98.5698189999999954
11
156.7708899999999801
21
-98.5743420000000015
0
LINE
8
BLACK
6
CONTINUOUS
10
158.8199999999999932
20
-94.789999999999992
11
158.8624259999999992
21
-94.8075740000000025
0
LINE
8
BLACK
6
CONTINUOUS
10
158.8624259999999992
20
-94.8075740000000025
11
158.8799999999999955
21
-94.8499999999999943
0
LINE
8
BLACK
6
CONTINUOUS
10
158.8799999999999955
20
-94.8499999999999943
11
158.8799999999999955
21
-96.468283999999997
0
LINE
8
BLACK
6
CONTINUOUS
10
158.8799999999999955
20
-96.468283999999997
11
158.9024259999999913
21
-96.47757399999999
0
LINE
8
BLACK
6
CONTINUOUS
10
158.9024259999999913
20
-96.47757399999999
11
158.9199999999999875
21
-96.519999999999996
0
LINE
8
BLACK
6
CONTINUOUS
10
158.9199999999999875
20
-96.519999999999996
11
158.9024259999999913
21
-96.5624260000000021
0
LINE
8
BLACK
6
CONTINUOUS
10
158.9024259999999913
20
-96.5624260000000021
11
158.8799999999999955
21
-96.5717149999999975
0
LINE
8
BLACK
6
CONTINUOUS
10
158.8799999999999955
20
-96.5717149999999975
11
158.8799999999999955
21
-98.1899999999999977
0
LINE
8
BLACK
6
CONTINUOUS
10
158.8799999999999955
20
-98.1899999999999977
11
158.8624259999999992
21
-98.2324259999999896
0
LINE
8
BLACK
6
CONTINUOUS
10
158.8624259999999992
20
-98.2324259999999896
11
158.8199999999999932
21
-98.25
0
LINE
8
BLACK
6
CONTINUOUS
10
158.8199999999999932
20
-98.25
11
153.4799999999999898
21
-98.25
0
LINE
8
BLACK
6
CONTINUOUS
10
153.4799999999999898
20
-98.25
11
153.4375739999999837
21
-98.2324259999999896
0
LINE
8
BLACK
6
CONTINUOUS
10
153.4375739999999837
20
-98.2324259999999896
11
153.4199999999999875
21
-98.1899999999999977
0
LINE
8
BLACK
6
CONTINUOUS
10
153.4199999999999875
20
-98.1899999999999977
11
153.4199999999999875
21
-96.5717149999999975
0
LINE
8
BLACK
6
CONTINUOUS
10
153.4199999999999875
20
-96.5717149999999975
11
153.3975739999999917
21
-96.5624260000000021
0
LINE
8
BLACK
6
CONTINUOUS
10
153.3975739999999917
20
-96.5624260000000021
11
153.3799999999999955
21
-96.519999999999996
0
LINE
8
BLACK
6
CONTINUOUS
10
153.3799999999999955
20
-96.519999999999996
11
153.3975739999999917
21
-96.47757399999999
0
LINE
8
BLACK
6
CONTINUOUS
10
153.3975739999999917
20
-96.47757399999999
11
153.4199999999999875
21
-96.468283999999997
0
LINE
8
BLACK
6
CONTINUOUS
10
153.4199999999999875
20
-96.468283999999997
11
153.4199999999999875
21
-94.8499999999999943
0
LINE
8
BLACK
6
CONTINUOUS
10
153.4199999999999875
20
-94.8499999999999943
11
153.4375739999999837
21
-94.8075740000000025
0
LINE
8
BLACK
6
CONTINUOUS
10
153.4375739999999837
20
-94.8075740000000025
11
153.4799999999999898
21
-94.789999999999992
0
LINE
8
BLACK
6
CONTINUOUS
10
153.4799999999999898
20
-94.789999999999992
11
158.8199999999999932
21
-94.789999999999992
0
LINE
8
BLACK
6
CONTINUOUS
10
153.539999999999992
20
-94.9099999999999966
11
153.539999999999992
21
-98.1299999999999955
0
LINE
8
BLACK
6
CONTINUOUS
10
153.539999999999992
20
-98.1299999999999955
11
158.7599999999999909
21
-98.1299999999999955
0
LINE
8
BLACK
6
CONTINUOUS
10
158.7599999999999909
20
-98.1299999999999955
11
158.7599999999999909
21
-94.9099999999999966
0
LINE
8
BLACK
6
CONTINUOUS
10
158.7599999999999909
20
-94.9099999999999966
11
153.539999999999992
21
-94.9099999999999966
0
LINE
8
BLACK
6
CONTINUOUS
10
143.5799999999999841
20
-87.1700000000000017
11
143.6224259999999902
21
-87.1875739999999979
0
LINE
8
BLACK
6
CONTINUOUS
10
143.6224259999999902
20
-87.1875739999999979
11
143.6399999999999864
21
-87.2299999999999898
0
LINE
8
BLACK
6
CONTINUOUS
10
143.6399999999999864
20
-87.2299999999999898
11
143.6399999999999864
21
-88.8482839999999925
0
LINE
8
BLACK
6
CONTINUOUS
10
143.6399999999999864
20
-88.8482839999999925
11
143.6624259999999822
21
-88.8575739999999996
0
LINE
8
BLACK
6
CONTINUOUS
10
143.6624259999999822
20
-88.8575739999999996
11
143.6800000000000068
21
-88.8999999999999915
0
LINE
8
BLACK
6
CONTINUOUS
10
143.6800000000000068
20
-88.8999999999999915
11
143.6624259999999822
21
-88.9424259999999975
0
LINE
8
BLACK
6
CONTINUOUS
10
143.6624259999999822
20
-88.9424259999999975
11
143.6399999999999864
21
-88.951714999999993
0
LINE
8
BLACK
6
CONTINUOUS
10
143.6399999999999864
20
-88.951714999999993
11
143.6399999999999864
21
-90.5699999999999932
0
LINE
8
BLACK
6
CONTINUOUS
10
143.6399999999999864
20
-90.5699999999999932
11
143.6224259999999902
21
-90.6124259999999992
0
LINE
8
BLACK
6
CONTINUOUS
10
143.6224259999999902
20
-90.6124259999999992
11
143.5799999999999841
21
-90.6299999999999955
0
LINE
8
BLACK
6
CONTINUOUS
10
143.5799999999999841
20
-90.6299999999999955
11
138.2399999999999807
21
-90.6299999999999955
0
LINE
8
BLACK
6
CONTINUOUS
10
138.2399999999999807
20
-90.6299999999999955
11
138.197574000000003
21
-90.6124259999999992
0
LINE
8
BLACK
6
CONTINUOUS
10
138.197574000000003
20
-90.6124259999999992
11
138.1800000000000068
21
-90.5699999999999932
0
LINE
8
BLACK
6
CONTINUOUS
10
138.1800000000000068
20
-90.5699999999999932
11
138.1800000000000068
21
-88.951714999999993
0
LINE
8
BLACK
6
CONTINUOUS
10
138.1800000000000068
20
-88.951714999999993
11
138.1575739999999826
21
-88.9424259999999975
0
LINE
8
BLACK
6
CONTINUOUS
10
138.1575739999999826
20
-88.9424259999999975
11
138.1399999999999864
21
-88.8999999999999915
0
LINE
8
BLACK
6
CONTINUOUS
10
138.1399999999999864
20
-88.8999999999999915
11
138.1575739999999826
21
-88.8575739999999996
0
LINE
8
BLACK
6
CONTINUOUS
10
138.1575739999999826
20
-88.8575739999999996
11
138.1800000000000068
21
-88.8482839999999925
0
LINE
8
BLACK
6
CONTINUOUS
10
138.1800000000000068
20
-88.8482839999999925
11
138.1800000000000068
21
-87.2299999999999898
0
LINE
8
BLACK
6
CONTINUOUS
10
138.1800000000000068
20
-87.2299999999999898
11
138.197574000000003
21
-87.1875739999999979
0
LINE
8
BLACK
6
CONTINUOUS
10
138.197574000000003
20
-87.1875739999999979
11
138.2399999999999807
21
-87.1700000000000017
0
LINE
8
BLACK
6
CONTINUOUS
10
138.2399999999999807
20
-87.1700000000000017
11
143.5799999999999841
21
-87.1700000000000017
0
LINE
8
BLACK
6
CONTINUOUS
10
138.2999999999999829
20
-87.289999999999992
11
138.2999999999999829
21
-90.5099999999999909
0
LINE
8
BLACK
6
CONTINUOUS
10
138.2999999999999829
20
-90.5099999999999909
11
143.5199999999999818
21
-90.5099999999999909
0
LINE
8
BLACK
6
CONTINUOUS
10
143.5199999999999818
20
-90.5099999999999909
11
143.5199999999999818
21
-87.289999999999992
0
LINE
8
BLACK
6
CONTINUOUS
10
143.5199999999999818
20
-87.289999999999992
11
138.2999999999999829
21
-87.289999999999992
0
LINE
8
BLACK
6
CONTINUOUS
10
156.9824260000000038
20
-89.8975739999999917
11
157.
21
-89.9399999999999977
0
LINE
8
BLACK
6
CONTINUOUS
10
157.
20
-89.9399999999999977
11
157.
21
-90.269999999999996
0
LINE
8
BLACK
6
CONTINUOUS
10
157.
20
-90.269999999999996
11
156.9824260000000038
21
-90.3124260000000021
0
LINE
8
BLACK
6
CONTINUOUS
10
156.9824260000000038
20
-90.3124260000000021
11
156.9399999999999977
21
-90.3299999999999983
0
LINE
8
BLACK
6
CONTINUOUS
10
156.9399999999999977
20
-90.3299999999999983
11
150.4000000000000057
21
-90.3299999999999983
0
LINE
8
BLACK
6
CONTINUOUS
10
150.4000000000000057
20
-90.3299999999999983
11
150.3575739999999996
21
-90.3124260000000021
0
LINE
8
BLACK
6
CONTINUOUS
10
150.3575739999999996
20
-90.3124260000000021
11
150.3400000000000034
21
-90.269999999999996
0
LINE
8
BLACK
6
CONTINUOUS
10
150.3400000000000034
20
-90.269999999999996
11
150.3400000000000034
21
-89.9399999999999977
0
LINE
8
BLACK
6
CONTINUOUS
10
150.3400000000000034
20
-89.9399999999999977
11
150.3575739999999996
21
-89.8975739999999917
0
LINE
8
BLACK
6
CONTINUOUS
10
150.3575739999999996
20
-89.8975739999999917
11
150.4000000000000057
21
-89.8799999999999955
0
LINE
8
BLACK
6
CONTINUOUS
10
150.4000000000000057
20
-89.8799999999999955
11
150.4424259999999833
21
-89.8975739999999917
0
LINE
8
BLACK
6
CONTINUOUS
10
150.4424259999999833
20
-89.8975739999999917
11
150.4599999999999795
21
-89.9399999999999977
0
LINE
8
BLACK
6
CONTINUOUS
10
150.4599999999999795
20
-89.9399999999999977
11
150.4599999999999795
21
-90.2099999999999937
0
LINE
8
BLACK
6
CONTINUOUS
10
150.4599999999999795
20
-90.2099999999999937
11
156.8799999999999955
21
-90.2099999999999937
0
LINE
8
BLACK
6
CONTINUOUS
10
156.8799999999999955
20
-90.2099999999999937
11
156.8799999999999955
21
-89.9399999999999977
0
LINE
8
BLACK
6
CONTINUOUS
10
156.8799999999999955
20
-89.9399999999999977
11
156.8975739999999917
21
-89.8975739999999917
0
LINE
8
BLACK
6
CONTINUOUS
10
156.8975739999999917
20
-89.8975739999999917
11
156.9399999999999977
21
-89.8799999999999955
0
LINE
8
BLACK
6
CONTINUOUS
10
156.9399999999999977
20
-89.8799999999999955
11
156.9824260000000038
21
-89.8975739999999917
0
LINE
8
BLACK
6
CONTINUOUS
10
156.9399999999999977
20
-87.4699999999999989
11
156.9824260000000038
21
-87.4875739999999951
0
LINE
8
BLACK
6
CONTINUOUS
10
156.9824260000000038
20
-87.4875739999999951
11
157.
21
-87.5300000000000011
0
LINE
8
BLACK
6
CONTINUOUS
10
157.
20
-87.5300000000000011
11
157.
21
-87.8599999999999994
0
LINE
8
BLACK
6
CONTINUOUS
10
157.
20
-87.8599999999999994
11
156.9824260000000038
21
-87.9024259999999913
0
LINE
8
BLACK
6
CONTINUOUS
10
156.9824260000000038
20
-87.9024259999999913
11
156.9399999999999977
21
-87.9200000000000017
0
LINE
8
BLACK
6
CONTINUOUS
10
156.9399999999999977
20
-87.9200000000000017
11
156.8975739999999917
21
-87.9024259999999913
0
LINE
8
BLACK
6
CONTINUOUS
10
156.8975739999999917
20
-87.9024259999999913
11
156.8799999999999955
21
-87.8599999999999994
0
LINE
8
BLACK
6
CONTINUOUS
10
156.8799999999999955
20
-87.8599999999999994
11
156.8799999999999955
21
-87.5899999999999892
0
LINE
8
BLACK
6
CONTINUOUS
10
156.8799999999999955
20
-87.5899999999999892
11
150.4599999999999795
21
-87.5899999999999892
0
LINE
8
BLACK
6
CONTINUOUS
10
150.4599999999999795
20
-87.5899999999999892
11
150.4599999999999795
21
-87.8599999999999994
0
LINE
8
BLACK
6
CONTINUOUS
10
150.4599999999999795
20
-87.8599999999999994
11
150.4424259999999833
21
-87.9024259999999913
0
LINE
8
BLACK
6
CONTINUOUS
10
150.4424259999999833
20
-87.9024259999999913
11
150.4000000000000057
21
-87.9200000000000017
0
LINE
8
BLACK
6
CONTINUOUS
10
150.4000000000000057
20
-87.9200000000000017
11
150.3575739999999996
21
-87.9024259999999913
0
LINE
8
BLACK
6
CONTINUOUS
10
150.3575739999999996
20
-87.9024259999999913
11
150.3400000000000034
21
-87.8599999999999994
0
LINE
8
BLACK
6
CONTINUOUS
10
150.3400000000000034
20
-87.8599999999999994
11
150.3400000000000034
21
-87.5300000000000011
0
LINE
8
BLACK
6
CONTINUOUS
10
150.3400000000000034
20
-87.5300000000000011
11
150.3575739999999996
21
-87.4875739999999951
0
LINE
8
BLACK
6
CONTINUOUS
10
150.3575739999999996
20
-87.4875739999999951
11
150.4000000000000057
21
-87.4699999999999989
0
LINE
8
BLACK
6
CONTINUOUS
10
150.4000000000000057
20
-87.4699999999999989
11
156.9399999999999977
21
-87.4699999999999989
0
LINE
8
BLACK
6
CONTINUOUS
10
154.2908899999999903
20
-85.9143419999999907
11
154.2943249999999864
21
-85.9172239999999903
0
LINE
8
BLACK
6
CONTINUOUS
10
154.2943249999999864
20
-85.9172239999999903
11
154.2987789999999961
21
-85.9177370000000025
0
LINE
8
BLACK
6
CONTINUOUS
10
154.2987789999999961
20
-85.9177370000000025
11
154.394016999999991
21
-85.9653559999999999
0
LINE
8
BLACK
6
CONTINUOUS
10
154.394016999999991
20
-85.9653559999999999
11
154.4120269999999948
21
-85.9787139999999965
0
LINE
8
BLACK
6
CONTINUOUS
10
154.4120269999999948
20
-85.9787139999999965
11
154.4135090000000048
21
-85.9794049999999999
0
LINE
8
BLACK
6
CONTINUOUS
10
154.4135090000000048
20
-85.9794049999999999
11
154.4611280000000022
21
-86.0270239999999973
0
LINE
8
BLACK
6
CONTINUOUS
10
154.4611280000000022
20
-86.0270239999999973
11
154.4739869999999939
21
-86.0453899999999976
0
LINE
8
BLACK
6
CONTINUOUS
10
154.4739869999999939
20
-86.0453899999999976
11
154.4751770000000022
21
-86.0465159999999969
0
LINE
8
BLACK
6
CONTINUOUS
10
154.4751770000000022
20
-86.0465159999999969
11
154.5227959999999996
21
-86.1417539999999917
0
LINE
8
BLACK
6
CONTINUOUS
10
154.5227959999999996
20
-86.1417539999999917
11
154.5302219999999807
21
-86.166719999999998
0
LINE
8
BLACK
6
CONTINUOUS
10
154.5302219999999807
20
-86.166719999999998
11
154.5291799999999967
21
-86.1710810000000009
0
LINE
8
BLACK
6
CONTINUOUS
10
154.5291799999999967
20
-86.1710810000000009
11
154.530713999999989
21
-86.1752949999999913
0
LINE
8
BLACK
6
CONTINUOUS
10
154.530713999999989
20
-86.1752949999999913
11
154.530713999999989
21
-86.2705330000000004
0
LINE
8
BLACK
6
CONTINUOUS
10
154.530713999999989
20
-86.2705330000000004
11
154.5268199999999865
21
-86.2926149999999978
0
LINE
8
BLACK
6
CONTINUOUS
10
154.5268199999999865
20
-86.2926149999999978
11
154.5268649999999866
21
-86.2942510000000027
0
LINE
8
BLACK
6
CONTINUOUS
10
154.5268649999999866
20
-86.2942510000000027
11
154.4792459999999892
21
-86.4371069999999975
0
LINE
8
BLACK
6
CONTINUOUS
10
154.4792459999999892
20
-86.4371069999999975
11
154.466842999999983
21
-86.4600119999999919
0
LINE
8
BLACK
6
CONTINUOUS
10
154.466842999999983
20
-86.4600119999999919
11
154.4630229999999926
21
-86.4623579999999947
0
LINE
8
BLACK
6
CONTINUOUS
10
154.4630229999999926
20
-86.4623579999999947
11
154.4611280000000022
21
-86.4664229999999918
0
LINE
8
BLACK
6
CONTINUOUS
10
154.4611280000000022
20
-86.4664229999999918
11
154.0177329999999927
21
-86.9098189999999988
0
LINE
8
BLACK
6
CONTINUOUS
10
154.0177329999999927
20
-86.9098189999999988
11
154.4557140000000004
21
-86.9098189999999988
0
LINE
8
BLACK
6
CONTINUOUS
10
154.4557140000000004
20
-86.9098189999999988
11
154.48136599999998
21
-86.9143419999999907
0
LINE
8
BLACK
6
CONTINUOUS
10
154.48136599999998
20
-86.9143419999999907
11
154.5206660000000056
21
-86.9473189999999931
0
LINE
8
BLACK
6
CONTINUOUS
10
154.5206660000000056
20
-86.9473189999999931
11
154.5295749999999941
21
-86.9978430000000031
0
LINE
8
BLACK
6
CONTINUOUS
10
154.5295749999999941
20
-86.9978430000000031
11
154.5039229999999861
21
-87.042271999999997
0
LINE
8
BLACK
6
CONTINUOUS
10
154.5039229999999861
20
-87.042271999999997
11
154.4557140000000004
21
-87.0598189999999903
0
LINE
8
BLACK
6
CONTINUOUS
10
154.4557140000000004
20
-87.0598189999999903
11
153.8366670000000056
21
-87.0598189999999903
0
LINE
8
BLACK
6
CONTINUOUS
10
153.8366670000000056
20
-87.0598189999999903
11
153.820543999999984
21
-87.0569759999999917
0
LINE
8
BLACK
6
CONTINUOUS
10
153.820543999999984
20
-87.0569759999999917
11
153.8172559999999862
21
-87.0572639999999893
0
LINE
8
BLACK
6
CONTINUOUS
10
153.8172559999999862
20
-87.0572639999999893
11
153.8155989999999917
21
-87.0561039999999906
0
LINE
8
BLACK
6
CONTINUOUS
10
153.8155989999999917
20
-87.0561039999999906
11
153.8110149999999976
21
-87.0552959999999985
0
LINE
8
BLACK
6
CONTINUOUS
10
153.8110149999999976
20
-87.0552959999999985
11
153.793721000000005
21
-87.0407849999999996
0
LINE
8
BLACK
6
CONTINUOUS
10
153.793721000000005
20
-87.0407849999999996
11
153.7752299999999934
21
-87.027836999999991
0
LINE
8
BLACK
6
CONTINUOUS
10
153.7752299999999934
20
-87.027836999999991
11
153.7743419999999901
21
-87.0245230000000021
0
LINE
8
BLACK
6
CONTINUOUS
10
153.7743419999999901
20
-87.0245230000000021
11
153.7717150000000004
21
-87.022318999999996
0
LINE
8
BLACK
6
CONTINUOUS
10
153.7717150000000004
20
-87.022318999999996
11
153.7677939999999808
21
-87.0000849999999986
0
LINE
8
BLACK
6
CONTINUOUS
10
153.7677939999999808
20
-87.0000849999999986
11
153.7619530000000054
21
-86.9782829999999905
0
LINE
8
BLACK
6
CONTINUOUS
10
153.7619530000000054
20
-86.9782829999999905
11
153.763401999999985
21
-86.975174999999993
0
LINE
8
BLACK
6
CONTINUOUS
10
153.763401999999985
20
-86.975174999999993
11
153.7628059999999834
21
-86.9717950000000002
0
LINE
8
BLACK
6
CONTINUOUS
10
153.7628059999999834
20
-86.9717950000000002
11
153.7740959999999859
21
-86.9522389999999916
0
LINE
8
BLACK
6
CONTINUOUS
10
153.7740959999999859
20
-86.9522389999999916
11
153.7836340000000064
21
-86.9317860000000024
0
LINE
8
BLACK
6
CONTINUOUS
10
153.7836340000000064
20
-86.9317860000000024
11
154.3425419999999804
21
-86.3728759999999909
0
LINE
8
BLACK
6
CONTINUOUS
10
154.3425419999999804
20
-86.3728759999999909
11
154.3807139999999833
21
-86.2583630000000028
0
LINE
8
BLACK
6
CONTINUOUS
10
154.3807139999999833
20
-86.2583630000000028
11
154.3807139999999833
21
-86.1929999999999978
0
LINE
8
BLACK
6
CONTINUOUS
10
154.3807139999999833
20
-86.1929999999999978
11
154.3464559999999892
21
-86.1244839999999954
0
LINE
8
BLACK
6
CONTINUOUS
10
154.3464559999999892
20
-86.1244839999999954
11
154.3160489999999925
21
-86.0940769999999986
0
LINE
8
BLACK
6
CONTINUOUS
10
154.3160489999999925
20
-86.0940769999999986
11
154.2475330000000042
21
-86.0598189999999903
0
LINE
8
BLACK
6
CONTINUOUS
10
154.2475330000000042
20
-86.0598189999999903
11
154.0448480000000018
21
-86.0598189999999903
0
LINE
8
BLACK
6
CONTINUOUS
10
154.0448480000000018
20
-86.0598189999999903
11
153.9763319999999851
21
-86.0940769999999986
0
LINE
8
BLACK
6
CONTINUOUS
10
153.9763319999999851
20
-86.0940769999999986
11
153.9373190000000022
21
-86.1330899999999957
0
LINE
8
BLACK
6
CONTINUOUS
10
153.9373190000000022
20
-86.1330899999999957
11
153.9159819999999854
21
-86.1480299999999914
0
LINE
8
BLACK
6
CONTINUOUS
10
153.9159819999999854
20
-86.1480299999999914
11
153.8648749999999836
21
-86.1525019999999984
0
LINE
8
BLACK
6
CONTINUOUS
10
153.8648749999999836
20
-86.1525019999999984
11
153.8228489999999908
21
-86.123075
0
LINE
8
BLACK
6
CONTINUOUS
10
153.8228489999999908
20
-86.123075
11
153.8095720000000028
21
-86.0735209999999995
0
LINE
8
BLACK
6
CONTINUOUS
10
153.8095720000000028
20
-86.0735209999999995
11
153.8312530000000038
21
-86.0270239999999973
0
LINE
8
BLACK
6
CONTINUOUS
10
153.8312530000000038
20
-86.0270239999999973
11
153.8788720000000012
21
-85.9794049999999999
0
LINE
8
BLACK
6
CONTINUOUS
10
153.8788720000000012
20
-85.9794049999999999
11
153.8972379999999873
21
-85.9665449999999964
0
LINE
8
BLACK
6
CONTINUOUS
10
153.8972379999999873
20
-85.9665449999999964
11
153.8983639999999866
21
-85.9653559999999999
0
LINE
8
BLACK
6
CONTINUOUS
10
153.8983639999999866
20
-85.9653559999999999
11
153.9936019999999814
21
-85.9177370000000025
0
LINE
8
BLACK
6
CONTINUOUS
10
153.9936019999999814
20
-85.9177370000000025
11
154.0185679999999877
21
-85.910310999999993
0
LINE
8
BLACK
6
CONTINUOUS
10
154.0185679999999877
20
-85.910310999999993
11
154.0229290000000049
21
-85.9113519999999937
0
LINE
8
BLACK
6
CONTINUOUS
10
154.0229290000000049
20
-85.9113519999999937
11
154.0271429999999953
21
-85.9098189999999988
0
LINE
8
BLACK
6
CONTINUOUS
10
154.0271429999999953
20
-85.9098189999999988
11
154.2652379999999823
21
-85.9098189999999988
0
LINE
8
BLACK
6
CONTINUOUS
10
154.2652379999999823
20
-85.9098189999999988
11
154.2908899999999903
21
-85.9143419999999907
0
LINE
8
BLACK
6
CONTINUOUS
10
153.3385089999999877
20
-85.9143419999999907
11
153.3419439999999838
21
-85.9172239999999903
0
LINE
8
BLACK
6
CONTINUOUS
10
153.3419439999999838
20
-85.9172239999999903
11
153.3463979999999935
21
-85.9177370000000025
0
LINE
8
BLACK
6
CONTINUOUS
10
153.3463979999999935
20
-85.9177370000000025
11
153.4416359999999884
21
-85.9653559999999999
0
LINE
8
BLACK
6
CONTINUOUS
10
153.4416359999999884
20
-85.9653559999999999
11
153.4596459999999922
21
-85.9787139999999965
0
LINE
8
BLACK
6
CONTINUOUS
10
153.4596459999999922
20
-85.9787139999999965
11
153.4611280000000022
21
-85.9794049999999999
0
LINE
8
BLACK
6
CONTINUOUS
10
153.4611280000000022
20
-85.9794049999999999
11
153.5087469999999996
21
-86.0270239999999973
0
LINE
8
BLACK
6
CONTINUOUS
10
153.5087469999999996
20
-86.0270239999999973
11
153.5216059999999914
21
-86.0453899999999976
0
LINE
8
BLACK
6
CONTINUOUS
10
153.5216059999999914
20
-86.0453899999999976
11
153.5227959999999996
21
-86.0465159999999969
0
LINE
8
BLACK
6
CONTINUOUS
10
153.5227959999999996
20
-86.0465159999999969
11
153.570414999999997
21
-86.1417539999999917
0
LINE
8
BLACK
6
CONTINUOUS
10
153.570414999999997
20
-86.1417539999999917
11
153.5778410000000065
21
-86.166719999999998
0
LINE
8
BLACK
6
CONTINUOUS
10
153.5778410000000065
20
-86.166719999999998
11
153.5767989999999941
21
-86.1710810000000009
0
LINE
8
BLACK
6
CONTINUOUS
10
153.5767989999999941
20
-86.1710810000000009
11
153.5783329999999864
21
-86.1752949999999913
0
LINE
8
BLACK
6
CONTINUOUS
10
153.5783329999999864
20
-86.1752949999999913
11
153.5783329999999864
21
-86.3181519999999978
0
LINE
8
BLACK
6
CONTINUOUS
10
153.5783329999999864
20
-86.3181519999999978
11
153.5738099999999804
21
-86.3438039999999916
0
LINE
8
BLACK
6
CONTINUOUS
10
153.5738099999999804
20
-86.3438039999999916
11
153.5709269999999833
21
-86.3472390000000019
0
LINE
8
BLACK
6
CONTINUOUS
10
153.5709269999999833
20
-86.3472390000000019
11
153.570414999999997
21
-86.3516929999999974
0
LINE
8
BLACK
6
CONTINUOUS
10
153.570414999999997
20
-86.3516929999999974
11
153.5227959999999996
21
-86.4469309999999922
0
LINE
8
BLACK
6
CONTINUOUS
10
153.5227959999999996
20
-86.4469309999999922
11
153.5094379999999887
21
-86.4649409999999961
0
LINE
8
BLACK
6
CONTINUOUS
10
153.5094379999999887
20
-86.4649409999999961
11
153.5087469999999996
21
-86.4664229999999918
0
LINE
8
BLACK
6
CONTINUOUS
10
153.5087469999999996
20
-86.4664229999999918
11
153.4611280000000022
21
-86.5140419999999892
0
LINE
8
BLACK
6
CONTINUOUS
10
153.4611280000000022
20
-86.5140419999999892
11
153.4427609999999902
21
-86.5269009999999952
0
LINE
8
BLACK
6
CONTINUOUS
10
153.4427609999999902
20
-86.5269009999999952
11
153.4416359999999884
21
-86.5280909999999892
0
LINE
8
BLACK
6
CONTINUOUS
10
153.4416359999999884
20
-86.5280909999999892
11
153.3463979999999935
21
-86.5757100000000008
0
LINE
8
BLACK
6
CONTINUOUS
10
153.3463979999999935
20
-86.5757100000000008
11
153.3214309999999898
21
-86.5831359999999961
0
LINE
8
BLACK
6
CONTINUOUS
10
153.3214309999999898
20
-86.5831359999999961
11
153.3170700000000011
21
-86.5820939999999979
0
LINE
8
BLACK
6
CONTINUOUS
10
153.3170700000000011
20
-86.5820939999999979
11
153.3138059999999996
21
-86.583281999999997
0
LINE
8
BLACK
6
CONTINUOUS
10
153.3138059999999996
20
-86.583281999999997
11
153.5647759999999948
21
-86.9418099999999896
0
LINE
8
BLACK
6
CONTINUOUS
10
153.5647759999999948
20
-86.9418099999999896
11
153.5757810000000063
21
-86.9654179999999997
0
LINE
8
BLACK
6
CONTINUOUS
10
153.5757810000000063
20
-86.9654179999999997
11
153.5713020000000029
21
-87.0165250000000015
0
LINE
8
BLACK
6
CONTINUOUS
10
153.5713020000000029
20
-87.0165250000000015
11
153.5350200000000029
21
-87.0527969999999982
0
LINE
8
BLACK
6
CONTINUOUS
10
153.5350200000000029
20
-87.0527969999999982
11
153.4839120000000037
21
-87.0572609999999969
0
LINE
8
BLACK
6
CONTINUOUS
10
153.4839120000000037
20
-87.0572609999999969
11
153.4418909999999983
21
-87.027828999999997
0
LINE
8
BLACK
6
CONTINUOUS
10
153.4418909999999983
20
-87.027828999999997
11
153.1309509999999818
21
-86.5836279999999903
0
LINE
8
BLACK
6
CONTINUOUS
10
153.1309509999999818
20
-86.5836279999999903
11
153.0069049999999891
21
-86.5836279999999903
0
LINE
8
BLACK
6
CONTINUOUS
10
153.0069049999999891
20
-86.5836279999999903
11
153.0069049999999891
21
-86.9848190000000017
0
LINE
8
BLACK
6
CONTINUOUS
10
153.0069049999999891
20
-86.9848190000000017
11
153.002381999999983
21
-87.0104709999999955
0
LINE
8
BLACK
6
CONTINUOUS
10
153.002381999999983
20
-87.0104709999999955
11
152.9694049999999947
21
-87.0497709999999927
0
LINE
8
BLACK
6
CONTINUOUS
10
152.9694049999999947
20
-87.0497709999999927
11
152.9188809999999989
21
-87.0586799999999954
0
LINE
8
BLACK
6
CONTINUOUS
10
152.9188809999999989
20
-87.0586799999999954
11
152.8744519999999909
21
-87.0330280000000016
0
LINE
8
BLACK
6
CONTINUOUS
10
152.8744519999999909
20
-87.0330280000000016
11
152.8569049999999834
21
-86.9848190000000017
0
LINE
8
BLACK
6
CONTINUOUS
10
152.8569049999999834
20
-86.9848190000000017
11
152.8569049999999834
21
-85.9848190000000017
0
LINE
8
BLACK
6
CONTINUOUS
10
152.8569049999999834
20
-85.9848190000000017
11
152.8586219999999969
21
-85.9750769999999989
0
LINE
8
BLACK
6
CONTINUOUS
10
152.8586219999999969
20
-85.9750769999999989
11
152.8580440000000067
21
-85.9717950000000002
0
LINE
8
BLACK
6
CONTINUOUS
10
152.8580440000000067
20
-85.9717950000000002
11
152.8597100000000069
21
-85.9689089999999965
0
LINE
8
BLACK
6
CONTINUOUS
10
152.8597100000000069
20
-85.9689089999999965
11
152.8614279999999894
21
-85.9591669999999937
0
LINE
8
BLACK
6
CONTINUOUS
10
152.8614279999999894
20
-85.9591669999999937
11
152.8739530000000002
21
-85.9442389999999961
0
LINE
8
BLACK
6
CONTINUOUS
10
152.8739530000000002
20
-85.9442389999999961
11
152.8836959999999863
21
-85.9273659999999921
0
LINE
8
BLACK
6
CONTINUOUS
10
152.8836959999999863
20
-85.9273659999999921
11
152.8900539999999921
21
-85.9250509999999963
0
LINE
8
BLACK
6
CONTINUOUS
10
152.8900539999999921
20
-85.9250509999999963
11
152.8944050000000061
21
-85.9198669999999964
0
LINE
8
BLACK
6
CONTINUOUS
10
152.8944050000000061
20
-85.9198669999999964
11
152.9135959999999841
21
-85.916482000000002
0
LINE
8
BLACK
6
CONTINUOUS
10
152.9135959999999841
20
-85.916482000000002
11
152.9319050000000004
21
-85.9098189999999988
0
LINE
8
BLACK
6
CONTINUOUS
10
152.9319050000000004
20
-85.9098189999999988
11
153.3128569999999797
21
-85.9098189999999988
0
LINE
8
BLACK
6
CONTINUOUS
10
153.3128569999999797
20
-85.9098189999999988
11
153.3385089999999877
21
-85.9143419999999907
0
LINE
8
BLACK
6
CONTINUOUS
10
153.0069049999999891
20
-86.4336279999999988
11
153.2951520000000016
21
-86.4336279999999988
0
LINE
8
BLACK
6
CONTINUOUS
10
153.2951520000000016
20
-86.4336279999999988
11
153.3636679999999899
21
-86.3993699999999905
0
LINE
8
BLACK
6
CONTINUOUS
10
153.3636679999999899
20
-86.3993699999999905
11
153.3940749999999866
21
-86.3689629999999937
0
LINE
8
BLACK
6
CONTINUOUS
10
153.3940749999999866
20
-86.3689629999999937
11
153.4283329999999808
21
-86.3004469999999912
0
LINE
8
BLACK
6
CONTINUOUS
10
153.4283329999999808
20
-86.3004469999999912
11
153.4283329999999808
21
-86.1929999999999978
0
LINE
8
BLACK
6
CONTINUOUS
10
153.4283329999999808
20
-86.1929999999999978
11
153.3940749999999866
21
-86.1244839999999954
0
LINE
8
BLACK
6
CONTINUOUS
10
153.3940749999999866
20
-86.1244839999999954
11
153.3636679999999899
21
-86.0940769999999986
0
LINE
8
BLACK
6
CONTINUOUS
10
153.3636679999999899
20
-86.0940769999999986
11
153.2951520000000016
21
-86.0598189999999903
0
LINE
8
BLACK
6
CONTINUOUS
10
153.2951520000000016
20
-86.0598189999999903
11
153.0069049999999891
21
-86.0598189999999903
0
LINE
8
BLACK
6
CONTINUOUS
10
153.0069049999999891
20
-86.0598189999999903
11
153.0069049999999891
21
-86.4336279999999988
0
LINE
8
BLACK
6
CONTINUOUS
10
140.5749390000000005
20
-85.6137119999999925
11
140.5765739999999937
21
-85.6136679999999899
0
LINE
8
BLACK
6
CONTINUOUS
10
140.5765739999999937
20
-85.6136679999999899
11
140.7194309999999859
21
-85.6612870000000015
0
LINE
8
BLACK
6
CONTINUOUS
10
140.7194309999999859
20
-85.6612870000000015
11
140.7423359999999946
21
-85.673688999999996
0
LINE
8
BLACK
6
CONTINUOUS
10
140.7423359999999946
20
-85.673688999999996
11
140.7446829999999807
21
-85.6775099999999981
0
LINE
8
BLACK
6
CONTINUOUS
10
140.7446829999999807
20
-85.6775099999999981
11
140.7487469999999803
21
-85.6794050000000027
0
LINE
8
BLACK
6
CONTINUOUS
10
140.7487469999999803
20
-85.6794050000000027
11
140.7963660000000061
21
-85.7270240000000001
0
LINE
8
BLACK
6
CONTINUOUS
10
140.7963660000000061
20
-85.7270240000000001
11
140.8113060000000019
21
-85.7483610000000027
0
LINE
8
BLACK
6
CONTINUOUS
10
140.8113060000000019
20
-85.7483610000000027
11
140.8157769999999971
21
-85.7994679999999903
0
LINE
8
BLACK
6
CONTINUOUS
10
140.8157769999999971
20
-85.7994679999999903
11
140.7863509999999962
21
-85.8414939999999973
0
LINE
8
BLACK
6
CONTINUOUS
10
140.7863509999999962
20
-85.8414939999999973
11
140.7367959999999982
21
-85.8547709999999995
0
LINE
8
BLACK
6
CONTINUOUS
10
140.7367959999999982
20
-85.8547709999999995
11
140.6903000000000077
21
-85.8330899999999986
0
LINE
8
BLACK
6
CONTINUOUS
10
140.6903000000000077
20
-85.8330899999999986
11
140.6552000000000078
21
-85.7979899999999986
0
LINE
8
BLACK
6
CONTINUOUS
10
140.6552000000000078
20
-85.7979899999999986
11
140.5406869999999913
21
-85.7598189999999931
0
LINE
8
BLACK
6
CONTINUOUS
10
140.5406869999999913
20
-85.7598189999999931
11
140.4697889999999916
21
-85.7598189999999931
0
LINE
8
BLACK
6
CONTINUOUS
10
140.4697889999999916
20
-85.7598189999999931
11
140.3552760000000035
21
-85.7979899999999986
0
LINE
8
BLACK
6
CONTINUOUS
10
140.3552760000000035
20
-85.7979899999999986
11
140.2811629999999923
21
-85.8721029999999956
0
LINE
8
BLACK
6
CONTINUOUS
10
140.2811629999999923
20
-85.8721029999999956
11
140.2426690000000065
21
-85.9490899999999982
0
LINE
8
BLACK
6
CONTINUOUS
10
140.2426690000000065
20
-85.9490899999999982
11
140.1992860000000007
21
-86.1226240000000018
0
LINE
8
BLACK
6
CONTINUOUS
10
140.1992860000000007
20
-86.1226240000000018
11
140.1992860000000007
21
-86.2470129999999955
0
LINE
8
BLACK
6
CONTINUOUS
10
140.1992860000000007
20
-86.2470129999999955
11
140.2426690000000065
21
-86.4205469999999991
0
LINE
8
BLACK
6
CONTINUOUS
10
140.2426690000000065
20
-86.4205469999999991
11
140.2811629999999923
21
-86.4975340000000017
0
LINE
8
BLACK
6
CONTINUOUS
10
140.2811629999999923
20
-86.4975340000000017
11
140.3552760000000035
21
-86.5716479999999962
0
LINE
8
BLACK
6
CONTINUOUS
10
140.3552760000000035
20
-86.5716479999999962
11
140.4697889999999916
21
-86.6098190000000017
0
LINE
8
BLACK
6
CONTINUOUS
10
140.4697889999999916
20
-86.6098190000000017
11
140.5406869999999913
21
-86.6098190000000017
0
LINE
8
BLACK
6
CONTINUOUS
10
140.5406869999999913
20
-86.6098190000000017
11
140.6552000000000078
21
-86.5716469999999987
0
LINE
8
BLACK
6
CONTINUOUS
10
140.6552000000000078
20
-86.5716469999999987
11
140.6902989999999818
21
-86.5365479999999963
0
LINE
8
BLACK
6
CONTINUOUS
10
140.6902989999999818
20
-86.5365479999999963
11
140.7116359999999986
21
-86.521607000000003
0
LINE
8
BLACK
6
CONTINUOUS
10
140.7116359999999986
20
-86.521607000000003
11
140.7627439999999979
21
-86.5171349999999961
0
LINE
8
BLACK
6
CONTINUOUS
10
140.7627439999999979
20
-86.5171349999999961
11
140.8047689999999932
21
-86.546560999999997
0
LINE
8
BLACK
6
CONTINUOUS
10
140.8047689999999932
20
-86.546560999999997
11
140.8180470000000071
21
-86.596115999999995
0
LINE
8
BLACK
6
CONTINUOUS
10
140.8180470000000071
20
-86.596115999999995
11
140.7963660000000061
21
-86.6426129999999972
0
LINE
8
BLACK
6
CONTINUOUS
10
140.7963660000000061
20
-86.6426129999999972
11
140.7487480000000062
21
-86.6902319999999946
0
LINE
8
BLACK
6
CONTINUOUS
10
140.7487480000000062
20
-86.6902319999999946
11
140.7274109999999894
21
-86.705173000000002
0
LINE
8
BLACK
6
CONTINUOUS
10
140.7274109999999894
20
-86.705173000000002
11
140.7229419999999891
21
-86.7055629999999979
0
LINE
8
BLACK
6
CONTINUOUS
10
140.7229419999999891
20
-86.7055629999999979
11
140.7194309999999859
21
-86.7083509999999933
0
LINE
8
BLACK
6
CONTINUOUS
10
140.7194309999999859
20
-86.7083509999999933
11
140.5765739999999937
21
-86.7559699999999907
0
LINE
8
BLACK
6
CONTINUOUS
10
140.5765739999999937
20
-86.7559699999999907
11
140.5543949999999995
21
-86.7592580000000027
0
LINE
8
BLACK
6
CONTINUOUS
10
140.5543949999999995
20
-86.7592580000000027
11
140.5528569999999888
21
-86.7598189999999931
0
LINE
8
BLACK
6
CONTINUOUS
10
140.5528569999999888
20
-86.7598189999999931
11
140.457618999999994
21
-86.7598189999999931
0
LINE
8
BLACK
6
CONTINUOUS
10
140.457618999999994
20
-86.7598189999999931
11
140.4355359999999848
21
-86.7559249999999906
0
LINE
8
BLACK
6
CONTINUOUS
10
140.4355359999999848
20
-86.7559249999999906
11
140.4339009999999917
21
-86.7559699999999907
0
LINE
8
BLACK
6
CONTINUOUS
10
140.4339009999999917
20
-86.7559699999999907
11
140.2910449999999969
21
-86.7083509999999933
0
LINE
8
BLACK
6
CONTINUOUS
10
140.2910449999999969
20
-86.7083509999999933
11
140.2681399999999883
21
-86.6959480000000013
0
LINE
8
BLACK
6
CONTINUOUS
10
140.2681399999999883
20
-86.6959480000000013
11
140.2657930000000022
21
-86.6921279999999967
0
LINE
8
BLACK
6
CONTINUOUS
10
140.2657930000000022
20
-86.6921279999999967
11
140.2617290000000025
21
-86.6902329999999921
0
LINE
8
BLACK
6
CONTINUOUS
10
140.2617290000000025
20
-86.6902329999999921
11
140.1664910000000077
21
-86.5949939999999998
0
LINE
8
BLACK
6
CONTINUOUS
10
140.1664910000000077
20
-86.5949939999999998
11
140.1536279999999977
21
-86.5766249999999928
0
LINE
8
BLACK
6
CONTINUOUS
10
140.1536279999999977
20
-86.5766249999999928
11
140.1524420000000077
21
-86.5755020000000002
0
LINE
8
BLACK
6
CONTINUOUS
10
140.1524420000000077
20
-86.5755020000000002
11
140.1048229999999819
21
-86.4802639999999911
0
LINE
8
BLACK
6
CONTINUOUS
10
140.1048229999999819
20
-86.4802639999999911
11
140.1011320000000069
21
-86.4678569999999951
0
LINE
8
BLACK
6
CONTINUOUS
10
140.1011320000000069
20
-86.4678569999999951
11
140.0991439999999955
21
-86.4649129999999957
0
LINE
8
BLACK
6
CONTINUOUS
10
140.0991439999999955
20
-86.4649129999999957
11
140.051524999999998
21
-86.2744369999999918
0
LINE
8
BLACK
6
CONTINUOUS
10
140.051524999999998
20
-86.2744369999999918
11
140.0504709999999875
21
-86.2595039999999926
0
LINE
8
BLACK
6
CONTINUOUS
10
140.0504709999999875
20
-86.2595039999999926
11
140.0492859999999951
21
-86.2562470000000019
0
LINE
8
BLACK
6
CONTINUOUS
10
140.0492859999999951
20
-86.2562470000000019
11
140.0492859999999951
21
-86.1133899999999954
0
LINE
8
BLACK
6
CONTINUOUS
10
140.0492859999999951
20
-86.1133899999999954
11
140.0518849999999986
21
-86.0986479999999972
0
LINE
8
BLACK
6
CONTINUOUS
10
140.0518849999999986
20
-86.0986479999999972
11
140.051524999999998
21
-86.0951999999999913
0
LINE
8
BLACK
6
CONTINUOUS
10
140.051524999999998
20
-86.0951999999999913
11
140.0991439999999955
21
-85.9047240000000016
0
LINE
8
BLACK
6
CONTINUOUS
10
140.0991439999999955
20
-85.9047240000000016
11
140.1044159999999863
21
-85.8929009999999948
0
LINE
8
BLACK
6
CONTINUOUS
10
140.1044159999999863
20
-85.8929009999999948
11
140.1048229999999819
21
-85.889372999999992
0
LINE
8
BLACK
6
CONTINUOUS
10
140.1048229999999819
20
-85.889372999999992
11
140.1524420000000077
21
-85.7941349999999971
0
LINE
8
BLACK
6
CONTINUOUS
10
140.1524420000000077
20
-85.7941349999999971
11
140.1657999999999902
21
-85.7761239999999958
0
LINE
8
BLACK
6
CONTINUOUS
10
140.1657999999999902
20
-85.7761239999999958
11
140.1664910000000077
21
-85.7746429999999975
0
LINE
8
BLACK
6
CONTINUOUS
10
140.1664910000000077
20
-85.7746429999999975
11
140.2617290000000025
21
-85.6794050000000027
0
LINE
8
BLACK
6
CONTINUOUS
10
140.2617290000000025
20
-85.6794050000000027
11
140.2830659999999909
21
-85.6644639999999953
0
LINE
8
BLACK
6
CONTINUOUS
10
140.2830659999999909
20
-85.6644639999999953
11
140.2875339999999937
21
-85.6640730000000019
0
LINE
8
BLACK
6
CONTINUOUS
10
140.2875339999999937
20
-85.6640730000000019
11
140.2910449999999969
21
-85.6612870000000015
0
LINE
8
BLACK
6
CONTINUOUS
10
140.2910449999999969
20
-85.6612870000000015
11
140.4339009999999917
21
-85.6136679999999899
0
LINE
8
BLACK
6
CONTINUOUS
10
140.4339009999999917
20
-85.6136679999999899
11
140.4560809999999833
21
-85.6103779999999972
0
LINE
8
BLACK
6
CONTINUOUS
10
140.4560809999999833
20
-85.6103779999999972
11
140.457618999999994
21
-85.6098190000000017
0
LINE
8
BLACK
6
CONTINUOUS
10
140.457618999999994
20
-85.6098190000000017
11
140.5528569999999888
21
-85.6098190000000017
0
LINE
8
BLACK
6
CONTINUOUS
10
140.5528569999999888
20
-85.6098190000000017
11
140.5749390000000005
21
-85.6137119999999925
0
LINE
8
BLACK
6
CONTINUOUS
10
141.4187759999999798
20
-85.6117059999999981
11
141.4230239999999981
21
-85.6109579999999966
0
LINE
8
BLACK
6
CONTINUOUS
10
141.4230239999999981
20
-85.6109579999999966
11
141.4418719999999894
21
-85.6218399999999917
0
LINE
8
BLACK
6
CONTINUOUS
10
141.4418719999999894
20
-85.6218399999999917
11
141.4618069999999932
21
-85.6305869999999913
0
LINE
8
BLACK
6
CONTINUOUS
10
141.4618069999999932
20
-85.6305869999999913
11
141.4637180000000001
21
-85.634453999999991
0
LINE
8
BLACK
6
CONTINUOUS
10
141.4637180000000001
20
-85.634453999999991
11
141.4674530000000061
21
-85.6366099999999904
0
LINE
8
BLACK
6
CONTINUOUS
10
141.4674530000000061
20
-85.6366099999999904
11
141.4748969999999986
21
-85.6570629999999937
0
LINE
8
BLACK
6
CONTINUOUS
10
141.4748969999999986
20
-85.6570629999999937
11
141.4845449999999971
21
-85.6765759999999972
0
LINE
8
BLACK
6
CONTINUOUS
10
141.4845449999999971
20
-85.6765759999999972
11
141.4835239999999885
21
-85.6807649999999938
0
LINE
8
BLACK
6
CONTINUOUS
10
141.4835239999999885
20
-85.6807649999999938
11
141.4849999999999852
21
-85.6848189999999903
0
LINE
8
BLACK
6
CONTINUOUS
10
141.4849999999999852
20
-85.6848189999999903
11
141.4849999999999852
21
-86.6098190000000017
0
LINE
8
BLACK
6
CONTINUOUS
10
141.4849999999999852
20
-86.6098190000000017
11
141.6957139999999811
21
-86.6098190000000017
0
LINE
8
BLACK
6
CONTINUOUS
10
141.6957139999999811
20
-86.6098190000000017
11
141.7213659999999891
21
-86.6143419999999935
0
LINE
8
BLACK
6
CONTINUOUS
10
141.7213659999999891
20
-86.6143419999999935
11
141.7606659999999863
21
-86.647318999999996
0
LINE
8
BLACK
6
CONTINUOUS
10
141.7606659999999863
20
-86.647318999999996
11
141.7695750000000032
21
-86.6978429999999918
0
LINE
8
BLACK
6
CONTINUOUS
10
141.7695750000000032
20
-86.6978429999999918
11
141.7439229999999952
21
-86.7422719999999998
0
LINE
8
BLACK
6
CONTINUOUS
10
141.7439229999999952
20
-86.7422719999999998
11
141.6957139999999811
21
-86.7598189999999931
0
LINE
8
BLACK
6
CONTINUOUS
10
141.6957139999999811
20
-86.7598189999999931
11
141.1242859999999837
21
-86.7598189999999931
0
LINE
8
BLACK
6
CONTINUOUS
10
141.1242859999999837
20
-86.7598189999999931
11
141.0986340000000041
21
-86.7552960000000013
0
LINE
8
BLACK
6
CONTINUOUS
10
141.0986340000000041
20
-86.7552960000000013
11
141.0593340000000069
21
-86.7223189999999988
0
LINE
8
BLACK
6
CONTINUOUS
10
141.0593340000000069
20
-86.7223189999999988
11
141.05042499999999
21
-86.671795000000003
0
LINE
8
BLACK
6
CONTINUOUS
10
141.05042499999999
20
-86.671795000000003
11
141.076076999999998
21
-86.627365999999995
0
LINE
8
BLACK
6
CONTINUOUS
10
141.076076999999998
20
-86.627365999999995
11
141.1242859999999837
21
-86.6098190000000017
0
LINE
8
BLACK
6
CONTINUOUS
10
141.1242859999999837
20
-86.6098190000000017
11
141.3349999999999795
21
-86.6098190000000017
0
LINE
8
BLACK
6
CONTINUOUS
10
141.3349999999999795
20
-86.6098190000000017
11
141.3349999999999795
21
-85.9135040000000032
0
LINE
8
BLACK
6
CONTINUOUS
10
141.3349999999999795
20
-85.9135040000000032
11
141.2725570000000062
21
-85.9759469999999908
0
LINE
8
BLACK
6
CONTINUOUS
10
141.2725570000000062
20
-85.9759469999999908
11
141.2541899999999941
21
-85.9888059999999967
0
LINE
8
BLACK
6
CONTINUOUS
10
141.2541899999999941
20
-85.9888059999999967
11
141.2530649999999923
21
-85.9899959999999908
0
LINE
8
BLACK
6
CONTINUOUS
10
141.2530649999999923
20
-85.9899959999999908
11
141.1578269999999975
21
-86.0376150000000024
0
LINE
8
BLACK
6
CONTINUOUS
10
141.1578269999999975
20
-86.0376150000000024
11
141.1328599999999938
21
-86.0450409999999977
0
LINE
8
BLACK
6
CONTINUOUS
10
141.1328599999999938
20
-86.0450409999999977
11
141.0829619999999807
21
-86.0331209999999942
0
LINE
8
BLACK
6
CONTINUOUS
10
141.0829619999999807
20
-86.0331209999999942
11
141.0523979999999824
21
-85.9919159999999891
0
LINE
8
BLACK
6
CONTINUOUS
10
141.0523979999999824
20
-85.9919159999999891
11
141.0554730000000063
21
-85.9407049999999941
0
LINE
8
BLACK
6
CONTINUOUS
10
141.0554730000000063
20
-85.9407049999999941
11
141.0907449999999983
21
-85.9034509999999898
0
LINE
8
BLACK
6
CONTINUOUS
10
141.0907449999999983
20
-85.9034509999999898
11
141.1750969999999938
21
-85.861274999999992
0
LINE
8
BLACK
6
CONTINUOUS
10
141.1750969999999938
20
-85.861274999999992
11
141.2564759999999922
21
-85.7798959999999937
0
LINE
8
BLACK
6
CONTINUOUS
10
141.2564759999999922
20
-85.7798959999999937
11
141.3475959999999816
21
-85.6432159999999953
0
LINE
8
BLACK
6
CONTINUOUS
10
141.3475959999999816
20
-85.6432159999999953
11
141.3655889999999999
21
-85.6243809999999996
0
LINE
8
BLACK
6
CONTINUOUS
10
141.3655889999999999
20
-85.6243809999999996
11
141.3697279999999807
21
-85.6231689999999901
0
LINE
8
BLACK
6
CONTINUOUS
10
141.3697279999999807
20
-85.6231689999999901
11
141.3725000000000023
21
-85.6198669999999993
0
LINE
8
BLACK
6
CONTINUOUS
10
141.3725000000000023
20
-85.6198669999999993
11
141.3939320000000066
21
-85.6160869999999932
0
LINE
8
BLACK
6
CONTINUOUS
10
141.3939320000000066
20
-85.6160869999999932
11
141.4148270000000025
21
-85.609973999999994
0
LINE
8
BLACK
6
CONTINUOUS
10
141.4148270000000025
20
-85.609973999999994
11
141.4187759999999798
21
-85.6117059999999981
0
CIRCLE
8
BLACK
10
149.8599999999999852
20
-109.3399999999999892
40
0.4
0
CIRCLE
8
BLACK
10
149.8599999999999852
20
-116.8399999999999892
40
0.4
0
CIRCLE
8
BLACK
10
137.1599999999999966
20
-88.8999999999999915
40
0.4
0
CIRCLE
8
BLACK
10
144.6599999999999966
20
-88.8999999999999915
40
0.4
0
CIRCLE
8
BLACK
10
159.9000000000000057
20
-96.519999999999996
40
0.4
0
CIRCLE
8
BLACK
10
152.4000000000000057
20
-96.519999999999996
40
0.4
0
CIRCLE
8
BLACK
10
132.0799999999999841
20
-101.5999999999999943
40
0.5
0
CIRCLE
8
BLACK
10
132.0799999999999841
20
-99.0600000000000023
40
0.5
0
CIRCLE
8
BLACK
10
132.0799999999999841
20
-96.519999999999996
40
0.5
0
CIRCLE
8
BLACK
10
132.0799999999999841
20
-93.9799999999999898
40
0.5
0
CIRCLE
8
BLACK
10
132.0799999999999841
20
-91.4399999999999977
40
0.5
0
CIRCLE
8
BLACK
10
132.0799999999999841
20
-88.8999999999999915
40
0.5
0
CIRCLE
8
BLACK
10
152.4000000000000057
20
-104.1400000000000006
40
0.4
0
CIRCLE
8
BLACK
10
160.0199999999999818
20
-104.1400000000000006
40
0.4
0
CIRCLE
8
BLACK
10
149.8599999999999852
20
-88.8999999999999915
40
0.4
0
CIRCLE
8
BLACK
10
157.4799999999999898
20
-88.8999999999999915
40
0.4
0
CIRCLE
8
BLACK
10
146.0649999999999977
20
-104.1400000000000006
40
0.4
0
CIRCLE
8
BLACK
10
146.0649999999999977
20
-101.5999999999999943
40
0.4
0
CIRCLE
8
BLACK
10
146.0649999999999977
20
-99.0600000000000023
40
0.4
0
CIRCLE
8
BLACK
10
146.0649999999999977
20
-96.519999999999996
40
0.4
0
CIRCLE
8
BLACK
10
138.4449999999999932
20
-96.519999999999996
40
0.4
0
CIRCLE
8
BLACK
10
138.4449999999999932
20
-99.0600000000000023
40
0.4
0
CIRCLE
8
BLACK
10
138.4449999999999932
20
-101.5999999999999943
40
0.4
0
CIRCLE
8
BLACK
10
138.4449999999999932
20
-104.1400000000000006
40
0.4
0
CIRCLE
8
BLACK
10
132.0799999999999841
20
-116.8399999999999892
40
0.4
0
CIRCLE
8
BLACK
10
134.6200000000000045
20
-116.8399999999999892
40
0.4
0
CIRCLE
8
BLACK
10
137.1599999999999966
20
-116.8399999999999892
40
0.4
0
CIRCLE
8
BLACK
10
139.6999999999999886
20
-116.8399999999999892
40
0.4
0
CIRCLE
8
BLACK
10
139.6999999999999886
20
-109.2199999999999989
40
0.4
0
CIRCLE
8
BLACK
10
137.1599999999999966
20
-109.2199999999999989
40
0.4
0
CIRCLE
8
BLACK
10
134.6200000000000045
20
-109.2199999999999989
40
0.4
0
CIRCLE
8
BLACK
10
132.0799999999999841
20
-109.2199999999999989
40
0.4
0
CIRCLE
8
BLACK
10
157.4799999999999898
20
-116.8399999999999892
40
0.4
0
CIRCLE
8
BLACK
10
157.4799999999999898
20
-109.2199999999999989
40
0.4
  0
ENDSEC
  0
EOF
