  0
SECTION
  2
HEADER
  9
$ANGBASE
  50
0.0
  9
$ANGDIR
  70
1
  9
$MEASUREMENT
  70
1
  0
ENDSEC
  0
SECTION
  2
TABLES
  0
TABLE
  2
LTYPE
  70
4
  0
LTYPE
  5
40F
  2
CONTINUOUS
  70
0
  3
Solid line
  72
65
  73
0
  40
0.0
  0
LTYPE
  5
410
  2
DASHDOT
 70
0
  3
Dash Dot ____ _ ____ _
 72
65
 73
4
 40
2.0
 49
1.25
 49
-0.25
 49
0.25
 49
-0.25
  0
LTYPE
  5
411
  2
DASHED
 70
0
  3
Dashed __ __ __ __ __
 72
65
 73
2
 40
0.75
 49
0.5
 49
-0.25
  0
LTYPE
  5
43B
  2
DOTTED
 70
0
  3
Dotted .  .  .  .
 72
65
 73
2
 40
0.2
 49
0.0
 49
-0.2
  0
ENDTAB
  0
TABLE
  2
STYLE
  70
4
  0
STYLE
  2
KICAD
  70
0
  40
0
  41
1
  42
1
  50
0
  71
0
  3
isocp.shx
  0
STYLE
  2
KICADB
  70
0
  40
0
  41
1
  42
1
  50
0
  71
0
  3
isocp.shx
  0
STYLE
  2
KICADI
  70
0
  40
0
  41
1
  42
1
  50
15
  71
0
  3
isocp.shx
  0
STYLE
  2
KICADBI
  70
0
  40
0
  41
1
  42
1
  50
15
  71
0
  3
isocp.shx
  0
ENDTAB
  0
TABLE
  2
LAYER
  70
1
  0
LAYER
  2
BLACK
  70
0
  62
7
  6
CONTINUOUS
  0
ENDTAB
  0
ENDSEC
  0
SECTION
  2
ENTITIES
0
LINE
8
BLACK
6
CONTINUOUS
10
160.0780169999999885
20
-95.7400579999999906
11
160.2471069999999997
21
-95.7992249999999927
0
LINE
8
BLACK
6
CONTINUOUS
10
160.2471069999999997
20
-95.7992249999999927
11
160.398791999999986
21
-95.8945349999999905
0
LINE
8
BLACK
6
CONTINUOUS
10
160.398791999999986
20
-95.8945349999999905
11
160.525464999999997
21
-96.0212080000000014
0
LINE
8
BLACK
6
CONTINUOUS
10
160.525464999999997
20
-96.0212080000000014
11
160.6207749999999805
21
-96.172893000000002
0
LINE
8
BLACK
6
CONTINUOUS
10
160.6207749999999805
20
-96.172893000000002
11
160.6799419999999827
21
-96.341982999999999
0
LINE
8
BLACK
6
CONTINUOUS
10
160.6799419999999827
20
-96.341982999999999
11
160.6999999999999886
21
-96.519999999999996
0
LINE
8
BLACK
6
CONTINUOUS
10
160.6999999999999886
20
-96.519999999999996
11
160.6799419999999827
21
-96.698016999999993
0
LINE
8
BLACK
6
CONTINUOUS
10
160.6799419999999827
20
-96.698016999999993
11
160.6207749999999805
21
-96.8671069999999901
0
LINE
8
BLACK
6
CONTINUOUS
10
160.6207749999999805
20
-96.8671069999999901
11
160.5447979999999859
21
-96.9880220000000008
0
LINE
8
BLACK
6
CONTINUOUS
10
160.5447979999999859
20
-96.9880220000000008
11
162.4917769999999848
21
-98.9350000000000023
0
LINE
8
BLACK
6
CONTINUOUS
10
162.4917769999999848
20
-98.9350000000000023
11
162.5600000000000023
21
-98.9350000000000023
0
LINE
8
BLACK
6
CONTINUOUS
10
162.5600000000000023
20
-98.9350000000000023
11
162.595216999999991
21
-98.940062999999995
0
LINE
8
BLACK
6
CONTINUOUS
10
162.595216999999991
20
-98.940062999999995
11
162.602893999999992
21
-98.9449970000000008
0
LINE
8
BLACK
6
CONTINUOUS
10
162.602893999999992
20
-98.9449970000000008
11
162.6119269999999801
21
-98.9462959999999896
0
LINE
8
BLACK
6
CONTINUOUS
10
162.6119269999999801
20
-98.9462959999999896
11
162.6320560000000057
21
-98.9637379999999922
0
LINE
8
BLACK
6
CONTINUOUS
10
162.6320560000000057
20
-98.9637379999999922
11
162.654469000000006
21
-98.9781419999999912
0
LINE
8
BLACK
6
CONTINUOUS
10
162.654469000000006
20
-98.9781419999999912
11
162.6582599999999843
21
-98.9864439999999917
0
LINE
8
BLACK
6
CONTINUOUS
10
162.6582599999999843
20
-98.9864439999999917
11
162.6651569999999936
21
-98.9924199999999956
0
LINE
8
BLACK
6
CONTINUOUS
10
162.6651569999999936
20
-98.9924199999999956
11
162.6726610000000051
21
-99.0179779999999994
0
LINE
8
BLACK
6
CONTINUOUS
10
162.6726610000000051
20
-99.0179779999999994
11
162.6837280000000021
21
-99.0422109999999947
0
LINE
8
BLACK
6
CONTINUOUS
10
162.6837280000000021
20
-99.0422109999999947
11
162.6824289999999849
21
-99.051243999999997
0
LINE
8
BLACK
6
CONTINUOUS
10
162.6824289999999849
20
-99.051243999999997
11
162.6850000000000023
21
-99.0600000000000023
0
LINE
8
BLACK
6
CONTINUOUS
10
162.6850000000000023
20
-99.0600000000000023
11
162.6850000000000023
21
-119.3799999999999955
0
LINE
8
BLACK
6
CONTINUOUS
10
162.6850000000000023
20
-119.3799999999999955
11
162.6799369999999954
21
-119.4152169999999984
0
LINE
8
BLACK
6
CONTINUOUS
10
162.6799369999999954
20
-119.4152169999999984
11
162.6750020000000063
21
-119.4228939999999994
0
LINE
8
BLACK
6
CONTINUOUS
10
162.6750020000000063
20
-119.4228939999999994
11
162.6737039999999865
21
-119.4319269999999875
0
LINE
8
BLACK
6
CONTINUOUS
10
162.6737039999999865
20
-119.4319269999999875
11
162.6562610000000006
21
-119.4520559999999989
0
LINE
8
BLACK
6
CONTINUOUS
10
162.6562610000000006
20
-119.4520559999999989
11
162.6418579999999849
21
-119.4744689999999991
0
LINE
8
BLACK
6
CONTINUOUS
10
162.6418579999999849
20
-119.4744689999999991
11
162.6335550000000012
21
-119.4782599999999917
0
LINE
8
BLACK
6
CONTINUOUS
10
162.6335550000000012
20
-119.4782599999999917
11
162.6275799999999947
21
-119.4851570000000009
0
LINE
8
BLACK
6
CONTINUOUS
10
162.6275799999999947
20
-119.4851570000000009
11
162.6020209999999793
21
-119.4926609999999982
0
LINE
8
BLACK
6
CONTINUOUS
10
162.6020209999999793
20
-119.4926609999999982
11
162.5777889999999957
21
-119.5037279999999953
0
LINE
8
BLACK
6
CONTINUOUS
10
162.5777889999999957
20
-119.5037279999999953
11
162.5687549999999817
21
-119.5024289999999922
0
LINE
8
BLACK
6
CONTINUOUS
10
162.5687549999999817
20
-119.5024289999999922
11
162.5600000000000023
21
-119.5049999999999955
0
LINE
8
BLACK
6
CONTINUOUS
10
162.5600000000000023
20
-119.5049999999999955
11
137.4190099999999859
21
-119.5049999999999955
0
LINE
8
BLACK
6
CONTINUOUS
10
137.4190099999999859
20
-119.5049999999999955
11
137.3969109999999887
21
-119.5018230000000017
0
LINE
8
BLACK
6
CONTINUOUS
10
137.3969109999999887
20
-119.5018230000000017
11
137.392438999999996
21
-119.5021429999999896
0
LINE
8
BLACK
6
CONTINUOUS
10
137.392438999999996
20
-119.5021429999999896
11
137.3900449999999864
21
-119.500834999999995
0
LINE
8
BLACK
6
CONTINUOUS
10
137.3900449999999864
20
-119.500834999999995
11
137.3837929999999972
21
-119.4999369999999885
0
LINE
8
BLACK
6
CONTINUOUS
10
137.3837929999999972
20
-119.4999369999999885
11
137.3577630000000056
21
-119.4832079999999905
0
LINE
8
BLACK
6
CONTINUOUS
10
137.3577630000000056
20
-119.4832079999999905
11
137.3306210000000078
21
-119.4683879999999903
0
LINE
8
BLACK
6
CONTINUOUS
10
137.3306210000000078
20
-119.4683879999999903
11
137.0716119999999876
21
-119.209378000000001
0
LINE
8
BLACK
6
CONTINUOUS
10
137.0716119999999876
20
-119.209378000000001
11
137.0582349999999963
21
-119.1915089999999964
0
LINE
8
BLACK
6
CONTINUOUS
10
137.0582349999999963
20
-119.1915089999999964
11
137.0548430000000053
21
-119.1885699999999986
0
LINE
8
BLACK
6
CONTINUOUS
10
137.0548430000000053
20
-119.1885699999999986
11
137.0540729999999883
21
-119.1859499999999912
0
LINE
8
BLACK
6
CONTINUOUS
10
137.0540729999999883
20
-119.1859499999999912
11
137.0502899999999897
21
-119.18089599999999
0
LINE
8
BLACK
6
CONTINUOUS
10
137.0502899999999897
20
-119.18089599999999
11
137.0437139999999943
21
-119.1506669999999986
0
LINE
8
BLACK
6
CONTINUOUS
10
137.0437139999999943
20
-119.1506669999999986
11
137.0349999999999966
21
-119.1209899999999919
0
LINE
8
BLACK
6
CONTINUOUS
10
137.0349999999999966
20
-119.1209899999999919
11
137.0349999999999966
21
-118.0259149999999977
0
LINE
8
BLACK
6
CONTINUOUS
10
137.0349999999999966
20
-118.0259149999999977
11
136.9819829999999854
21
-118.0199420000000003
0
LINE
8
BLACK
6
CONTINUOUS
10
136.9819829999999854
20
-118.0199420000000003
11
136.8128930000000025
21
-117.9607749999999982
0
LINE
8
BLACK
6
CONTINUOUS
10
136.8128930000000025
20
-117.9607749999999982
11
136.6612079999999878
21
-117.8654650000000004
0
LINE
8
BLACK
6
CONTINUOUS
10
136.6612079999999878
20
-117.8654650000000004
11
136.5345350000000053
21
-117.7387919999999895
0
LINE
8
BLACK
6
CONTINUOUS
10
136.5345350000000053
20
-117.7387919999999895
11
136.4392249999999933
21
-117.5871069999999889
0
LINE
8
BLACK
6
CONTINUOUS
10
136.4392249999999933
20
-117.5871069999999889
11
136.3800579999999911
21
-117.4180169999999919
0
LINE
8
BLACK
6
CONTINUOUS
10
136.3800579999999911
20
-117.4180169999999919
11
136.3599999999999852
21
-117.2399999999999949
0
LINE
8
BLACK
6
CONTINUOUS
10
136.3599999999999852
20
-117.2399999999999949
11
136.3599999999999852
21
-116.4399999999999977
0
LINE
8
BLACK
6
CONTINUOUS
10
136.3599999999999852
20
-116.4399999999999977
11
136.3800579999999911
21
-116.2619830000000007
0
LINE
8
BLACK
6
CONTINUOUS
10
136.3800579999999911
20
-116.2619830000000007
11
136.4392249999999933
21
-116.0928929999999895
0
LINE
8
BLACK
6
CONTINUOUS
10
136.4392249999999933
20
-116.0928929999999895
11
136.5345350000000053
21
-115.9412079999999889
0
LINE
8
BLACK
6
CONTINUOUS
10
136.5345350000000053
20
-115.9412079999999889
11
136.6612079999999878
21
-115.8145349999999922
0
LINE
8
BLACK
6
CONTINUOUS
10
136.6612079999999878
20
-115.8145349999999922
11
136.8128930000000025
21
-115.7192249999999945
0
LINE
8
BLACK
6
CONTINUOUS
10
136.8128930000000025
20
-115.7192249999999945
11
136.9819829999999854
21
-115.6600579999999923
0
LINE
8
BLACK
6
CONTINUOUS
10
136.9819829999999854
20
-115.6600579999999923
11
137.1599999999999966
21
-115.6400000000000006
0
LINE
8
BLACK
6
CONTINUOUS
10
137.1599999999999966
20
-115.6400000000000006
11
137.3380170000000078
21
-115.6600579999999923
0
LINE
8
BLACK
6
CONTINUOUS
10
137.3380170000000078
20
-115.6600579999999923
11
137.5071069999999906
21
-115.7192249999999945
0
LINE
8
BLACK
6
CONTINUOUS
10
137.5071069999999906
20
-115.7192249999999945
11
137.6587920000000054
21
-115.8145349999999922
0
LINE
8
BLACK
6
CONTINUOUS
10
137.6587920000000054
20
-115.8145349999999922
11
137.7854649999999879
21
-115.9412079999999889
0
LINE
8
BLACK
6
CONTINUOUS
10
137.7854649999999879
20
-115.9412079999999889
11
137.8807749999999999
21
-116.0928929999999895
0
LINE
8
BLACK
6
CONTINUOUS
10
137.8807749999999999
20
-116.0928929999999895
11
137.9399420000000021
21
-116.2619830000000007
0
LINE
8
BLACK
6
CONTINUOUS
10
137.9399420000000021
20
-116.2619830000000007
11
137.960000000000008
21
-116.4399999999999977
0
LINE
8
BLACK
6
CONTINUOUS
10
137.960000000000008
20
-116.4399999999999977
11
137.960000000000008
21
-117.2399999999999949
0
LINE
8
BLACK
6
CONTINUOUS
10
137.960000000000008
20
-117.2399999999999949
11
137.9399420000000021
21
-117.4180169999999919
0
LINE
8
BLACK
6
CONTINUOUS
10
137.9399420000000021
20
-117.4180169999999919
11
137.8807749999999999
21
-117.5871069999999889
0
LINE
8
BLACK
6
CONTINUOUS
10
137.8807749999999999
20
-117.5871069999999889
11
137.7854649999999879
21
-117.7387919999999895
0
LINE
8
BLACK
6
CONTINUOUS
10
137.7854649999999879
20
-117.7387919999999895
11
137.6587920000000054
21
-117.8654650000000004
0
LINE
8
BLACK
6
CONTINUOUS
10
137.6587920000000054
20
-117.8654650000000004
11
137.5071069999999906
21
-117.9607749999999982
0
LINE
8
BLACK
6
CONTINUOUS
10
137.5071069999999906
20
-117.9607749999999982
11
137.3380170000000078
21
-118.0199420000000003
0
LINE
8
BLACK
6
CONTINUOUS
10
137.3380170000000078
20
-118.0199420000000003
11
137.2849999999999966
21
-118.0259149999999977
0
LINE
8
BLACK
6
CONTINUOUS
10
137.2849999999999966
20
-118.0259149999999977
11
137.2849999999999966
21
-119.0692129999999906
0
LINE
8
BLACK
6
CONTINUOUS
10
137.2849999999999966
20
-119.0692129999999906
11
137.4707870000000014
21
-119.2549999999999955
0
LINE
8
BLACK
6
CONTINUOUS
10
137.4707870000000014
20
-119.2549999999999955
11
162.4350000000000023
21
-119.2549999999999955
0
LINE
8
BLACK
6
CONTINUOUS
10
162.4350000000000023
20
-119.2549999999999955
11
162.4350000000000023
21
-99.1842809999999986
0
LINE
8
BLACK
6
CONTINUOUS
10
162.4350000000000023
20
-99.1842809999999986
11
162.4179010000000005
21
-99.1818229999999943
0
LINE
8
BLACK
6
CONTINUOUS
10
162.4179010000000005
20
-99.1818229999999943
11
162.4134289999999794
21
-99.1821429999999964
0
LINE
8
BLACK
6
CONTINUOUS
10
162.4134289999999794
20
-99.1821429999999964
11
162.4110349999999983
21
-99.1808350000000019
0
LINE
8
BLACK
6
CONTINUOUS
10
162.4110349999999983
20
-99.1808350000000019
11
162.4047829999999806
21
-99.1799369999999954
0
LINE
8
BLACK
6
CONTINUOUS
10
162.4047829999999806
20
-99.1799369999999954
11
162.378752999999989
21
-99.1632079999999974
0
LINE
8
BLACK
6
CONTINUOUS
10
162.378752999999989
20
-99.1632079999999974
11
162.3516109999999912
21
-99.1483879999999971
0
LINE
8
BLACK
6
CONTINUOUS
10
162.3516109999999912
20
-99.1483879999999971
11
160.3680219999999963
21
-97.1647979999999905
0
LINE
8
BLACK
6
CONTINUOUS
10
160.3680219999999963
20
-97.1647979999999905
11
160.2471069999999997
21
-97.2407749999999993
0
LINE
8
BLACK
6
CONTINUOUS
10
160.2471069999999997
20
-97.2407749999999993
11
160.0780169999999885
21
-97.2999420000000015
0
LINE
8
BLACK
6
CONTINUOUS
10
160.0780169999999885
20
-97.2999420000000015
11
159.9000000000000057
21
-97.3199999999999932
0
LINE
8
BLACK
6
CONTINUOUS
10
159.9000000000000057
20
-97.3199999999999932
11
159.7219829999999945
21
-97.2999420000000015
0
LINE
8
BLACK
6
CONTINUOUS
10
159.7219829999999945
20
-97.2999420000000015
11
159.5528929999999832
21
-97.2407749999999993
0
LINE
8
BLACK
6
CONTINUOUS
10
159.5528929999999832
20
-97.2407749999999993
11
159.4012079999999969
21
-97.1454650000000015
0
LINE
8
BLACK
6
CONTINUOUS
10
159.4012079999999969
20
-97.1454650000000015
11
159.274534999999986
21
-97.0187919999999906
0
LINE
8
BLACK
6
CONTINUOUS
10
159.274534999999986
20
-97.0187919999999906
11
159.1792250000000024
21
-96.8671069999999901
0
LINE
8
BLACK
6
CONTINUOUS
10
159.1792250000000024
20
-96.8671069999999901
11
159.1200580000000002
21
-96.698016999999993
0
LINE
8
BLACK
6
CONTINUOUS
10
159.1200580000000002
20
-96.698016999999993
11
159.0999999999999943
21
-96.519999999999996
0
LINE
8
BLACK
6
CONTINUOUS
10
159.0999999999999943
20
-96.519999999999996
11
159.1200580000000002
21
-96.341982999999999
0
LINE
8
BLACK
6
CONTINUOUS
10
159.1200580000000002
20
-96.341982999999999
11
159.1792250000000024
21
-96.172893000000002
0
LINE
8
BLACK
6
CONTINUOUS
10
159.1792250000000024
20
-96.172893000000002
11
159.274534999999986
21
-96.0212080000000014
0
LINE
8
BLACK
6
CONTINUOUS
10
159.274534999999986
20
-96.0212080000000014
11
159.4012079999999969
21
-95.8945349999999905
0
LINE
8
BLACK
6
CONTINUOUS
10
159.4012079999999969
20
-95.8945349999999905
11
159.5528929999999832
21
-95.7992249999999927
0
LINE
8
BLACK
6
CONTINUOUS
10
159.5528929999999832
20
-95.7992249999999927
11
159.7219829999999945
21
-95.7400579999999906
0
LINE
8
BLACK
6
CONTINUOUS
10
159.7219829999999945
20
-95.7400579999999906
11
159.9000000000000057
21
-95.7199999999999989
0
LINE
8
BLACK
6
CONTINUOUS
10
159.9000000000000057
20
-95.7199999999999989
11
160.0780169999999885
21
-95.7400579999999906
0
LINE
8
BLACK
6
CONTINUOUS
10
132.8799999999999955
20
-118.039999999999992
11
131.2800000000000011
21
-118.039999999999992
0
LINE
8
BLACK
6
CONTINUOUS
10
131.2800000000000011
20
-118.039999999999992
11
131.2800000000000011
21
-115.6400000000000006
0
LINE
8
BLACK
6
CONTINUOUS
10
131.2800000000000011
20
-115.6400000000000006
11
132.8799999999999955
21
-115.6400000000000006
0
LINE
8
BLACK
6
CONTINUOUS
10
132.8799999999999955
20
-115.6400000000000006
11
132.8799999999999955
21
-118.039999999999992
0
LINE
8
BLACK
6
CONTINUOUS
10
134.7980169999999873
20
-115.6600579999999923
11
134.9671069999999986
21
-115.7192249999999945
0
LINE
8
BLACK
6
CONTINUOUS
10
134.9671069999999986
20
-115.7192249999999945
11
135.1187919999999849
21
-115.8145349999999922
0
LINE
8
BLACK
6
CONTINUOUS
10
135.1187919999999849
20
-115.8145349999999922
11
135.2454649999999958
21
-115.9412079999999889
0
LINE
8
BLACK
6
CONTINUOUS
10
135.2454649999999958
20
-115.9412079999999889
11
135.3407750000000078
21
-116.0928929999999895
0
LINE
8
BLACK
6
CONTINUOUS
10
135.3407750000000078
20
-116.0928929999999895
11
135.3999419999999816
21
-116.2619830000000007
0
LINE
8
BLACK
6
CONTINUOUS
10
135.3999419999999816
20
-116.2619830000000007
11
135.4199999999999875
21
-116.4399999999999977
0
LINE
8
BLACK
6
CONTINUOUS
10
135.4199999999999875
20
-116.4399999999999977
11
135.4199999999999875
21
-117.2399999999999949
0
LINE
8
BLACK
6
CONTINUOUS
10
135.4199999999999875
20
-117.2399999999999949
11
135.3999419999999816
21
-117.4180169999999919
0
LINE
8
BLACK
6
CONTINUOUS
10
135.3999419999999816
20
-117.4180169999999919
11
135.3407750000000078
21
-117.5871069999999889
0
LINE
8
BLACK
6
CONTINUOUS
10
135.3407750000000078
20
-117.5871069999999889
11
135.2454649999999958
21
-117.7387919999999895
0
LINE
8
BLACK
6
CONTINUOUS
10
135.2454649999999958
20
-117.7387919999999895
11
135.1187919999999849
21
-117.8654650000000004
0
LINE
8
BLACK
6
CONTINUOUS
10
135.1187919999999849
20
-117.8654650000000004
11
134.9671069999999986
21
-117.9607749999999982
0
LINE
8
BLACK
6
CONTINUOUS
10
134.9671069999999986
20
-117.9607749999999982
11
134.7980169999999873
21
-118.0199420000000003
0
LINE
8
BLACK
6
CONTINUOUS
10
134.7980169999999873
20
-118.0199420000000003
11
134.6200000000000045
21
-118.039999999999992
0
LINE
8
BLACK
6
CONTINUOUS
10
134.6200000000000045
20
-118.039999999999992
11
134.4419829999999934
21
-118.0199420000000003
0
LINE
8
BLACK
6
CONTINUOUS
10
134.4419829999999934
20
-118.0199420000000003
11
134.2728929999999821
21
-117.9607749999999982
0
LINE
8
BLACK
6
CONTINUOUS
10
134.2728929999999821
20
-117.9607749999999982
11
134.1212079999999958
21
-117.8654650000000004
0
LINE
8
BLACK
6
CONTINUOUS
10
134.1212079999999958
20
-117.8654650000000004
11
133.9945349999999848
21
-117.7387919999999895
0
LINE
8
BLACK
6
CONTINUOUS
10
133.9945349999999848
20
-117.7387919999999895
11
133.8992250000000013
21
-117.5871069999999889
0
LINE
8
BLACK
6
CONTINUOUS
10
133.8992250000000013
20
-117.5871069999999889
11
133.8400579999999991
21
-117.4180169999999919
0
LINE
8
BLACK
6
CONTINUOUS
10
133.8400579999999991
20
-117.4180169999999919
11
133.8199999999999932
21
-117.2399999999999949
0
LINE
8
BLACK
6
CONTINUOUS
10
133.8199999999999932
20
-117.2399999999999949
11
133.8199999999999932
21
-116.4399999999999977
0
LINE
8
BLACK
6
CONTINUOUS
10
133.8199999999999932
20
-116.4399999999999977
11
133.8400579999999991
21
-116.2619830000000007
0
LINE
8
BLACK
6
CONTINUOUS
10
133.8400579999999991
20
-116.2619830000000007
11
133.8992250000000013
21
-116.0928929999999895
0
LINE
8
BLACK
6
CONTINUOUS
10
133.8992250000000013
20
-116.0928929999999895
11
133.9945349999999848
21
-115.9412079999999889
0
LINE
8
BLACK
6
CONTINUOUS
10
133.9945349999999848
20
-115.9412079999999889
11
134.1212079999999958
21
-115.8145349999999922
0
LINE
8
BLACK
6
CONTINUOUS
10
134.1212079999999958
20
-115.8145349999999922
11
134.2728929999999821
21
-115.7192249999999945
0
LINE
8
BLACK
6
CONTINUOUS
10
134.2728929999999821
20
-115.7192249999999945
11
134.4419829999999934
21
-115.6600579999999923
0
LINE
8
BLACK
6
CONTINUOUS
10
134.4419829999999934
20
-115.6600579999999923
11
134.6200000000000045
21
-115.6400000000000006
0
LINE
8
BLACK
6
CONTINUOUS
10
134.6200000000000045
20
-115.6400000000000006
11
134.7980169999999873
21
-115.6600579999999923
0
LINE
8
BLACK
6
CONTINUOUS
10
146.6430169999999862
20
-95.7400579999999906
11
146.8121069999999975
21
-95.7992249999999927
0
LINE
8
BLACK
6
CONTINUOUS
10
146.8121069999999975
20
-95.7992249999999927
11
146.9637919999999838
21
-95.8945349999999905
0
LINE
8
BLACK
6
CONTINUOUS
10
146.9637919999999838
20
-95.8945349999999905
11
147.0904649999999947
21
-96.0212080000000014
0
LINE
8
BLACK
6
CONTINUOUS
10
147.0904649999999947
20
-96.0212080000000014
11
147.1857750000000067
21
-96.172893000000002
0
LINE
8
BLACK
6
CONTINUOUS
10
147.1857750000000067
20
-96.172893000000002
11
147.2449419999999805
21
-96.341982999999999
0
LINE
8
BLACK
6
CONTINUOUS
10
147.2449419999999805
20
-96.341982999999999
11
147.2649999999999864
21
-96.519999999999996
0
LINE
8
BLACK
6
CONTINUOUS
10
147.2649999999999864
20
-96.519999999999996
11
147.2449419999999805
21
-96.698016999999993
0
LINE
8
BLACK
6
CONTINUOUS
10
147.2449419999999805
20
-96.698016999999993
11
147.1857750000000067
21
-96.8671069999999901
0
LINE
8
BLACK
6
CONTINUOUS
10
147.1857750000000067
20
-96.8671069999999901
11
147.0904649999999947
21
-97.0187919999999906
0
LINE
8
BLACK
6
CONTINUOUS
10
147.0904649999999947
20
-97.0187919999999906
11
146.9637919999999838
21
-97.1454650000000015
0
LINE
8
BLACK
6
CONTINUOUS
10
146.9637919999999838
20
-97.1454650000000015
11
146.8121069999999975
21
-97.2407749999999993
0
LINE
8
BLACK
6
CONTINUOUS
10
146.8121069999999975
20
-97.2407749999999993
11
146.6430169999999862
21
-97.2999420000000015
0
LINE
8
BLACK
6
CONTINUOUS
10
146.6430169999999862
20
-97.2999420000000015
11
146.4650000000000034
21
-97.3199999999999932
0
LINE
8
BLACK
6
CONTINUOUS
10
146.4650000000000034
20
-97.3199999999999932
11
145.664999999999992
21
-97.3199999999999932
0
LINE
8
BLACK
6
CONTINUOUS
10
145.664999999999992
20
-97.3199999999999932
11
145.4869829999999808
21
-97.2999420000000015
0
LINE
8
BLACK
6
CONTINUOUS
10
145.4869829999999808
20
-97.2999420000000015
11
145.4683530000000076
21
-97.29342299999999
0
LINE
8
BLACK
6
CONTINUOUS
10
145.4683530000000076
20
-97.29342299999999
11
144.664999999999992
21
-98.0967759999999913
0
LINE
8
BLACK
6
CONTINUOUS
10
144.664999999999992
20
-98.0967759999999913
11
144.664999999999992
21
-112.3999999999999915
0
LINE
8
BLACK
6
CONTINUOUS
10
144.664999999999992
20
-112.3999999999999915
11
144.6618229999999983
21
-112.4220969999999937
0
LINE
8
BLACK
6
CONTINUOUS
10
144.6618229999999983
20
-112.4220969999999937
11
144.6621429999999862
21
-112.4265709999999956
0
LINE
8
BLACK
6
CONTINUOUS
10
144.6621429999999862
20
-112.4265709999999956
11
144.6608349999999916
21
-112.4289639999999935
0
LINE
8
BLACK
6
CONTINUOUS
10
144.6608349999999916
20
-112.4289639999999935
11
144.6599369999999851
21
-112.4352169999999944
0
LINE
8
BLACK
6
CONTINUOUS
10
144.6599369999999851
20
-112.4352169999999944
11
144.6432079999999871
21
-112.4612459999999885
0
LINE
8
BLACK
6
CONTINUOUS
10
144.6432079999999871
20
-112.4612459999999885
11
144.6283880000000011
21
-112.488388999999998
0
LINE
8
BLACK
6
CONTINUOUS
10
144.6283880000000011
20
-112.488388999999998
11
140.5
21
-116.6167760000000015
0
LINE
8
BLACK
6
CONTINUOUS
10
140.5
20
-116.6167760000000015
11
140.5
21
-117.2399999999999949
0
LINE
8
BLACK
6
CONTINUOUS
10
140.5
20
-117.2399999999999949
11
140.4799419999999941
21
-117.4180169999999919
0
LINE
8
BLACK
6
CONTINUOUS
10
140.4799419999999941
20
-117.4180169999999919
11
140.4207749999999919
21
-117.5871069999999889
0
LINE
8
BLACK
6
CONTINUOUS
10
140.4207749999999919
20
-117.5871069999999889
11
140.3254649999999799
21
-117.7387919999999895
0
LINE
8
BLACK
6
CONTINUOUS
10
140.3254649999999799
20
-117.7387919999999895
11
140.1987919999999974
21
-117.8654650000000004
0
LINE
8
BLACK
6
CONTINUOUS
10
140.1987919999999974
20
-117.8654650000000004
11
140.0471069999999827
21
-117.9607749999999982
0
LINE
8
BLACK
6
CONTINUOUS
10
140.0471069999999827
20
-117.9607749999999982
11
139.8780169999999998
21
-118.0199420000000003
0
LINE
8
BLACK
6
CONTINUOUS
10
139.8780169999999998
20
-118.0199420000000003
11
139.6999999999999886
21
-118.039999999999992
0
LINE
8
BLACK
6
CONTINUOUS
10
139.6999999999999886
20
-118.039999999999992
11
139.5219830000000059
21
-118.0199420000000003
0
LINE
8
BLACK
6
CONTINUOUS
10
139.5219830000000059
20
-118.0199420000000003
11
139.3528929999999946
21
-117.9607749999999982
0
LINE
8
BLACK
6
CONTINUOUS
10
139.3528929999999946
20
-117.9607749999999982
11
139.2012079999999798
21
-117.8654650000000004
0
LINE
8
BLACK
6
CONTINUOUS
10
139.2012079999999798
20
-117.8654650000000004
11
139.0745349999999974
21
-117.7387919999999895
0
LINE
8
BLACK
6
CONTINUOUS
10
139.0745349999999974
20
-117.7387919999999895
11
138.9792249999999854
21
-117.5871069999999889
0
LINE
8
BLACK
6
CONTINUOUS
10
138.9792249999999854
20
-117.5871069999999889
11
138.9200579999999832
21
-117.4180169999999919
0
LINE
8
BLACK
6
CONTINUOUS
10
138.9200579999999832
20
-117.4180169999999919
11
138.9000000000000057
21
-117.2399999999999949
0
LINE
8
BLACK
6
CONTINUOUS
10
138.9000000000000057
20
-117.2399999999999949
11
138.9000000000000057
21
-116.4399999999999977
0
LINE
8
BLACK
6
CONTINUOUS
10
138.9000000000000057
20
-116.4399999999999977
11
138.9200579999999832
21
-116.2619830000000007
0
LINE
8
BLACK
6
CONTINUOUS
10
138.9200579999999832
20
-116.2619830000000007
11
138.9792249999999854
21
-116.0928929999999895
0
LINE
8
BLACK
6
CONTINUOUS
10
138.9792249999999854
20
-116.0928929999999895
11
139.0745349999999974
21
-115.9412079999999889
0
LINE
8
BLACK
6
CONTINUOUS
10
139.0745349999999974
20
-115.9412079999999889
11
139.2012079999999798
21
-115.8145349999999922
0
LINE
8
BLACK
6
CONTINUOUS
10
139.2012079999999798
20
-115.8145349999999922
11
139.3528929999999946
21
-115.7192249999999945
0
LINE
8
BLACK
6
CONTINUOUS
10
139.3528929999999946
20
-115.7192249999999945
11
139.5219830000000059
21
-115.6600579999999923
0
LINE
8
BLACK
6
CONTINUOUS
10
139.5219830000000059
20
-115.6600579999999923
11
139.6999999999999886
21
-115.6400000000000006
0
LINE
8
BLACK
6
CONTINUOUS
10
139.6999999999999886
20
-115.6400000000000006
11
139.8780169999999998
21
-115.6600579999999923
0
LINE
8
BLACK
6
CONTINUOUS
10
139.8780169999999998
20
-115.6600579999999923
11
140.0471069999999827
21
-115.7192249999999945
0
LINE
8
BLACK
6
CONTINUOUS
10
140.0471069999999827
20
-115.7192249999999945
11
140.1987919999999974
21
-115.8145349999999922
0
LINE
8
BLACK
6
CONTINUOUS
10
140.1987919999999974
20
-115.8145349999999922
11
140.3254649999999799
21
-115.9412079999999889
0
LINE
8
BLACK
6
CONTINUOUS
10
140.3254649999999799
20
-115.9412079999999889
11
140.4207749999999919
21
-116.0928929999999895
0
LINE
8
BLACK
6
CONTINUOUS
10
140.4207749999999919
20
-116.0928929999999895
11
140.4799419999999941
21
-116.2619830000000007
0
LINE
8
BLACK
6
CONTINUOUS
10
140.4799419999999941
20
-116.2619830000000007
11
140.4820980000000077
21
-116.2811249999999887
0
LINE
8
BLACK
6
CONTINUOUS
10
140.4820980000000077
20
-116.2811249999999887
11
144.414999999999992
21
-112.3482229999999902
0
LINE
8
BLACK
6
CONTINUOUS
10
144.414999999999992
20
-112.3482229999999902
11
144.414999999999992
21
-98.3467759999999913
0
LINE
8
BLACK
6
CONTINUOUS
10
144.414999999999992
20
-98.3467759999999913
11
142.1983879999999942
21
-100.5633879999999891
0
LINE
8
BLACK
6
CONTINUOUS
10
142.1983879999999942
20
-100.5633879999999891
11
142.1805190000000039
21
-100.5767639999999972
0
LINE
8
BLACK
6
CONTINUOUS
10
142.1805190000000039
20
-100.5767639999999972
11
142.1775800000000061
21
-100.5801569999999998
0
LINE
8
BLACK
6
CONTINUOUS
10
142.1775800000000061
20
-100.5801569999999998
11
142.1749599999999987
21
-100.5809259999999909
0
LINE
8
BLACK
6
CONTINUOUS
10
142.1749599999999987
20
-100.5809259999999909
11
142.1699059999999974
21
-100.5847100000000012
0
LINE
8
BLACK
6
CONTINUOUS
10
142.1699059999999974
20
-100.5847100000000012
11
142.139677000000006
21
-100.5912849999999992
0
LINE
8
BLACK
6
CONTINUOUS
10
142.139677000000006
20
-100.5912849999999992
11
142.1099999999999852
21
-100.5999999999999943
0
LINE
8
BLACK
6
CONTINUOUS
10
142.1099999999999852
20
-100.5999999999999943
11
133.4950000000000045
21
-100.5999999999999943
0
LINE
8
BLACK
6
CONTINUOUS
10
133.4950000000000045
20
-100.5999999999999943
11
133.4729020000000048
21
-100.5968230000000005
0
LINE
8
BLACK
6
CONTINUOUS
10
133.4729020000000048
20
-100.5968230000000005
11
133.4684289999999862
21
-100.5971429999999884
0
LINE
8
BLACK
6
CONTINUOUS
10
133.4684289999999862
20
-100.5971429999999884
11
133.4660350000000051
21
-100.5958349999999939
0
LINE
8
BLACK
6
CONTINUOUS
10
133.4660350000000051
20
-100.5958349999999939
11
133.4597829999999874
21
-100.5949370000000016
0
LINE
8
BLACK
6
CONTINUOUS
10
133.4597829999999874
20
-100.5949370000000016
11
133.4337500000000034
21
-100.5782059999999944
0
LINE
8
BLACK
6
CONTINUOUS
10
133.4337500000000034
20
-100.5782059999999944
11
133.4066119999999955
21
-100.5633879999999891
0
LINE
8
BLACK
6
CONTINUOUS
10
133.4066119999999955
20
-100.5633879999999891
11
132.5828109999999924
21
-99.7395870000000002
0
LINE
8
BLACK
6
CONTINUOUS
10
132.5828109999999924
20
-99.7395870000000002
11
132.5049999999999955
21
-99.7961219999999969
0
LINE
8
BLACK
6
CONTINUOUS
10
132.5049999999999955
20
-99.7961219999999969
11
132.342663999999985
21
-99.8683979999999991
0
LINE
8
BLACK
6
CONTINUOUS
10
132.342663999999985
20
-99.8683979999999991
11
132.1688489999999945
21
-99.9053439999999995
0
LINE
8
BLACK
6
CONTINUOUS
10
132.1688489999999945
20
-99.9053439999999995
11
131.9911510000000021
21
-99.9053439999999995
0
LINE
8
BLACK
6
CONTINUOUS
10
131.9911510000000021
20
-99.9053439999999995
11
131.8173359999999832
21
-99.8683979999999991
0
LINE
8
BLACK
6
CONTINUOUS
10
131.8173359999999832
20
-99.8683979999999991
11
131.6550000000000011
21
-99.7961219999999969
0
LINE
8
BLACK
6
CONTINUOUS
10
131.6550000000000011
20
-99.7961219999999969
11
131.5112389999999891
21
-99.6916729999999944
0
LINE
8
BLACK
6
CONTINUOUS
10
131.5112389999999891
20
-99.6916729999999944
11
131.3923360000000002
21
-99.5596169999999887
0
LINE
8
BLACK
6
CONTINUOUS
10
131.3923360000000002
20
-99.5596169999999887
11
131.3034859999999924
21
-99.4057260000000014
0
LINE
8
BLACK
6
CONTINUOUS
10
131.3034859999999924
20
-99.4057260000000014
11
131.2485749999999882
21
-99.2367249999999927
0
LINE
8
BLACK
6
CONTINUOUS
10
131.2485749999999882
20
-99.2367249999999927
11
131.2299999999999898
21
-99.0600000000000023
0
LINE
8
BLACK
6
CONTINUOUS
10
131.2299999999999898
20
-99.0600000000000023
11
131.2485749999999882
21
-98.8832749999999976
0
LINE
8
BLACK
6
CONTINUOUS
10
131.2485749999999882
20
-98.8832749999999976
11
131.3034859999999924
21
-98.714273999999989
0
LINE
8
BLACK
6
CONTINUOUS
10
131.3034859999999924
20
-98.714273999999989
11
131.3923360000000002
21
-98.5603830000000016
0
LINE
8
BLACK
6
CONTINUOUS
10
131.3923360000000002
20
-98.5603830000000016
11
131.5112389999999891
21
-98.4283269999999959
0
LINE
8
BLACK
6
CONTINUOUS
10
131.5112389999999891
20
-98.4283269999999959
11
131.6550000000000011
21
-98.3238779999999934
0
LINE
8
BLACK
6
CONTINUOUS
10
131.6550000000000011
20
-98.3238779999999934
11
131.8173359999999832
21
-98.2516019999999912
0
LINE
8
BLACK
6
CONTINUOUS
10
131.8173359999999832
20
-98.2516019999999912
11
131.9911510000000021
21
-98.2146559999999909
0
LINE
8
BLACK
6
CONTINUOUS
10
131.9911510000000021
20
-98.2146559999999909
11
132.1688489999999945
21
-98.2146559999999909
0
LINE
8
BLACK
6
CONTINUOUS
10
132.1688489999999945
20
-98.2146559999999909
11
132.342663999999985
21
-98.2516019999999912
0
LINE
8
BLACK
6
CONTINUOUS
10
132.342663999999985
20
-98.2516019999999912
11
132.5049999999999955
21
-98.3238779999999934
0
LINE
8
BLACK
6
CONTINUOUS
10
132.5049999999999955
20
-98.3238779999999934
11
132.6487610000000075
21
-98.4283269999999959
0
LINE
8
BLACK
6
CONTINUOUS
10
132.6487610000000075
20
-98.4283269999999959
11
132.7676639999999963
21
-98.5603830000000016
0
LINE
8
BLACK
6
CONTINUOUS
10
132.7676639999999963
20
-98.5603830000000016
11
132.8565140000000042
21
-98.714273999999989
0
LINE
8
BLACK
6
CONTINUOUS
10
132.8565140000000042
20
-98.714273999999989
11
132.9114249999999799
21
-98.8832749999999976
0
LINE
8
BLACK
6
CONTINUOUS
10
132.9114249999999799
20
-98.8832749999999976
11
132.9300000000000068
21
-99.0600000000000023
0
LINE
8
BLACK
6
CONTINUOUS
10
132.9300000000000068
20
-99.0600000000000023
11
132.9114249999999799
21
-99.2367249999999927
0
LINE
8
BLACK
6
CONTINUOUS
10
132.9114249999999799
20
-99.2367249999999927
11
132.8565140000000042
21
-99.4057260000000014
0
LINE
8
BLACK
6
CONTINUOUS
10
132.8565140000000042
20
-99.4057260000000014
11
132.7676639999999963
21
-99.5596169999999887
0
LINE
8
BLACK
6
CONTINUOUS
10
132.7676639999999963
20
-99.5596169999999887
11
132.7623229999999808
21
-99.5655469999999951
0
LINE
8
BLACK
6
CONTINUOUS
10
132.7623229999999808
20
-99.5655469999999951
11
133.5467759999999942
21
-100.3499999999999943
0
LINE
8
BLACK
6
CONTINUOUS
10
133.5467759999999942
20
-100.3499999999999943
11
142.0582239999999956
21
-100.3499999999999943
0
LINE
8
BLACK
6
CONTINUOUS
10
142.0582239999999956
20
-100.3499999999999943
11
145.22550099999998
21
-97.1827210000000008
0
LINE
8
BLACK
6
CONTINUOUS
10
145.22550099999998
20
-97.1827210000000008
11
145.1662079999999833
21
-97.1454650000000015
0
LINE
8
BLACK
6
CONTINUOUS
10
145.1662079999999833
20
-97.1454650000000015
11
145.0395350000000008
21
-97.0187919999999906
0
LINE
8
BLACK
6
CONTINUOUS
10
145.0395350000000008
20
-97.0187919999999906
11
144.9442249999999888
21
-96.8671069999999901
0
LINE
8
BLACK
6
CONTINUOUS
10
144.9442249999999888
20
-96.8671069999999901
11
144.8850579999999866
21
-96.698016999999993
0
LINE
8
BLACK
6
CONTINUOUS
10
144.8850579999999866
20
-96.698016999999993
11
144.8649999999999807
21
-96.519999999999996
0
LINE
8
BLACK
6
CONTINUOUS
10
144.8649999999999807
20
-96.519999999999996
11
144.8850579999999866
21
-96.341982999999999
0
LINE
8
BLACK
6
CONTINUOUS
10
144.8850579999999866
20
-96.341982999999999
11
144.9442249999999888
21
-96.172893000000002
0
LINE
8
BLACK
6
CONTINUOUS
10
144.9442249999999888
20
-96.172893000000002
11
145.0395350000000008
21
-96.0212080000000014
0
LINE
8
BLACK
6
CONTINUOUS
10
145.0395350000000008
20
-96.0212080000000014
11
145.1662079999999833
21
-95.8945349999999905
0
LINE
8
BLACK
6
CONTINUOUS
10
145.1662079999999833
20
-95.8945349999999905
11
145.317892999999998
21
-95.7992249999999927
0
LINE
8
BLACK
6
CONTINUOUS
10
145.317892999999998
20
-95.7992249999999927
11
145.4869829999999808
21
-95.7400579999999906
0
LINE
8
BLACK
6
CONTINUOUS
10
145.4869829999999808
20
-95.7400579999999906
11
145.664999999999992
21
-95.7199999999999989
0
LINE
8
BLACK
6
CONTINUOUS
10
145.664999999999992
20
-95.7199999999999989
11
146.4650000000000034
21
-95.7199999999999989
0
LINE
8
BLACK
6
CONTINUOUS
10
146.4650000000000034
20
-95.7199999999999989
11
146.6430169999999862
21
-95.7400579999999906
0
LINE
8
BLACK
6
CONTINUOUS
10
150.0380169999999964
20
-116.0600579999999979
11
150.2071069999999793
21
-116.1192250000000001
0
LINE
8
BLACK
6
CONTINUOUS
10
150.2071069999999793
20
-116.1192250000000001
11
150.358791999999994
21
-116.2145349999999979
0
LINE
8
BLACK
6
CONTINUOUS
10
150.358791999999994
20
-116.2145349999999979
11
150.4854650000000049
21
-116.3412079999999946
0
LINE
8
BLACK
6
CONTINUOUS
10
150.4854650000000049
20
-116.3412079999999946
11
150.5807749999999885
21
-116.4928929999999951
0
LINE
8
BLACK
6
CONTINUOUS
10
150.5807749999999885
20
-116.4928929999999951
11
150.6399419999999907
21
-116.6619829999999922
0
LINE
8
BLACK
6
CONTINUOUS
10
150.6399419999999907
20
-116.6619829999999922
11
150.6599999999999966
21
-116.8399999999999892
0
LINE
8
BLACK
6
CONTINUOUS
10
150.6599999999999966
20
-116.8399999999999892
11
150.6399419999999907
21
-117.0180170000000004
0
LINE
8
BLACK
6
CONTINUOUS
10
150.6399419999999907
20
-117.0180170000000004
11
150.5807749999999885
21
-117.1871069999999975
0
LINE
8
BLACK
6
CONTINUOUS
10
150.5807749999999885
20
-117.1871069999999975
11
150.4854650000000049
21
-117.338791999999998
0
LINE
8
BLACK
6
CONTINUOUS
10
150.4854650000000049
20
-117.338791999999998
11
150.358791999999994
21
-117.4654649999999947
0
LINE
8
BLACK
6
CONTINUOUS
10
150.358791999999994
20
-117.4654649999999947
11
150.2071069999999793
21
-117.5607749999999925
0
LINE
8
BLACK
6
CONTINUOUS
10
150.2071069999999793
20
-117.5607749999999925
11
150.0380169999999964
21
-117.6199419999999947
0
LINE
8
BLACK
6
CONTINUOUS
10
150.0380169999999964
20
-117.6199419999999947
11
149.8599999999999852
21
-117.6400000000000006
0
LINE
8
BLACK
6
CONTINUOUS
10
149.8599999999999852
20
-117.6400000000000006
11
149.6819830000000024
21
-117.6199419999999947
0
LINE
8
BLACK
6
CONTINUOUS
10
149.6819830000000024
20
-117.6199419999999947
11
149.5128929999999912
21
-117.5607749999999925
0
LINE
8
BLACK
6
CONTINUOUS
10
149.5128929999999912
20
-117.5607749999999925
11
149.3612080000000049
21
-117.4654649999999947
0
LINE
8
BLACK
6
CONTINUOUS
10
149.3612080000000049
20
-117.4654649999999947
11
149.2345349999999939
21
-117.338791999999998
0
LINE
8
BLACK
6
CONTINUOUS
10
149.2345349999999939
20
-117.338791999999998
11
149.1392249999999819
21
-117.1871069999999975
0
LINE
8
BLACK
6
CONTINUOUS
10
149.1392249999999819
20
-117.1871069999999975
11
149.0800579999999798
21
-117.0180170000000004
0
LINE
8
BLACK
6
CONTINUOUS
10
149.0800579999999798
20
-117.0180170000000004
11
149.0600000000000023
21
-116.8399999999999892
0
LINE
8
BLACK
6
CONTINUOUS
10
149.0600000000000023
20
-116.8399999999999892
11
149.0800579999999798
21
-116.6619829999999922
0
LINE
8
BLACK
6
CONTINUOUS
10
149.0800579999999798
20
-116.6619829999999922
11
149.1392249999999819
21
-116.4928929999999951
0
LINE
8
BLACK
6
CONTINUOUS
10
149.1392249999999819
20
-116.4928929999999951
11
149.2345349999999939
21
-116.3412079999999946
0
LINE
8
BLACK
6
CONTINUOUS
10
149.2345349999999939
20
-116.3412079999999946
11
149.3612080000000049
21
-116.2145349999999979
0
LINE
8
BLACK
6
CONTINUOUS
10
149.3612080000000049
20
-116.2145349999999979
11
149.5128929999999912
21
-116.1192250000000001
0
LINE
8
BLACK
6
CONTINUOUS
10
149.5128929999999912
20
-116.1192250000000001
11
149.6819830000000024
21
-116.0600579999999979
0
LINE
8
BLACK
6
CONTINUOUS
10
149.6819830000000024
20
-116.0600579999999979
11
149.8599999999999852
21
-116.039999999999992
0
LINE
8
BLACK
6
CONTINUOUS
10
149.8599999999999852
20
-116.039999999999992
11
150.0380169999999964
21
-116.0600579999999979
0
LINE
8
BLACK
6
CONTINUOUS
10
150.0380169999999964
20
-88.1200580000000002
11
150.2071069999999793
21
-88.1792250000000024
0
LINE
8
BLACK
6
CONTINUOUS
10
150.2071069999999793
20
-88.1792250000000024
11
150.358791999999994
21
-88.2745350000000002
0
LINE
8
BLACK
6
CONTINUOUS
10
150.358791999999994
20
-88.2745350000000002
11
150.4854650000000049
21
-88.4012079999999969
0
LINE
8
BLACK
6
CONTINUOUS
10
150.4854650000000049
20
-88.4012079999999969
11
150.5807749999999885
21
-88.5528929999999974
0
LINE
8
BLACK
6
CONTINUOUS
10
150.5807749999999885
20
-88.5528929999999974
11
150.6399419999999907
21
-88.7219829999999945
0
LINE
8
BLACK
6
CONTINUOUS
10
150.6399419999999907
20
-88.7219829999999945
11
150.6599999999999966
21
-88.8999999999999915
0
LINE
8
BLACK
6
CONTINUOUS
10
150.6599999999999966
20
-88.8999999999999915
11
150.6399419999999907
21
-89.0780170000000027
0
LINE
8
BLACK
6
CONTINUOUS
10
150.6399419999999907
20
-89.0780170000000027
11
150.5807749999999885
21
-89.2471069999999997
0
LINE
8
BLACK
6
CONTINUOUS
10
150.5807749999999885
20
-89.2471069999999997
11
150.4854650000000049
21
-89.3987920000000003
0
LINE
8
BLACK
6
CONTINUOUS
10
150.4854650000000049
20
-89.3987920000000003
11
150.358791999999994
21
-89.525464999999997
0
LINE
8
BLACK
6
CONTINUOUS
10
150.358791999999994
20
-89.525464999999997
11
150.2071069999999793
21
-89.6207749999999947
0
LINE
8
BLACK
6
CONTINUOUS
10
150.2071069999999793
20
-89.6207749999999947
11
150.0380169999999964
21
-89.6799419999999969
0
LINE
8
BLACK
6
CONTINUOUS
10
150.0380169999999964
20
-89.6799419999999969
11
149.9849999999999852
21
-89.6859149999999943
0
LINE
8
BLACK
6
CONTINUOUS
10
149.9849999999999852
20
-89.6859149999999943
11
149.9849999999999852
21
-95.2650000000000006
0
LINE
8
BLACK
6
CONTINUOUS
10
149.9849999999999852
20
-95.2650000000000006
11
149.9818229999999915
21
-95.2870980000000003
0
LINE
8
BLACK
6
CONTINUOUS
10
149.9818229999999915
20
-95.2870980000000003
11
149.9821429999999793
21
-95.2915709999999905
0
LINE
8
BLACK
6
CONTINUOUS
10
149.9821429999999793
20
-95.2915709999999905
11
149.9808349999999848
21
-95.2939640000000026
0
LINE
8
BLACK
6
CONTINUOUS
10
149.9808349999999848
20
-95.2939640000000026
11
149.9799370000000067
21
-95.3002169999999893
0
LINE
8
BLACK
6
CONTINUOUS
10
149.9799370000000067
20
-95.3002169999999893
11
149.9632079999999803
21
-95.3262459999999976
0
LINE
8
BLACK
6
CONTINUOUS
10
149.9632079999999803
20
-95.3262459999999976
11
149.9483879999999942
21
-95.3533889999999928
0
LINE
8
BLACK
6
CONTINUOUS
10
149.9483879999999942
20
-95.3533889999999928
11
146.9044979999999896
21
-98.397278
0
LINE
8
BLACK
6
CONTINUOUS
10
146.9044979999999896
20
-98.397278
11
146.9637919999999838
21
-98.4345349999999968
0
LINE
8
BLACK
6
CONTINUOUS
10
146.9637919999999838
20
-98.4345349999999968
11
147.0904649999999947
21
-98.5612079999999935
0
LINE
8
BLACK
6
CONTINUOUS
10
147.0904649999999947
20
-98.5612079999999935
11
147.1857750000000067
21
-98.712892999999994
0
LINE
8
BLACK
6
CONTINUOUS
10
147.1857750000000067
20
-98.712892999999994
11
147.2449419999999805
21
-98.8819829999999911
0
LINE
8
BLACK
6
CONTINUOUS
10
147.2449419999999805
20
-98.8819829999999911
11
147.2509159999999895
21
-98.9350000000000023
0
LINE
8
BLACK
6
CONTINUOUS
10
147.2509159999999895
20
-98.9350000000000023
11
147.3199999999999932
21
-98.9350000000000023
0
LINE
8
BLACK
6
CONTINUOUS
10
147.3199999999999932
20
-98.9350000000000023
11
147.3420930000000055
21
-98.9381759999999986
0
LINE
8
BLACK
6
CONTINUOUS
10
147.3420930000000055
20
-98.9381759999999986
11
147.3465709999999831
21
-98.9378559999999965
0
LINE
8
BLACK
6
CONTINUOUS
10
147.3465709999999831
20
-98.9378559999999965
11
147.3489669999999876
21
-98.939163999999991
0
LINE
8
BLACK
6
CONTINUOUS
10
147.3489669999999876
20
-98.939163999999991
11
147.3552169999999819
21
-98.940062999999995
0
LINE
8
BLACK
6
CONTINUOUS
10
147.3552169999999819
20
-98.940062999999995
11
147.381243999999981
21
-98.956789999999998
0
LINE
8
BLACK
6
CONTINUOUS
10
147.381243999999981
20
-98.956789999999998
11
147.4083880000000022
21
-98.9716119999999933
0
LINE
8
BLACK
6
CONTINUOUS
10
147.4083880000000022
20
-98.9716119999999933
11
149.9483879999999942
21
-101.511611000000002
0
LINE
8
BLACK
6
CONTINUOUS
10
149.9483879999999942
20
-101.511611000000002
11
149.9617649999999855
21
-101.5294809999999899
0
LINE
8
BLACK
6
CONTINUOUS
10
149.9617649999999855
20
-101.5294809999999899
11
149.9651570000000049
21
-101.5324200000000019
0
LINE
8
BLACK
6
CONTINUOUS
10
149.9651570000000049
20
-101.5324200000000019
11
149.9659259999999961
21
-101.5350389999999976
0
LINE
8
BLACK
6
CONTINUOUS
10
149.9659259999999961
20
-101.5350389999999976
11
149.9697099999999921
21
-101.5400939999999963
0
LINE
8
BLACK
6
CONTINUOUS
10
149.9697099999999921
20
-101.5400939999999963
11
149.9762849999999901
21
-101.5703219999999902
0
LINE
8
BLACK
6
CONTINUOUS
10
149.9762849999999901
20
-101.5703219999999902
11
149.9849999999999852
21
-101.5999999999999943
0
LINE
8
BLACK
6
CONTINUOUS
10
149.9849999999999852
20
-101.5999999999999943
11
149.9849999999999852
21
-104.0882229999999993
0
LINE
8
BLACK
6
CONTINUOUS
10
149.9849999999999852
20
-104.0882229999999993
11
152.4883879999999863
21
-106.5916110000000003
0
LINE
8
BLACK
6
CONTINUOUS
10
152.4883879999999863
20
-106.5916110000000003
11
152.501765000000006
21
-106.6094809999999882
0
LINE
8
BLACK
6
CONTINUOUS
10
152.501765000000006
20
-106.6094809999999882
11
152.505156999999997
21
-106.6124200000000002
0
LINE
8
BLACK
6
CONTINUOUS
10
152.505156999999997
20
-106.6124200000000002
11
152.5059259999999881
21
-106.6150389999999959
0
LINE
8
BLACK
6
CONTINUOUS
10
152.5059259999999881
20
-106.6150389999999959
11
152.5097099999999841
21
-106.6200939999999946
0
LINE
8
BLACK
6
CONTINUOUS
10
152.5097099999999841
20
-106.6200939999999946
11
152.5162849999999821
21
-106.6503219999999885
0
LINE
8
BLACK
6
CONTINUOUS
10
152.5162849999999821
20
-106.6503219999999885
11
152.5250000000000057
21
-106.6799999999999926
0
LINE
8
BLACK
6
CONTINUOUS
10
152.5250000000000057
20
-106.6799999999999926
11
152.5250000000000057
21
-111.7082240000000013
0
LINE
8
BLACK
6
CONTINUOUS
10
152.5250000000000057
20
-111.7082240000000013
11
157.0119770000000017
21
-116.1952009999999973
0
LINE
8
BLACK
6
CONTINUOUS
10
157.0119770000000017
20
-116.1952009999999973
11
157.1328929999999957
21
-116.1192250000000001
0
LINE
8
BLACK
6
CONTINUOUS
10
157.1328929999999957
20
-116.1192250000000001
11
157.301983000000007
21
-116.0600579999999979
0
LINE
8
BLACK
6
CONTINUOUS
10
157.301983000000007
20
-116.0600579999999979
11
157.4799999999999898
21
-116.039999999999992
0
LINE
8
BLACK
6
CONTINUOUS
10
157.4799999999999898
20
-116.039999999999992
11
157.658017000000001
21
-116.0600579999999979
0
LINE
8
BLACK
6
CONTINUOUS
10
157.658017000000001
20
-116.0600579999999979
11
157.8271069999999838
21
-116.1192250000000001
0
LINE
8
BLACK
6
CONTINUOUS
10
157.8271069999999838
20
-116.1192250000000001
11
157.9787919999999986
21
-116.2145349999999979
0
LINE
8
BLACK
6
CONTINUOUS
10
157.9787919999999986
20
-116.2145349999999979
11
158.105464999999981
21
-116.3412079999999946
0
LINE
8
BLACK
6
CONTINUOUS
10
158.105464999999981
20
-116.3412079999999946
11
158.200774999999993
21
-116.4928929999999951
0
LINE
8
BLACK
6
CONTINUOUS
10
158.200774999999993
20
-116.4928929999999951
11
158.2599419999999952
21
-116.6619829999999922
0
LINE
8
BLACK
6
CONTINUOUS
10
158.2599419999999952
20
-116.6619829999999922
11
158.2800000000000011
21
-116.8399999999999892
0
LINE
8
BLACK
6
CONTINUOUS
10
158.2800000000000011
20
-116.8399999999999892
11
158.2599419999999952
21
-117.0180170000000004
0
LINE
8
BLACK
6
CONTINUOUS
10
158.2599419999999952
20
-117.0180170000000004
11
158.200774999999993
21
-117.1871069999999975
0
LINE
8
BLACK
6
CONTINUOUS
10
158.200774999999993
20
-117.1871069999999975
11
158.105464999999981
21
-117.338791999999998
0
LINE
8
BLACK
6
CONTINUOUS
10
158.105464999999981
20
-117.338791999999998
11
157.9787919999999986
21
-117.4654649999999947
0
LINE
8
BLACK
6
CONTINUOUS
10
157.9787919999999986
20
-117.4654649999999947
11
157.8271069999999838
21
-117.5607749999999925
0
LINE
8
BLACK
6
CONTINUOUS
10
157.8271069999999838
20
-117.5607749999999925
11
157.658017000000001
21
-117.6199419999999947
0
LINE
8
BLACK
6
CONTINUOUS
10
157.658017000000001
20
-117.6199419999999947
11
157.4799999999999898
21
-117.6400000000000006
0
LINE
8
BLACK
6
CONTINUOUS
10
157.4799999999999898
20
-117.6400000000000006
11
157.301983000000007
21
-117.6199419999999947
0
LINE
8
BLACK
6
CONTINUOUS
10
157.301983000000007
20
-117.6199419999999947
11
157.1328929999999957
21
-117.5607749999999925
0
LINE
8
BLACK
6
CONTINUOUS
10
157.1328929999999957
20
-117.5607749999999925
11
156.981207999999981
21
-117.4654649999999947
0
LINE
8
BLACK
6
CONTINUOUS
10
156.981207999999981
20
-117.4654649999999947
11
156.8545349999999985
21
-117.338791999999998
0
LINE
8
BLACK
6
CONTINUOUS
10
156.8545349999999985
20
-117.338791999999998
11
156.7592249999999865
21
-117.1871069999999975
0
LINE
8
BLACK
6
CONTINUOUS
10
156.7592249999999865
20
-117.1871069999999975
11
156.7000579999999843
21
-117.0180170000000004
0
LINE
8
BLACK
6
CONTINUOUS
10
156.7000579999999843
20
-117.0180170000000004
11
156.6800000000000068
21
-116.8399999999999892
0
LINE
8
BLACK
6
CONTINUOUS
10
156.6800000000000068
20
-116.8399999999999892
11
156.7000579999999843
21
-116.6619829999999922
0
LINE
8
BLACK
6
CONTINUOUS
10
156.7000579999999843
20
-116.6619829999999922
11
156.7592249999999865
21
-116.4928929999999951
0
LINE
8
BLACK
6
CONTINUOUS
10
156.7592249999999865
20
-116.4928929999999951
11
156.8352009999999837
21
-116.3719770000000011
0
LINE
8
BLACK
6
CONTINUOUS
10
156.8352009999999837
20
-116.3719770000000011
11
152.3116119999999967
21
-111.8483879999999999
0
LINE
8
BLACK
6
CONTINUOUS
10
152.3116119999999967
20
-111.8483879999999999
11
152.2982350000000054
21
-111.8305189999999953
0
LINE
8
BLACK
6
CONTINUOUS
10
152.2982350000000054
20
-111.8305189999999953
11
152.294842999999986
21
-111.8275799999999975
0
LINE
8
BLACK
6
CONTINUOUS
10
152.294842999999986
20
-111.8275799999999975
11
152.2940729999999974
21
-111.8249599999999901
0
LINE
8
BLACK
6
CONTINUOUS
10
152.2940729999999974
20
-111.8249599999999901
11
152.2902899999999988
21
-111.8199059999999889
0
LINE
8
BLACK
6
CONTINUOUS
10
152.2902899999999988
20
-111.8199059999999889
11
152.2837140000000034
21
-111.7896769999999975
0
LINE
8
BLACK
6
CONTINUOUS
10
152.2837140000000034
20
-111.7896769999999975
11
152.2750000000000057
21
-111.7599999999999909
0
LINE
8
BLACK
6
CONTINUOUS
10
152.2750000000000057
20
-111.7599999999999909
11
152.2750000000000057
21
-106.7317759999999964
0
LINE
8
BLACK
6
CONTINUOUS
10
152.2750000000000057
20
-106.7317759999999964
11
149.7716120000000046
21
-104.2283879999999954
0
LINE
8
BLACK
6
CONTINUOUS
10
149.7716120000000046
20
-104.2283879999999954
11
149.7582349999999849
21
-104.2105189999999908
0
LINE
8
BLACK
6
CONTINUOUS
10
149.7582349999999849
20
-104.2105189999999908
11
149.7548429999999939
21
-104.207579999999993
0
LINE
8
BLACK
6
CONTINUOUS
10
149.7548429999999939
20
-104.207579999999993
11
149.7540730000000053
21
-104.2049599999999998
0
LINE
8
BLACK
6
CONTINUOUS
10
149.7540730000000053
20
-104.2049599999999998
11
149.7502900000000068
21
-104.1999059999999986
0
LINE
8
BLACK
6
CONTINUOUS
10
149.7502900000000068
20
-104.1999059999999986
11
149.7437139999999829
21
-104.169676999999993
0
LINE
8
BLACK
6
CONTINUOUS
10
149.7437139999999829
20
-104.169676999999993
11
149.7349999999999852
21
-104.1400000000000006
0
LINE
8
BLACK
6
CONTINUOUS
10
149.7349999999999852
20
-104.1400000000000006
11
149.7349999999999852
21
-101.6517759999999981
0
LINE
8
BLACK
6
CONTINUOUS
10
149.7349999999999852
20
-101.6517759999999981
11
147.2682240000000036
21
-99.1850000000000023
0
LINE
8
BLACK
6
CONTINUOUS
10
147.2682240000000036
20
-99.1850000000000023
11
147.2509159999999895
21
-99.1850000000000023
0
LINE
8
BLACK
6
CONTINUOUS
10
147.2509159999999895
20
-99.1850000000000023
11
147.2449419999999805
21
-99.2380169999999993
0
LINE
8
BLACK
6
CONTINUOUS
10
147.2449419999999805
20
-99.2380169999999993
11
147.1857750000000067
21
-99.4071069999999963
0
LINE
8
BLACK
6
CONTINUOUS
10
147.1857750000000067
20
-99.4071069999999963
11
147.0904649999999947
21
-99.5587919999999968
0
LINE
8
BLACK
6
CONTINUOUS
10
147.0904649999999947
20
-99.5587919999999968
11
146.9637919999999838
21
-99.6854649999999936
0
LINE
8
BLACK
6
CONTINUOUS
10
146.9637919999999838
20
-99.6854649999999936
11
146.8121069999999975
21
-99.7807749999999913
0
LINE
8
BLACK
6
CONTINUOUS
10
146.8121069999999975
20
-99.7807749999999913
11
146.6430169999999862
21
-99.8399419999999935
0
LINE
8
BLACK
6
CONTINUOUS
10
146.6430169999999862
20
-99.8399419999999935
11
146.4650000000000034
21
-99.8599999999999994
0
LINE
8
BLACK
6
CONTINUOUS
10
146.4650000000000034
20
-99.8599999999999994
11
145.664999999999992
21
-99.8599999999999994
0
LINE
8
BLACK
6
CONTINUOUS
10
145.664999999999992
20
-99.8599999999999994
11
145.4869829999999808
21
-99.8399419999999935
0
LINE
8
BLACK
6
CONTINUOUS
10
145.4869829999999808
20
-99.8399419999999935
11
145.317892999999998
21
-99.7807749999999913
0
LINE
8
BLACK
6
CONTINUOUS
10
145.317892999999998
20
-99.7807749999999913
11
145.1662079999999833
21
-99.6854649999999936
0
LINE
8
BLACK
6
CONTINUOUS
10
145.1662079999999833
20
-99.6854649999999936
11
145.0395350000000008
21
-99.5587919999999968
0
LINE
8
BLACK
6
CONTINUOUS
10
145.0395350000000008
20
-99.5587919999999968
11
144.9442249999999888
21
-99.4071069999999963
0
LINE
8
BLACK
6
CONTINUOUS
10
144.9442249999999888
20
-99.4071069999999963
11
144.8850579999999866
21
-99.2380169999999993
0
LINE
8
BLACK
6
CONTINUOUS
10
144.8850579999999866
20
-99.2380169999999993
11
144.8649999999999807
21
-99.0600000000000023
0
LINE
8
BLACK
6
CONTINUOUS
10
144.8649999999999807
20
-99.0600000000000023
11
144.8850579999999866
21
-98.8819829999999911
0
LINE
8
BLACK
6
CONTINUOUS
10
144.8850579999999866
20
-98.8819829999999911
11
144.9442249999999888
21
-98.712892999999994
0
LINE
8
BLACK
6
CONTINUOUS
10
144.9442249999999888
20
-98.712892999999994
11
145.0395350000000008
21
-98.5612079999999935
0
LINE
8
BLACK
6
CONTINUOUS
10
145.0395350000000008
20
-98.5612079999999935
11
145.1662079999999833
21
-98.4345349999999968
0
LINE
8
BLACK
6
CONTINUOUS
10
145.1662079999999833
20
-98.4345349999999968
11
145.317892999999998
21
-98.339224999999999
0
LINE
8
BLACK
6
CONTINUOUS
10
145.317892999999998
20
-98.339224999999999
11
145.4869829999999808
21
-98.2800579999999968
0
LINE
8
BLACK
6
CONTINUOUS
10
145.4869829999999808
20
-98.2800579999999968
11
145.664999999999992
21
-98.2599999999999909
0
LINE
8
BLACK
6
CONTINUOUS
10
145.664999999999992
20
-98.2599999999999909
11
146.4650000000000034
21
-98.2599999999999909
0
LINE
8
BLACK
6
CONTINUOUS
10
146.4650000000000034
20
-98.2599999999999909
11
146.6430169999999862
21
-98.2800579999999968
0
LINE
8
BLACK
6
CONTINUOUS
10
146.6430169999999862
20
-98.2800579999999968
11
146.6616459999999904
21
-98.2865759999999966
0
LINE
8
BLACK
6
CONTINUOUS
10
146.6616459999999904
20
-98.2865759999999966
11
149.7349999999999852
21
-95.2132229999999993
0
LINE
8
BLACK
6
CONTINUOUS
10
149.7349999999999852
20
-95.2132229999999993
11
149.7349999999999852
21
-89.6859149999999943
0
LINE
8
BLACK
6
CONTINUOUS
10
149.7349999999999852
20
-89.6859149999999943
11
149.6819830000000024
21
-89.6799419999999969
0
LINE
8
BLACK
6
CONTINUOUS
10
149.6819830000000024
20
-89.6799419999999969
11
149.5128929999999912
21
-89.6207749999999947
0
LINE
8
BLACK
6
CONTINUOUS
10
149.5128929999999912
20
-89.6207749999999947
11
149.3612080000000049
21
-89.525464999999997
0
LINE
8
BLACK
6
CONTINUOUS
10
149.3612080000000049
20
-89.525464999999997
11
149.2345349999999939
21
-89.3987920000000003
0
LINE
8
BLACK
6
CONTINUOUS
10
149.2345349999999939
20
-89.3987920000000003
11
149.1392249999999819
21
-89.2471069999999997
0
LINE
8
BLACK
6
CONTINUOUS
10
149.1392249999999819
20
-89.2471069999999997
11
149.0800579999999798
21
-89.0780170000000027
0
LINE
8
BLACK
6
CONTINUOUS
10
149.0800579999999798
20
-89.0780170000000027
11
149.0600000000000023
21
-88.8999999999999915
0
LINE
8
BLACK
6
CONTINUOUS
10
149.0600000000000023
20
-88.8999999999999915
11
149.0800579999999798
21
-88.7219829999999945
0
LINE
8
BLACK
6
CONTINUOUS
10
149.0800579999999798
20
-88.7219829999999945
11
149.1392249999999819
21
-88.5528929999999974
0
LINE
8
BLACK
6
CONTINUOUS
10
149.1392249999999819
20
-88.5528929999999974
11
149.2345349999999939
21
-88.4012079999999969
0
LINE
8
BLACK
6
CONTINUOUS
10
149.2345349999999939
20
-88.4012079999999969
11
149.3612080000000049
21
-88.2745350000000002
0
LINE
8
BLACK
6
CONTINUOUS
10
149.3612080000000049
20
-88.2745350000000002
11
149.5128929999999912
21
-88.1792250000000024
0
LINE
8
BLACK
6
CONTINUOUS
10
149.5128929999999912
20
-88.1792250000000024
11
149.6819830000000024
21
-88.1200580000000002
0
LINE
8
BLACK
6
CONTINUOUS
10
149.6819830000000024
20
-88.1200580000000002
11
149.8599999999999852
21
-88.0999999999999943
0
LINE
8
BLACK
6
CONTINUOUS
10
149.8599999999999852
20
-88.0999999999999943
11
150.0380169999999964
21
-88.1200580000000002
0
LINE
8
BLACK
6
CONTINUOUS
10
132.2580169999999953
20
-108.0400580000000019
11
132.4271070000000066
21
-108.0992249999999899
0
LINE
8
BLACK
6
CONTINUOUS
10
132.4271070000000066
20
-108.0992249999999899
11
132.5787919999999929
21
-108.1945350000000019
0
LINE
8
BLACK
6
CONTINUOUS
10
132.5787919999999929
20
-108.1945350000000019
11
132.7054650000000038
21
-108.3212079999999986
0
LINE
8
BLACK
6
CONTINUOUS
10
132.7054650000000038
20
-108.3212079999999986
11
132.8007749999999874
21
-108.4728929999999991
0
LINE
8
BLACK
6
CONTINUOUS
10
132.8007749999999874
20
-108.4728929999999991
11
132.8599419999999895
21
-108.6419829999999962
0
LINE
8
BLACK
6
CONTINUOUS
10
132.8599419999999895
20
-108.6419829999999962
11
132.8799999999999955
21
-108.8199999999999932
0
LINE
8
BLACK
6
CONTINUOUS
10
132.8799999999999955
20
-108.8199999999999932
11
132.8799999999999955
21
-109.6199999999999903
0
LINE
8
BLACK
6
CONTINUOUS
10
132.8799999999999955
20
-109.6199999999999903
11
132.8599419999999895
21
-109.7980170000000015
0
LINE
8
BLACK
6
CONTINUOUS
10
132.8599419999999895
20
-109.7980170000000015
11
132.8007749999999874
21
-109.9671069999999986
0
LINE
8
BLACK
6
CONTINUOUS
10
132.8007749999999874
20
-109.9671069999999986
11
132.7054650000000038
21
-110.1187919999999991
0
LINE
8
BLACK
6
CONTINUOUS
10
132.7054650000000038
20
-110.1187919999999991
11
132.5787919999999929
21
-110.2454649999999958
0
LINE
8
BLACK
6
CONTINUOUS
10
132.5787919999999929
20
-110.2454649999999958
11
132.4271070000000066
21
-110.3407749999999936
0
LINE
8
BLACK
6
CONTINUOUS
10
132.4271070000000066
20
-110.3407749999999936
11
132.2580169999999953
21
-110.3999419999999958
0
LINE
8
BLACK
6
CONTINUOUS
10
132.2580169999999953
20
-110.3999419999999958
11
132.0799999999999841
21
-110.4200000000000017
0
LINE
8
BLACK
6
CONTINUOUS
10
132.0799999999999841
20
-110.4200000000000017
11
131.9019830000000013
21
-110.3999419999999958
0
LINE
8
BLACK
6
CONTINUOUS
10
131.9019830000000013
20
-110.3999419999999958
11
131.73289299999999
21
-110.3407749999999936
0
LINE
8
BLACK
6
CONTINUOUS
10
131.73289299999999
20
-110.3407749999999936
11
131.5812080000000037
21
-110.2454649999999958
0
LINE
8
BLACK
6
CONTINUOUS
10
131.5812080000000037
20
-110.2454649999999958
11
131.4545349999999928
21
-110.1187919999999991
0
LINE
8
BLACK
6
CONTINUOUS
10
131.4545349999999928
20
-110.1187919999999991
11
131.3592249999999808
21
-109.9671069999999986
0
LINE
8
BLACK
6
CONTINUOUS
10
131.3592249999999808
20
-109.9671069999999986
11
131.300058000000007
21
-109.7980170000000015
0
LINE
8
BLACK
6
CONTINUOUS
10
131.300058000000007
20
-109.7980170000000015
11
131.2800000000000011
21
-109.6199999999999903
0
LINE
8
BLACK
6
CONTINUOUS
10
131.2800000000000011
20
-109.6199999999999903
11
131.2800000000000011
21
-108.8199999999999932
0
LINE
8
BLACK
6
CONTINUOUS
10
131.2800000000000011
20
-108.8199999999999932
11
131.300058000000007
21
-108.6419829999999962
0
LINE
8
BLACK
6
CONTINUOUS
10
131.300058000000007
20
-108.6419829999999962
11
131.3592249999999808
21
-108.4728929999999991
0
LINE
8
BLACK
6
CONTINUOUS
10
131.3592249999999808
20
-108.4728929999999991
11
131.4545349999999928
21
-108.3212079999999986
0
LINE
8
BLACK
6
CONTINUOUS
10
131.4545349999999928
20
-108.3212079999999986
11
131.5812080000000037
21
-108.1945350000000019
0
LINE
8
BLACK
6
CONTINUOUS
10
131.5812080000000037
20
-108.1945350000000019
11
131.73289299999999
21
-108.0992249999999899
0
LINE
8
BLACK
6
CONTINUOUS
10
131.73289299999999
20
-108.0992249999999899
11
131.9019830000000013
21
-108.0400580000000019
0
LINE
8
BLACK
6
CONTINUOUS
10
131.9019830000000013
20
-108.0400580000000019
11
132.0799999999999841
21
-108.019999999999996
0
LINE
8
BLACK
6
CONTINUOUS
10
132.0799999999999841
20
-108.019999999999996
11
132.2580169999999953
21
-108.0400580000000019
0
LINE
8
BLACK
6
CONTINUOUS
10
139.0230169999999816
20
-100.8200579999999889
11
139.1921069999999929
21
-100.879224999999991
0
LINE
8
BLACK
6
CONTINUOUS
10
139.1921069999999929
20
-100.879224999999991
11
139.3437920000000076
21
-100.9745349999999888
0
LINE
8
BLACK
6
CONTINUOUS
10
139.3437920000000076
20
-100.9745349999999888
11
139.4704649999999901
21
-101.1012079999999997
0
LINE
8
BLACK
6
CONTINUOUS
10
139.4704649999999901
20
-101.1012079999999997
11
139.5657750000000021
21
-101.2528930000000003
0
LINE
8
BLACK
6
CONTINUOUS
10
139.5657750000000021
20
-101.2528930000000003
11
139.6249420000000043
21
-101.4219829999999973
0
LINE
8
BLACK
6
CONTINUOUS
10
139.6249420000000043
20
-101.4219829999999973
11
139.6449999999999818
21
-101.5999999999999943
0
LINE
8
BLACK
6
CONTINUOUS
10
139.6449999999999818
20
-101.5999999999999943
11
139.6249420000000043
21
-101.7780169999999913
0
LINE
8
BLACK
6
CONTINUOUS
10
139.6249420000000043
20
-101.7780169999999913
11
139.5657750000000021
21
-101.9471069999999884
0
LINE
8
BLACK
6
CONTINUOUS
10
139.5657750000000021
20
-101.9471069999999884
11
139.4704649999999901
21
-102.0987919999999889
0
LINE
8
BLACK
6
CONTINUOUS
10
139.4704649999999901
20
-102.0987919999999889
11
139.3437920000000076
21
-102.2254649999999998
0
LINE
8
BLACK
6
CONTINUOUS
10
139.3437920000000076
20
-102.2254649999999998
11
139.1921069999999929
21
-102.3207749999999976
0
LINE
8
BLACK
6
CONTINUOUS
10
139.1921069999999929
20
-102.3207749999999976
11
139.0230169999999816
21
-102.3799419999999998
0
LINE
8
BLACK
6
CONTINUOUS
10
139.0230169999999816
20
-102.3799419999999998
11
138.8449999999999989
21
-102.3999999999999915
0
LINE
8
BLACK
6
CONTINUOUS
10
138.8449999999999989
20
-102.3999999999999915
11
138.0449999999999875
21
-102.3999999999999915
0
LINE
8
BLACK
6
CONTINUOUS
10
138.0449999999999875
20
-102.3999999999999915
11
137.8669830000000047
21
-102.3799419999999998
0
LINE
8
BLACK
6
CONTINUOUS
10
137.8669830000000047
20
-102.3799419999999998
11
137.6978929999999934
21
-102.3207749999999976
0
LINE
8
BLACK
6
CONTINUOUS
10
137.6978929999999934
20
-102.3207749999999976
11
137.5462080000000071
21
-102.2254649999999998
0
LINE
8
BLACK
6
CONTINUOUS
10
137.5462080000000071
20
-102.2254649999999998
11
137.4195349999999962
21
-102.0987919999999889
0
LINE
8
BLACK
6
CONTINUOUS
10
137.4195349999999962
20
-102.0987919999999889
11
137.3242249999999842
21
-101.9471069999999884
0
LINE
8
BLACK
6
CONTINUOUS
10
137.3242249999999842
20
-101.9471069999999884
11
137.265057999999982
21
-101.7780169999999913
0
LINE
8
BLACK
6
CONTINUOUS
10
137.265057999999982
20
-101.7780169999999913
11
137.2590840000000014
21
-101.7249999999999943
0
LINE
8
BLACK
6
CONTINUOUS
10
137.2590840000000014
20
-101.7249999999999943
11
137.2117769999999837
21
-101.7249999999999943
0
LINE
8
BLACK
6
CONTINUOUS
10
137.2117769999999837
20
-101.7249999999999943
11
134.7450000000000045
21
-104.1917759999999902
0
LINE
8
BLACK
6
CONTINUOUS
10
134.7450000000000045
20
-104.1917759999999902
11
134.7450000000000045
21
-108.0340839999999929
0
LINE
8
BLACK
6
CONTINUOUS
10
134.7450000000000045
20
-108.0340839999999929
11
134.7980169999999873
21
-108.0400580000000019
0
LINE
8
BLACK
6
CONTINUOUS
10
134.7980169999999873
20
-108.0400580000000019
11
134.9671069999999986
21
-108.0992249999999899
0
LINE
8
BLACK
6
CONTINUOUS
10
134.9671069999999986
20
-108.0992249999999899
11
135.1187919999999849
21
-108.1945350000000019
0
LINE
8
BLACK
6
CONTINUOUS
10
135.1187919999999849
20
-108.1945350000000019
11
135.2454649999999958
21
-108.3212079999999986
0
LINE
8
BLACK
6
CONTINUOUS
10
135.2454649999999958
20
-108.3212079999999986
11
135.3407750000000078
21
-108.4728929999999991
0
LINE
8
BLACK
6
CONTINUOUS
10
135.3407750000000078
20
-108.4728929999999991
11
135.3999419999999816
21
-108.6419829999999962
0
LINE
8
BLACK
6
CONTINUOUS
10
135.3999419999999816
20
-108.6419829999999962
11
135.4199999999999875
21
-108.8199999999999932
0
LINE
8
BLACK
6
CONTINUOUS
10
135.4199999999999875
20
-108.8199999999999932
11
135.4199999999999875
21
-109.6199999999999903
0
LINE
8
BLACK
6
CONTINUOUS
10
135.4199999999999875
20
-109.6199999999999903
11
135.3999419999999816
21
-109.7980170000000015
0
LINE
8
BLACK
6
CONTINUOUS
10
135.3999419999999816
20
-109.7980170000000015
11
135.3407750000000078
21
-109.9671069999999986
0
LINE
8
BLACK
6
CONTINUOUS
10
135.3407750000000078
20
-109.9671069999999986
11
135.2454649999999958
21
-110.1187919999999991
0
LINE
8
BLACK
6
CONTINUOUS
10
135.2454649999999958
20
-110.1187919999999991
11
135.1187919999999849
21
-110.2454649999999958
0
LINE
8
BLACK
6
CONTINUOUS
10
135.1187919999999849
20
-110.2454649999999958
11
134.9671069999999986
21
-110.3407749999999936
0
LINE
8
BLACK
6
CONTINUOUS
10
134.9671069999999986
20
-110.3407749999999936
11
134.7980169999999873
21
-110.3999419999999958
0
LINE
8
BLACK
6
CONTINUOUS
10
134.7980169999999873
20
-110.3999419999999958
11
134.6200000000000045
21
-110.4200000000000017
0
LINE
8
BLACK
6
CONTINUOUS
10
134.6200000000000045
20
-110.4200000000000017
11
134.4419829999999934
21
-110.3999419999999958
0
LINE
8
BLACK
6
CONTINUOUS
10
134.4419829999999934
20
-110.3999419999999958
11
134.2728929999999821
21
-110.3407749999999936
0
LINE
8
BLACK
6
CONTINUOUS
10
134.2728929999999821
20
-110.3407749999999936
11
134.1212079999999958
21
-110.2454649999999958
0
LINE
8
BLACK
6
CONTINUOUS
10
134.1212079999999958
20
-110.2454649999999958
11
133.9945349999999848
21
-110.1187919999999991
0
LINE
8
BLACK
6
CONTINUOUS
10
133.9945349999999848
20
-110.1187919999999991
11
133.8992250000000013
21
-109.9671069999999986
0
LINE
8
BLACK
6
CONTINUOUS
10
133.8992250000000013
20
-109.9671069999999986
11
133.8400579999999991
21
-109.7980170000000015
0
LINE
8
BLACK
6
CONTINUOUS
10
133.8400579999999991
20
-109.7980170000000015
11
133.8199999999999932
21
-109.6199999999999903
0
LINE
8
BLACK
6
CONTINUOUS
10
133.8199999999999932
20
-109.6199999999999903
11
133.8199999999999932
21
-108.8199999999999932
0
LINE
8
BLACK
6
CONTINUOUS
10
133.8199999999999932
20
-108.8199999999999932
11
133.8400579999999991
21
-108.6419829999999962
0
LINE
8
BLACK
6
CONTINUOUS
10
133.8400579999999991
20
-108.6419829999999962
11
133.8992250000000013
21
-108.4728929999999991
0
LINE
8
BLACK
6
CONTINUOUS
10
133.8992250000000013
20
-108.4728929999999991
11
133.9945349999999848
21
-108.3212079999999986
0
LINE
8
BLACK
6
CONTINUOUS
10
133.9945349999999848
20
-108.3212079999999986
11
134.1212079999999958
21
-108.1945350000000019
0
LINE
8
BLACK
6
CONTINUOUS
10
134.1212079999999958
20
-108.1945350000000019
11
134.2728929999999821
21
-108.0992249999999899
0
LINE
8
BLACK
6
CONTINUOUS
10
134.2728929999999821
20
-108.0992249999999899
11
134.4419829999999934
21
-108.0400580000000019
0
LINE
8
BLACK
6
CONTINUOUS
10
134.4419829999999934
20
-108.0400580000000019
11
134.4950000000000045
21
-108.0340839999999929
0
LINE
8
BLACK
6
CONTINUOUS
10
134.4950000000000045
20
-108.0340839999999929
11
134.4950000000000045
21
-104.1400000000000006
0
LINE
8
BLACK
6
CONTINUOUS
10
134.4950000000000045
20
-104.1400000000000006
11
134.4981760000000008
21
-104.1179059999999907
0
LINE
8
BLACK
6
CONTINUOUS
10
134.4981760000000008
20
-104.1179059999999907
11
134.4978559999999845
21
-104.1134289999999964
0
LINE
8
BLACK
6
CONTINUOUS
10
134.4978559999999845
20
-104.1134289999999964
11
134.4991640000000075
21
-104.1110319999999945
0
LINE
8
BLACK
6
CONTINUOUS
10
134.4991640000000075
20
-104.1110319999999945
11
134.500062999999983
21
-104.1047829999999976
0
LINE
8
BLACK
6
CONTINUOUS
10
134.500062999999983
20
-104.1047829999999976
11
134.5167899999999861
21
-104.078755000000001
0
LINE
8
BLACK
6
CONTINUOUS
10
134.5167899999999861
20
-104.078755000000001
11
134.5316119999999955
21
-104.0516119999999916
0
LINE
8
BLACK
6
CONTINUOUS
10
134.5316119999999955
20
-104.0516119999999916
11
137.0716109999999901
21
-101.5116119999999995
0
LINE
8
BLACK
6
CONTINUOUS
10
137.0716109999999901
20
-101.5116119999999995
11
137.0894810000000064
21
-101.4982339999999965
0
LINE
8
BLACK
6
CONTINUOUS
10
137.0894810000000064
20
-101.4982339999999965
11
137.0924200000000042
21
-101.4948429999999888
0
LINE
8
BLACK
6
CONTINUOUS
10
137.0924200000000042
20
-101.4948429999999888
11
137.0950389999999857
21
-101.4940730000000002
0
LINE
8
BLACK
6
CONTINUOUS
10
137.0950389999999857
20
-101.4940730000000002
11
137.1000939999999844
21
-101.4902900000000017
0
LINE
8
BLACK
6
CONTINUOUS
10
137.1000939999999844
20
-101.4902900000000017
11
137.1303220000000067
21
-101.483713999999992
0
LINE
8
BLACK
6
CONTINUOUS
10
137.1303220000000067
20
-101.483713999999992
11
137.1599999999999966
21
-101.4749999999999943
0
LINE
8
BLACK
6
CONTINUOUS
10
137.1599999999999966
20
-101.4749999999999943
11
137.2590840000000014
21
-101.4749999999999943
0
LINE
8
BLACK
6
CONTINUOUS
10
137.2590840000000014
20
-101.4749999999999943
11
137.265057999999982
21
-101.4219829999999973
0
LINE
8
BLACK
6
CONTINUOUS
10
137.265057999999982
20
-101.4219829999999973
11
137.3242249999999842
21
-101.2528930000000003
0
LINE
8
BLACK
6
CONTINUOUS
10
137.3242249999999842
20
-101.2528930000000003
11
137.4195349999999962
21
-101.1012079999999997
0
LINE
8
BLACK
6
CONTINUOUS
10
137.4195349999999962
20
-101.1012079999999997
11
137.5462080000000071
21
-100.9745349999999888
0
LINE
8
BLACK
6
CONTINUOUS
10
137.5462080000000071
20
-100.9745349999999888
11
137.6978929999999934
21
-100.879224999999991
0
LINE
8
BLACK
6
CONTINUOUS
10
137.6978929999999934
20
-100.879224999999991
11
137.8669830000000047
21
-100.8200579999999889
0
LINE
8
BLACK
6
CONTINUOUS
10
137.8669830000000047
20
-100.8200579999999889
11
138.0449999999999875
21
-100.7999999999999972
0
LINE
8
BLACK
6
CONTINUOUS
10
138.0449999999999875
20
-100.7999999999999972
11
138.8449999999999989
21
-100.7999999999999972
0
LINE
8
BLACK
6
CONTINUOUS
10
138.8449999999999989
20
-100.7999999999999972
11
139.0230169999999816
21
-100.8200579999999889
0
LINE
8
BLACK
6
CONTINUOUS
10
137.3380170000000078
20
-108.0400580000000019
11
137.5071069999999906
21
-108.0992249999999899
0
LINE
8
BLACK
6
CONTINUOUS
10
137.5071069999999906
20
-108.0992249999999899
11
137.6587920000000054
21
-108.1945350000000019
0
LINE
8
BLACK
6
CONTINUOUS
10
137.6587920000000054
20
-108.1945350000000019
11
137.7854649999999879
21
-108.3212079999999986
0
LINE
8
BLACK
6
CONTINUOUS
10
137.7854649999999879
20
-108.3212079999999986
11
137.8807749999999999
21
-108.4728929999999991
0
LINE
8
BLACK
6
CONTINUOUS
10
137.8807749999999999
20
-108.4728929999999991
11
137.9399420000000021
21
-108.6419829999999962
0
LINE
8
BLACK
6
CONTINUOUS
10
137.9399420000000021
20
-108.6419829999999962
11
137.960000000000008
21
-108.8199999999999932
0
LINE
8
BLACK
6
CONTINUOUS
10
137.960000000000008
20
-108.8199999999999932
11
137.960000000000008
21
-109.6199999999999903
0
LINE
8
BLACK
6
CONTINUOUS
10
137.960000000000008
20
-109.6199999999999903
11
137.9399420000000021
21
-109.7980170000000015
0
LINE
8
BLACK
6
CONTINUOUS
10
137.9399420000000021
20
-109.7980170000000015
11
137.8807749999999999
21
-109.9671069999999986
0
LINE
8
BLACK
6
CONTINUOUS
10
137.8807749999999999
20
-109.9671069999999986
11
137.7854649999999879
21
-110.1187919999999991
0
LINE
8
BLACK
6
CONTINUOUS
10
137.7854649999999879
20
-110.1187919999999991
11
137.6587920000000054
21
-110.2454649999999958
0
LINE
8
BLACK
6
CONTINUOUS
10
137.6587920000000054
20
-110.2454649999999958
11
137.5071069999999906
21
-110.3407749999999936
0
LINE
8
BLACK
6
CONTINUOUS
10
137.5071069999999906
20
-110.3407749999999936
11
137.3380170000000078
21
-110.3999419999999958
0
LINE
8
BLACK
6
CONTINUOUS
10
137.3380170000000078
20
-110.3999419999999958
11
137.1599999999999966
21
-110.4200000000000017
0
LINE
8
BLACK
6
CONTINUOUS
10
137.1599999999999966
20
-110.4200000000000017
11
136.9819829999999854
21
-110.3999419999999958
0
LINE
8
BLACK
6
CONTINUOUS
10
136.9819829999999854
20
-110.3999419999999958
11
136.8128930000000025
21
-110.3407749999999936
0
LINE
8
BLACK
6
CONTINUOUS
10
136.8128930000000025
20
-110.3407749999999936
11
136.6612079999999878
21
-110.2454649999999958
0
LINE
8
BLACK
6
CONTINUOUS
10
136.6612079999999878
20
-110.2454649999999958
11
136.5345350000000053
21
-110.1187919999999991
0
LINE
8
BLACK
6
CONTINUOUS
10
136.5345350000000053
20
-110.1187919999999991
11
136.4392249999999933
21
-109.9671069999999986
0
LINE
8
BLACK
6
CONTINUOUS
10
136.4392249999999933
20
-109.9671069999999986
11
136.3800579999999911
21
-109.7980170000000015
0
LINE
8
BLACK
6
CONTINUOUS
10
136.3800579999999911
20
-109.7980170000000015
11
136.3599999999999852
21
-109.6199999999999903
0
LINE
8
BLACK
6
CONTINUOUS
10
136.3599999999999852
20
-109.6199999999999903
11
136.3599999999999852
21
-108.8199999999999932
0
LINE
8
BLACK
6
CONTINUOUS
10
136.3599999999999852
20
-108.8199999999999932
11
136.3800579999999911
21
-108.6419829999999962
0
LINE
8
BLACK
6
CONTINUOUS
10
136.3800579999999911
20
-108.6419829999999962
11
136.4392249999999933
21
-108.4728929999999991
0
LINE
8
BLACK
6
CONTINUOUS
10
136.4392249999999933
20
-108.4728929999999991
11
136.5345350000000053
21
-108.3212079999999986
0
LINE
8
BLACK
6
CONTINUOUS
10
136.5345350000000053
20
-108.3212079999999986
11
136.6612079999999878
21
-108.1945350000000019
0
LINE
8
BLACK
6
CONTINUOUS
10
136.6612079999999878
20
-108.1945350000000019
11
136.8128930000000025
21
-108.0992249999999899
0
LINE
8
BLACK
6
CONTINUOUS
10
136.8128930000000025
20
-108.0992249999999899
11
136.9819829999999854
21
-108.0400580000000019
0
LINE
8
BLACK
6
CONTINUOUS
10
136.9819829999999854
20
-108.0400580000000019
11
137.1599999999999966
21
-108.019999999999996
0
LINE
8
BLACK
6
CONTINUOUS
10
137.1599999999999966
20
-108.019999999999996
11
137.3380170000000078
21
-108.0400580000000019
0
LINE
8
BLACK
6
CONTINUOUS
10
139.8780169999999998
20
-108.0400580000000019
11
140.0471069999999827
21
-108.0992249999999899
0
LINE
8
BLACK
6
CONTINUOUS
10
140.0471069999999827
20
-108.0992249999999899
11
140.1987919999999974
21
-108.1945350000000019
0
LINE
8
BLACK
6
CONTINUOUS
10
140.1987919999999974
20
-108.1945350000000019
11
140.3254649999999799
21
-108.3212079999999986
0
LINE
8
BLACK
6
CONTINUOUS
10
140.3254649999999799
20
-108.3212079999999986
11
140.4207749999999919
21
-108.4728929999999991
0
LINE
8
BLACK
6
CONTINUOUS
10
140.4207749999999919
20
-108.4728929999999991
11
140.4799419999999941
21
-108.6419829999999962
0
LINE
8
BLACK
6
CONTINUOUS
10
140.4799419999999941
20
-108.6419829999999962
11
140.5
21
-108.8199999999999932
0
LINE
8
BLACK
6
CONTINUOUS
10
140.5
20
-108.8199999999999932
11
140.5
21
-109.6199999999999903
0
LINE
8
BLACK
6
CONTINUOUS
10
140.5
20
-109.6199999999999903
11
140.4799419999999941
21
-109.7980170000000015
0
LINE
8
BLACK
6
CONTINUOUS
10
140.4799419999999941
20
-109.7980170000000015
11
140.4207749999999919
21
-109.9671069999999986
0
LINE
8
BLACK
6
CONTINUOUS
10
140.4207749999999919
20
-109.9671069999999986
11
140.3254649999999799
21
-110.1187919999999991
0
LINE
8
BLACK
6
CONTINUOUS
10
140.3254649999999799
20
-110.1187919999999991
11
140.1987919999999974
21
-110.2454649999999958
0
LINE
8
BLACK
6
CONTINUOUS
10
140.1987919999999974
20
-110.2454649999999958
11
140.0471069999999827
21
-110.3407749999999936
0
LINE
8
BLACK
6
CONTINUOUS
10
140.0471069999999827
20
-110.3407749999999936
11
139.8780169999999998
21
-110.3999419999999958
0
LINE
8
BLACK
6
CONTINUOUS
10
139.8780169999999998
20
-110.3999419999999958
11
139.6999999999999886
21
-110.4200000000000017
0
LINE
8
BLACK
6
CONTINUOUS
10
139.6999999999999886
20
-110.4200000000000017
11
139.5219830000000059
21
-110.3999419999999958
0
LINE
8
BLACK
6
CONTINUOUS
10
139.5219830000000059
20
-110.3999419999999958
11
139.3528929999999946
21
-110.3407749999999936
0
LINE
8
BLACK
6
CONTINUOUS
10
139.3528929999999946
20
-110.3407749999999936
11
139.2012079999999798
21
-110.2454649999999958
0
LINE
8
BLACK
6
CONTINUOUS
10
139.2012079999999798
20
-110.2454649999999958
11
139.0745349999999974
21
-110.1187919999999991
0
LINE
8
BLACK
6
CONTINUOUS
10
139.0745349999999974
20
-110.1187919999999991
11
138.9792249999999854
21
-109.9671069999999986
0
LINE
8
BLACK
6
CONTINUOUS
10
138.9792249999999854
20
-109.9671069999999986
11
138.9200579999999832
21
-109.7980170000000015
0
LINE
8
BLACK
6
CONTINUOUS
10
138.9200579999999832
20
-109.7980170000000015
11
138.9000000000000057
21
-109.6199999999999903
0
LINE
8
BLACK
6
CONTINUOUS
10
138.9000000000000057
20
-109.6199999999999903
11
138.9000000000000057
21
-108.8199999999999932
0
LINE
8
BLACK
6
CONTINUOUS
10
138.9000000000000057
20
-108.8199999999999932
11
138.9200579999999832
21
-108.6419829999999962
0
LINE
8
BLACK
6
CONTINUOUS
10
138.9200579999999832
20
-108.6419829999999962
11
138.9792249999999854
21
-108.4728929999999991
0
LINE
8
BLACK
6
CONTINUOUS
10
138.9792249999999854
20
-108.4728929999999991
11
139.0745349999999974
21
-108.3212079999999986
0
LINE
8
BLACK
6
CONTINUOUS
10
139.0745349999999974
20
-108.3212079999999986
11
139.2012079999999798
21
-108.1945350000000019
0
LINE
8
BLACK
6
CONTINUOUS
10
139.2012079999999798
20
-108.1945350000000019
11
139.3528929999999946
21
-108.0992249999999899
0
LINE
8
BLACK
6
CONTINUOUS
10
139.3528929999999946
20
-108.0992249999999899
11
139.5219830000000059
21
-108.0400580000000019
0
LINE
8
BLACK
6
CONTINUOUS
10
139.5219830000000059
20
-108.0400580000000019
11
139.6999999999999886
21
-108.019999999999996
0
LINE
8
BLACK
6
CONTINUOUS
10
139.6999999999999886
20
-108.019999999999996
11
139.8780169999999998
21
-108.0400580000000019
0
LINE
8
BLACK
6
CONTINUOUS
10
150.0380169999999964
20
-108.5600579999999979
11
150.2071069999999793
21
-108.6192250000000001
0
LINE
8
BLACK
6
CONTINUOUS
10
150.2071069999999793
20
-108.6192250000000001
11
150.358791999999994
21
-108.7145349999999979
0
LINE
8
BLACK
6
CONTINUOUS
10
150.358791999999994
20
-108.7145349999999979
11
150.4854650000000049
21
-108.8412079999999946
0
LINE
8
BLACK
6
CONTINUOUS
10
150.4854650000000049
20
-108.8412079999999946
11
150.5807749999999885
21
-108.9928929999999951
0
LINE
8
BLACK
6
CONTINUOUS
10
150.5807749999999885
20
-108.9928929999999951
11
150.6399419999999907
21
-109.1619829999999922
0
LINE
8
BLACK
6
CONTINUOUS
10
150.6399419999999907
20
-109.1619829999999922
11
150.6599999999999966
21
-109.3399999999999892
0
LINE
8
BLACK
6
CONTINUOUS
10
150.6599999999999966
20
-109.3399999999999892
11
150.6399419999999907
21
-109.5180170000000004
0
LINE
8
BLACK
6
CONTINUOUS
10
150.6399419999999907
20
-109.5180170000000004
11
150.5807749999999885
21
-109.6871069999999975
0
LINE
8
BLACK
6
CONTINUOUS
10
150.5807749999999885
20
-109.6871069999999975
11
150.4854650000000049
21
-109.838791999999998
0
LINE
8
BLACK
6
CONTINUOUS
10
150.4854650000000049
20
-109.838791999999998
11
150.358791999999994
21
-109.9654649999999947
0
LINE
8
BLACK
6
CONTINUOUS
10
150.358791999999994
20
-109.9654649999999947
11
150.2071069999999793
21
-110.0607749999999925
0
LINE
8
BLACK
6
CONTINUOUS
10
150.2071069999999793
20
-110.0607749999999925
11
150.0380169999999964
21
-110.1199419999999947
0
LINE
8
BLACK
6
CONTINUOUS
10
150.0380169999999964
20
-110.1199419999999947
11
149.8599999999999852
21
-110.1400000000000006
0
LINE
8
BLACK
6
CONTINUOUS
10
149.8599999999999852
20
-110.1400000000000006
11
149.6819830000000024
21
-110.1199419999999947
0
LINE
8
BLACK
6
CONTINUOUS
10
149.6819830000000024
20
-110.1199419999999947
11
149.5128929999999912
21
-110.0607749999999925
0
LINE
8
BLACK
6
CONTINUOUS
10
149.5128929999999912
20
-110.0607749999999925
11
149.3612080000000049
21
-109.9654649999999947
0
LINE
8
BLACK
6
CONTINUOUS
10
149.3612080000000049
20
-109.9654649999999947
11
149.2345349999999939
21
-109.838791999999998
0
LINE
8
BLACK
6
CONTINUOUS
10
149.2345349999999939
20
-109.838791999999998
11
149.1392249999999819
21
-109.6871069999999975
0
LINE
8
BLACK
6
CONTINUOUS
10
149.1392249999999819
20
-109.6871069999999975
11
149.0800579999999798
21
-109.5180170000000004
0
LINE
8
BLACK
6
CONTINUOUS
10
149.0800579999999798
20
-109.5180170000000004
11
149.0600000000000023
21
-109.3399999999999892
0
LINE
8
BLACK
6
CONTINUOUS
10
149.0600000000000023
20
-109.3399999999999892
11
149.0800579999999798
21
-109.1619829999999922
0
LINE
8
BLACK
6
CONTINUOUS
10
149.0800579999999798
20
-109.1619829999999922
11
149.1392249999999819
21
-108.9928929999999951
0
LINE
8
BLACK
6
CONTINUOUS
10
149.1392249999999819
20
-108.9928929999999951
11
149.2345349999999939
21
-108.8412079999999946
0
LINE
8
BLACK
6
CONTINUOUS
10
149.2345349999999939
20
-108.8412079999999946
11
149.3612080000000049
21
-108.7145349999999979
0
LINE
8
BLACK
6
CONTINUOUS
10
149.3612080000000049
20
-108.7145349999999979
11
149.5128929999999912
21
-108.6192250000000001
0
LINE
8
BLACK
6
CONTINUOUS
10
149.5128929999999912
20
-108.6192250000000001
11
149.6819830000000024
21
-108.5600579999999979
0
LINE
8
BLACK
6
CONTINUOUS
10
149.6819830000000024
20
-108.5600579999999979
11
149.8599999999999852
21
-108.539999999999992
0
LINE
8
BLACK
6
CONTINUOUS
10
149.8599999999999852
20
-108.539999999999992
11
150.0380169999999964
21
-108.5600579999999979
0
LINE
8
BLACK
6
CONTINUOUS
10
157.658017000000001
20
-108.4400579999999934
11
157.8271069999999838
21
-108.4992249999999956
0
LINE
8
BLACK
6
CONTINUOUS
10
157.8271069999999838
20
-108.4992249999999956
11
157.9787919999999986
21
-108.5945349999999934
0
LINE
8
BLACK
6
CONTINUOUS
10
157.9787919999999986
20
-108.5945349999999934
11
158.105464999999981
21
-108.7212079999999901
0
LINE
8
BLACK
6
CONTINUOUS
10
158.105464999999981
20
-108.7212079999999901
11
158.200774999999993
21
-108.8728929999999906
0
LINE
8
BLACK
6
CONTINUOUS
10
158.200774999999993
20
-108.8728929999999906
11
158.2599419999999952
21
-109.0419830000000019
0
LINE
8
BLACK
6
CONTINUOUS
10
158.2599419999999952
20
-109.0419830000000019
11
158.2800000000000011
21
-109.2199999999999989
0
LINE
8
BLACK
6
CONTINUOUS
10
158.2800000000000011
20
-109.2199999999999989
11
158.2599419999999952
21
-109.3980169999999958
0
LINE
8
BLACK
6
CONTINUOUS
10
158.2599419999999952
20
-109.3980169999999958
11
158.200774999999993
21
-109.5671069999999929
0
LINE
8
BLACK
6
CONTINUOUS
10
158.200774999999993
20
-109.5671069999999929
11
158.105464999999981
21
-109.7187919999999934
0
LINE
8
BLACK
6
CONTINUOUS
10
158.105464999999981
20
-109.7187919999999934
11
157.9787919999999986
21
-109.8454649999999901
0
LINE
8
BLACK
6
CONTINUOUS
10
157.9787919999999986
20
-109.8454649999999901
11
157.8271069999999838
21
-109.9407749999999879
0
LINE
8
BLACK
6
CONTINUOUS
10
157.8271069999999838
20
-109.9407749999999879
11
157.658017000000001
21
-109.9999419999999901
0
LINE
8
BLACK
6
CONTINUOUS
10
157.658017000000001
20
-109.9999419999999901
11
157.4799999999999898
21
-110.019999999999996
0
LINE
8
BLACK
6
CONTINUOUS
10
157.4799999999999898
20
-110.019999999999996
11
157.301983000000007
21
-109.9999419999999901
0
LINE
8
BLACK
6
CONTINUOUS
10
157.301983000000007
20
-109.9999419999999901
11
157.1328929999999957
21
-109.9407749999999879
0
LINE
8
BLACK
6
CONTINUOUS
10
157.1328929999999957
20
-109.9407749999999879
11
156.981207999999981
21
-109.8454649999999901
0
LINE
8
BLACK
6
CONTINUOUS
10
156.981207999999981
20
-109.8454649999999901
11
156.8545349999999985
21
-109.7187919999999934
0
LINE
8
BLACK
6
CONTINUOUS
10
156.8545349999999985
20
-109.7187919999999934
11
156.7592249999999865
21
-109.5671069999999929
0
LINE
8
BLACK
6
CONTINUOUS
10
156.7592249999999865
20
-109.5671069999999929
11
156.7000579999999843
21
-109.3980169999999958
0
LINE
8
BLACK
6
CONTINUOUS
10
156.7000579999999843
20
-109.3980169999999958
11
156.6800000000000068
21
-109.2199999999999989
0
LINE
8
BLACK
6
CONTINUOUS
10
156.6800000000000068
20
-109.2199999999999989
11
156.7000579999999843
21
-109.0419830000000019
0
LINE
8
BLACK
6
CONTINUOUS
10
156.7000579999999843
20
-109.0419830000000019
11
156.7592249999999865
21
-108.8728929999999906
0
LINE
8
BLACK
6
CONTINUOUS
10
156.7592249999999865
20
-108.8728929999999906
11
156.8545349999999985
21
-108.7212079999999901
0
LINE
8
BLACK
6
CONTINUOUS
10
156.8545349999999985
20
-108.7212079999999901
11
156.981207999999981
21
-108.5945349999999934
0
LINE
8
BLACK
6
CONTINUOUS
10
156.981207999999981
20
-108.5945349999999934
11
157.1328929999999957
21
-108.4992249999999956
0
LINE
8
BLACK
6
CONTINUOUS
10
157.1328929999999957
20
-108.4992249999999956
11
157.301983000000007
21
-108.4400579999999934
0
LINE
8
BLACK
6
CONTINUOUS
10
157.301983000000007
20
-108.4400579999999934
11
157.4799999999999898
21
-108.4200000000000017
0
LINE
8
BLACK
6
CONTINUOUS
10
157.4799999999999898
20
-108.4200000000000017
11
157.658017000000001
21
-108.4400579999999934
0
LINE
8
BLACK
6
CONTINUOUS
10
139.0230169999999816
20
-103.3600579999999951
11
139.1921069999999929
21
-103.4192249999999973
0
LINE
8
BLACK
6
CONTINUOUS
10
139.1921069999999929
20
-103.4192249999999973
11
139.3437920000000076
21
-103.5145349999999951
0
LINE
8
BLACK
6
CONTINUOUS
10
139.3437920000000076
20
-103.5145349999999951
11
139.4704649999999901
21
-103.6412079999999918
0
LINE
8
BLACK
6
CONTINUOUS
10
139.4704649999999901
20
-103.6412079999999918
11
139.5657750000000021
21
-103.7928929999999923
0
LINE
8
BLACK
6
CONTINUOUS
10
139.5657750000000021
20
-103.7928929999999923
11
139.6249420000000043
21
-103.9619829999999894
0
LINE
8
BLACK
6
CONTINUOUS
10
139.6249420000000043
20
-103.9619829999999894
11
139.6449999999999818
21
-104.1400000000000006
0
LINE
8
BLACK
6
CONTINUOUS
10
139.6449999999999818
20
-104.1400000000000006
11
139.6249420000000043
21
-104.3180169999999976
0
LINE
8
BLACK
6
CONTINUOUS
10
139.6249420000000043
20
-104.3180169999999976
11
139.5657750000000021
21
-104.4871069999999946
0
LINE
8
BLACK
6
CONTINUOUS
10
139.5657750000000021
20
-104.4871069999999946
11
139.4704649999999901
21
-104.6387919999999951
0
LINE
8
BLACK
6
CONTINUOUS
10
139.4704649999999901
20
-104.6387919999999951
11
139.3437920000000076
21
-104.7654649999999918
0
LINE
8
BLACK
6
CONTINUOUS
10
139.3437920000000076
20
-104.7654649999999918
11
139.1921069999999929
21
-104.8607749999999896
0
LINE
8
BLACK
6
CONTINUOUS
10
139.1921069999999929
20
-104.8607749999999896
11
139.0230169999999816
21
-104.9199419999999918
0
LINE
8
BLACK
6
CONTINUOUS
10
139.0230169999999816
20
-104.9199419999999918
11
138.8449999999999989
21
-104.9399999999999977
0
LINE
8
BLACK
6
CONTINUOUS
10
138.8449999999999989
20
-104.9399999999999977
11
138.0449999999999875
21
-104.9399999999999977
0
LINE
8
BLACK
6
CONTINUOUS
10
138.0449999999999875
20
-104.9399999999999977
11
137.8669830000000047
21
-104.9199419999999918
0
LINE
8
BLACK
6
CONTINUOUS
10
137.8669830000000047
20
-104.9199419999999918
11
137.6978929999999934
21
-104.8607749999999896
0
LINE
8
BLACK
6
CONTINUOUS
10
137.6978929999999934
20
-104.8607749999999896
11
137.5462080000000071
21
-104.7654649999999918
0
LINE
8
BLACK
6
CONTINUOUS
10
137.5462080000000071
20
-104.7654649999999918
11
137.4195349999999962
21
-104.6387919999999951
0
LINE
8
BLACK
6
CONTINUOUS
10
137.4195349999999962
20
-104.6387919999999951
11
137.3242249999999842
21
-104.4871069999999946
0
LINE
8
BLACK
6
CONTINUOUS
10
137.3242249999999842
20
-104.4871069999999946
11
137.265057999999982
21
-104.3180169999999976
0
LINE
8
BLACK
6
CONTINUOUS
10
137.265057999999982
20
-104.3180169999999976
11
137.2450000000000045
21
-104.1400000000000006
0
LINE
8
BLACK
6
CONTINUOUS
10
137.2450000000000045
20
-104.1400000000000006
11
137.265057999999982
21
-103.9619829999999894
0
LINE
8
BLACK
6
CONTINUOUS
10
137.265057999999982
20
-103.9619829999999894
11
137.3242249999999842
21
-103.7928929999999923
0
LINE
8
BLACK
6
CONTINUOUS
10
137.3242249999999842
20
-103.7928929999999923
11
137.4195349999999962
21
-103.6412079999999918
0
LINE
8
BLACK
6
CONTINUOUS
10
137.4195349999999962
20
-103.6412079999999918
11
137.5462080000000071
21
-103.5145349999999951
0
LINE
8
BLACK
6
CONTINUOUS
10
137.5462080000000071
20
-103.5145349999999951
11
137.6978929999999934
21
-103.4192249999999973
0
LINE
8
BLACK
6
CONTINUOUS
10
137.6978929999999934
20
-103.4192249999999973
11
137.8669830000000047
21
-103.3600579999999951
0
LINE
8
BLACK
6
CONTINUOUS
10
137.8669830000000047
20
-103.3600579999999951
11
138.0449999999999875
21
-103.3399999999999892
0
LINE
8
BLACK
6
CONTINUOUS
10
138.0449999999999875
20
-103.3399999999999892
11
138.8449999999999989
21
-103.3399999999999892
0
LINE
8
BLACK
6
CONTINUOUS
10
138.8449999999999989
20
-103.3399999999999892
11
139.0230169999999816
21
-103.3600579999999951
0
LINE
8
BLACK
6
CONTINUOUS
10
147.2649999999999864
20
-104.9399999999999977
11
144.8649999999999807
21
-104.9399999999999977
0
LINE
8
BLACK
6
CONTINUOUS
10
144.8649999999999807
20
-104.9399999999999977
11
144.8649999999999807
21
-103.3399999999999892
0
LINE
8
BLACK
6
CONTINUOUS
10
144.8649999999999807
20
-103.3399999999999892
11
147.2649999999999864
21
-103.3399999999999892
0
LINE
8
BLACK
6
CONTINUOUS
10
147.2649999999999864
20
-103.3399999999999892
11
147.2649999999999864
21
-104.9399999999999977
0
LINE
8
BLACK
6
CONTINUOUS
10
152.5780169999999885
20
-103.3600579999999951
11
152.7471069999999997
21
-103.4192249999999973
0
LINE
8
BLACK
6
CONTINUOUS
10
152.7471069999999997
20
-103.4192249999999973
11
152.898791999999986
21
-103.5145349999999951
0
LINE
8
BLACK
6
CONTINUOUS
10
152.898791999999986
20
-103.5145349999999951
11
153.025464999999997
21
-103.6412079999999918
0
LINE
8
BLACK
6
CONTINUOUS
10
153.025464999999997
20
-103.6412079999999918
11
153.1207749999999805
21
-103.7928929999999923
0
LINE
8
BLACK
6
CONTINUOUS
10
153.1207749999999805
20
-103.7928929999999923
11
153.1799419999999827
21
-103.9619829999999894
0
LINE
8
BLACK
6
CONTINUOUS
10
153.1799419999999827
20
-103.9619829999999894
11
153.1999999999999886
21
-104.1400000000000006
0
LINE
8
BLACK
6
CONTINUOUS
10
153.1999999999999886
20
-104.1400000000000006
11
153.1799419999999827
21
-104.3180169999999976
0
LINE
8
BLACK
6
CONTINUOUS
10
153.1799419999999827
20
-104.3180169999999976
11
153.1207749999999805
21
-104.4871069999999946
0
LINE
8
BLACK
6
CONTINUOUS
10
153.1207749999999805
20
-104.4871069999999946
11
153.025464999999997
21
-104.6387919999999951
0
LINE
8
BLACK
6
CONTINUOUS
10
153.025464999999997
20
-104.6387919999999951
11
152.898791999999986
21
-104.7654649999999918
0
LINE
8
BLACK
6
CONTINUOUS
10
152.898791999999986
20
-104.7654649999999918
11
152.7471069999999997
21
-104.8607749999999896
0
LINE
8
BLACK
6
CONTINUOUS
10
152.7471069999999997
20
-104.8607749999999896
11
152.5780169999999885
21
-104.9199419999999918
0
LINE
8
BLACK
6
CONTINUOUS
10
152.5780169999999885
20
-104.9199419999999918
11
152.4000000000000057
21
-104.9399999999999977
0
LINE
8
BLACK
6
CONTINUOUS
10
152.4000000000000057
20
-104.9399999999999977
11
152.2219829999999945
21
-104.9199419999999918
0
LINE
8
BLACK
6
CONTINUOUS
10
152.2219829999999945
20
-104.9199419999999918
11
152.0528929999999832
21
-104.8607749999999896
0
LINE
8
BLACK
6
CONTINUOUS
10
152.0528929999999832
20
-104.8607749999999896
11
151.9012079999999969
21
-104.7654649999999918
0
LINE
8
BLACK
6
CONTINUOUS
10
151.9012079999999969
20
-104.7654649999999918
11
151.774534999999986
21
-104.6387919999999951
0
LINE
8
BLACK
6
CONTINUOUS
10
151.774534999999986
20
-104.6387919999999951
11
151.6792250000000024
21
-104.4871069999999946
0
LINE
8
BLACK
6
CONTINUOUS
10
151.6792250000000024
20
-104.4871069999999946
11
151.6200580000000002
21
-104.3180169999999976
0
LINE
8
BLACK
6
CONTINUOUS
10
151.6200580000000002
20
-104.3180169999999976
11
151.5999999999999943
21
-104.1400000000000006
0
LINE
8
BLACK
6
CONTINUOUS
10
151.5999999999999943
20
-104.1400000000000006
11
151.6200580000000002
21
-103.9619829999999894
0
LINE
8
BLACK
6
CONTINUOUS
10
151.6200580000000002
20
-103.9619829999999894
11
151.6792250000000024
21
-103.7928929999999923
0
LINE
8
BLACK
6
CONTINUOUS
10
151.6792250000000024
20
-103.7928929999999923
11
151.774534999999986
21
-103.6412079999999918
0
LINE
8
BLACK
6
CONTINUOUS
10
151.774534999999986
20
-103.6412079999999918
11
151.9012079999999969
21
-103.5145349999999951
0
LINE
8
BLACK
6
CONTINUOUS
10
151.9012079999999969
20
-103.5145349999999951
11
152.0528929999999832
21
-103.4192249999999973
0
LINE
8
BLACK
6
CONTINUOUS
10
152.0528929999999832
20
-103.4192249999999973
11
152.2219829999999945
21
-103.3600579999999951
0
LINE
8
BLACK
6
CONTINUOUS
10
152.2219829999999945
20
-103.3600579999999951
11
152.4000000000000057
21
-103.3399999999999892
0
LINE
8
BLACK
6
CONTINUOUS
10
152.4000000000000057
20
-103.3399999999999892
11
152.5780169999999885
21
-103.3600579999999951
0
LINE
8
BLACK
6
CONTINUOUS
10
160.198016999999993
20
-103.3600579999999951
11
160.3671070000000043
21
-103.4192249999999973
0
LINE
8
BLACK
6
CONTINUOUS
10
160.3671070000000043
20
-103.4192249999999973
11
160.5187919999999906
21
-103.5145349999999951
0
LINE
8
BLACK
6
CONTINUOUS
10
160.5187919999999906
20
-103.5145349999999951
11
160.6454650000000015
21
-103.6412079999999918
0
LINE
8
BLACK
6
CONTINUOUS
10
160.6454650000000015
20
-103.6412079999999918
11
160.7407749999999851
21
-103.7928929999999923
0
LINE
8
BLACK
6
CONTINUOUS
10
160.7407749999999851
20
-103.7928929999999923
11
160.7999419999999873
21
-103.9619829999999894
0
LINE
8
BLACK
6
CONTINUOUS
10
160.7999419999999873
20
-103.9619829999999894
11
160.8199999999999932
21
-104.1400000000000006
0
LINE
8
BLACK
6
CONTINUOUS
10
160.8199999999999932
20
-104.1400000000000006
11
160.7999419999999873
21
-104.3180169999999976
0
LINE
8
BLACK
6
CONTINUOUS
10
160.7999419999999873
20
-104.3180169999999976
11
160.7407749999999851
21
-104.4871069999999946
0
LINE
8
BLACK
6
CONTINUOUS
10
160.7407749999999851
20
-104.4871069999999946
11
160.6454650000000015
21
-104.6387919999999951
0
LINE
8
BLACK
6
CONTINUOUS
10
160.6454650000000015
20
-104.6387919999999951
11
160.5187919999999906
21
-104.7654649999999918
0
LINE
8
BLACK
6
CONTINUOUS
10
160.5187919999999906
20
-104.7654649999999918
11
160.3671070000000043
21
-104.8607749999999896
0
LINE
8
BLACK
6
CONTINUOUS
10
160.3671070000000043
20
-104.8607749999999896
11
160.198016999999993
21
-104.9199419999999918
0
LINE
8
BLACK
6
CONTINUOUS
10
160.198016999999993
20
-104.9199419999999918
11
160.0199999999999818
21
-104.9399999999999977
0
LINE
8
BLACK
6
CONTINUOUS
10
160.0199999999999818
20
-104.9399999999999977
11
159.841982999999999
21
-104.9199419999999918
0
LINE
8
BLACK
6
CONTINUOUS
10
159.841982999999999
20
-104.9199419999999918
11
159.6728929999999878
21
-104.8607749999999896
0
LINE
8
BLACK
6
CONTINUOUS
10
159.6728929999999878
20
-104.8607749999999896
11
159.5212080000000014
21
-104.7654649999999918
0
LINE
8
BLACK
6
CONTINUOUS
10
159.5212080000000014
20
-104.7654649999999918
11
159.3945349999999905
21
-104.6387919999999951
0
LINE
8
BLACK
6
CONTINUOUS
10
159.3945349999999905
20
-104.6387919999999951
11
159.299225000000007
21
-104.4871069999999946
0
LINE
8
BLACK
6
CONTINUOUS
10
159.299225000000007
20
-104.4871069999999946
11
159.2400580000000048
21
-104.3180169999999976
0
LINE
8
BLACK
6
CONTINUOUS
10
159.2400580000000048
20
-104.3180169999999976
11
159.2199999999999989
21
-104.1400000000000006
0
LINE
8
BLACK
6
CONTINUOUS
10
159.2199999999999989
20
-104.1400000000000006
11
159.2400580000000048
21
-103.9619829999999894
0
LINE
8
BLACK
6
CONTINUOUS
10
159.2400580000000048
20
-103.9619829999999894
11
159.299225000000007
21
-103.7928929999999923
0
LINE
8
BLACK
6
CONTINUOUS
10
159.299225000000007
20
-103.7928929999999923
11
159.3945349999999905
21
-103.6412079999999918
0
LINE
8
BLACK
6
CONTINUOUS
10
159.3945349999999905
20
-103.6412079999999918
11
159.5212080000000014
21
-103.5145349999999951
0
LINE
8
BLACK
6
CONTINUOUS
10
159.5212080000000014
20
-103.5145349999999951
11
159.6728929999999878
21
-103.4192249999999973
0
LINE
8
BLACK
6
CONTINUOUS
10
159.6728929999999878
20
-103.4192249999999973
11
159.841982999999999
21
-103.3600579999999951
0
LINE
8
BLACK
6
CONTINUOUS
10
159.841982999999999
20
-103.3600579999999951
11
160.0199999999999818
21
-103.3399999999999892
0
LINE
8
BLACK
6
CONTINUOUS
10
160.0199999999999818
20
-103.3399999999999892
11
160.198016999999993
21
-103.3600579999999951
0
LINE
8
BLACK
6
CONTINUOUS
10
132.9300000000000068
20
-102.4499999999999886
11
131.2299999999999898
21
-102.4499999999999886
0
LINE
8
BLACK
6
CONTINUOUS
10
131.2299999999999898
20
-102.4499999999999886
11
131.2299999999999898
21
-100.75
0
LINE
8
BLACK
6
CONTINUOUS
10
131.2299999999999898
20
-100.75
11
132.9300000000000068
21
-100.75
0
LINE
8
BLACK
6
CONTINUOUS
10
132.9300000000000068
20
-100.75
11
132.9300000000000068
21
-102.4499999999999886
0
LINE
8
BLACK
6
CONTINUOUS
10
146.6430169999999862
20
-100.8200579999999889
11
146.8121069999999975
21
-100.879224999999991
0
LINE
8
BLACK
6
CONTINUOUS
10
146.8121069999999975
20
-100.879224999999991
11
146.9637919999999838
21
-100.9745349999999888
0
LINE
8
BLACK
6
CONTINUOUS
10
146.9637919999999838
20
-100.9745349999999888
11
147.0904649999999947
21
-101.1012079999999997
0
LINE
8
BLACK
6
CONTINUOUS
10
147.0904649999999947
20
-101.1012079999999997
11
147.1857750000000067
21
-101.2528930000000003
0
LINE
8
BLACK
6
CONTINUOUS
10
147.1857750000000067
20
-101.2528930000000003
11
147.2449419999999805
21
-101.4219829999999973
0
LINE
8
BLACK
6
CONTINUOUS
10
147.2449419999999805
20
-101.4219829999999973
11
147.2649999999999864
21
-101.5999999999999943
0
LINE
8
BLACK
6
CONTINUOUS
10
147.2649999999999864
20
-101.5999999999999943
11
147.2449419999999805
21
-101.7780169999999913
0
LINE
8
BLACK
6
CONTINUOUS
10
147.2449419999999805
20
-101.7780169999999913
11
147.1857750000000067
21
-101.9471069999999884
0
LINE
8
BLACK
6
CONTINUOUS
10
147.1857750000000067
20
-101.9471069999999884
11
147.0904649999999947
21
-102.0987919999999889
0
LINE
8
BLACK
6
CONTINUOUS
10
147.0904649999999947
20
-102.0987919999999889
11
146.9637919999999838
21
-102.2254649999999998
0
LINE
8
BLACK
6
CONTINUOUS
10
146.9637919999999838
20
-102.2254649999999998
11
146.8121069999999975
21
-102.3207749999999976
0
LINE
8
BLACK
6
CONTINUOUS
10
146.8121069999999975
20
-102.3207749999999976
11
146.6430169999999862
21
-102.3799419999999998
0
LINE
8
BLACK
6
CONTINUOUS
10
146.6430169999999862
20
-102.3799419999999998
11
146.4650000000000034
21
-102.3999999999999915
0
LINE
8
BLACK
6
CONTINUOUS
10
146.4650000000000034
20
-102.3999999999999915
11
145.664999999999992
21
-102.3999999999999915
0
LINE
8
BLACK
6
CONTINUOUS
10
145.664999999999992
20
-102.3999999999999915
11
145.4869829999999808
21
-102.3799419999999998
0
LINE
8
BLACK
6
CONTINUOUS
10
145.4869829999999808
20
-102.3799419999999998
11
145.317892999999998
21
-102.3207749999999976
0
LINE
8
BLACK
6
CONTINUOUS
10
145.317892999999998
20
-102.3207749999999976
11
145.1662079999999833
21
-102.2254649999999998
0
LINE
8
BLACK
6
CONTINUOUS
10
145.1662079999999833
20
-102.2254649999999998
11
145.0395350000000008
21
-102.0987919999999889
0
LINE
8
BLACK
6
CONTINUOUS
10
145.0395350000000008
20
-102.0987919999999889
11
144.9442249999999888
21
-101.9471069999999884
0
LINE
8
BLACK
6
CONTINUOUS
10
144.9442249999999888
20
-101.9471069999999884
11
144.8850579999999866
21
-101.7780169999999913
0
LINE
8
BLACK
6
CONTINUOUS
10
144.8850579999999866
20
-101.7780169999999913
11
144.8649999999999807
21
-101.5999999999999943
0
LINE
8
BLACK
6
CONTINUOUS
10
144.8649999999999807
20
-101.5999999999999943
11
144.8850579999999866
21
-101.4219829999999973
0
LINE
8
BLACK
6
CONTINUOUS
10
144.8850579999999866
20
-101.4219829999999973
11
144.9442249999999888
21
-101.2528930000000003
0
LINE
8
BLACK
6
CONTINUOUS
10
144.9442249999999888
20
-101.2528930000000003
11
145.0395350000000008
21
-101.1012079999999997
0
LINE
8
BLACK
6
CONTINUOUS
10
145.0395350000000008
20
-101.1012079999999997
11
145.1662079999999833
21
-100.9745349999999888
0
LINE
8
BLACK
6
CONTINUOUS
10
145.1662079999999833
20
-100.9745349999999888
11
145.317892999999998
21
-100.879224999999991
0
LINE
8
BLACK
6
CONTINUOUS
10
145.317892999999998
20
-100.879224999999991
11
145.4869829999999808
21
-100.8200579999999889
0
LINE
8
BLACK
6
CONTINUOUS
10
145.4869829999999808
20
-100.8200579999999889
11
145.664999999999992
21
-100.7999999999999972
0
LINE
8
BLACK
6
CONTINUOUS
10
145.664999999999992
20
-100.7999999999999972
11
146.4650000000000034
21
-100.7999999999999972
0
LINE
8
BLACK
6
CONTINUOUS
10
146.4650000000000034
20
-100.7999999999999972
11
146.6430169999999862
21
-100.8200579999999889
0
LINE
8
BLACK
6
CONTINUOUS
10
139.0230169999999816
20
-98.2800579999999968
11
139.1921069999999929
21
-98.339224999999999
0
LINE
8
BLACK
6
CONTINUOUS
10
139.1921069999999929
20
-98.339224999999999
11
139.3437920000000076
21
-98.4345349999999968
0
LINE
8
BLACK
6
CONTINUOUS
10
139.3437920000000076
20
-98.4345349999999968
11
139.4704649999999901
21
-98.5612079999999935
0
LINE
8
BLACK
6
CONTINUOUS
10
139.4704649999999901
20
-98.5612079999999935
11
139.5657750000000021
21
-98.712892999999994
0
LINE
8
BLACK
6
CONTINUOUS
10
139.5657750000000021
20
-98.712892999999994
11
139.6249420000000043
21
-98.8819829999999911
0
LINE
8
BLACK
6
CONTINUOUS
10
139.6249420000000043
20
-98.8819829999999911
11
139.6449999999999818
21
-99.0600000000000023
0
LINE
8
BLACK
6
CONTINUOUS
10
139.6449999999999818
20
-99.0600000000000023
11
139.6249420000000043
21
-99.2380169999999993
0
LINE
8
BLACK
6
CONTINUOUS
10
139.6249420000000043
20
-99.2380169999999993
11
139.5657750000000021
21
-99.4071069999999963
0
LINE
8
BLACK
6
CONTINUOUS
10
139.5657750000000021
20
-99.4071069999999963
11
139.4704649999999901
21
-99.5587919999999968
0
LINE
8
BLACK
6
CONTINUOUS
10
139.4704649999999901
20
-99.5587919999999968
11
139.3437920000000076
21
-99.6854649999999936
0
LINE
8
BLACK
6
CONTINUOUS
10
139.3437920000000076
20
-99.6854649999999936
11
139.1921069999999929
21
-99.7807749999999913
0
LINE
8
BLACK
6
CONTINUOUS
10
139.1921069999999929
20
-99.7807749999999913
11
139.0230169999999816
21
-99.8399419999999935
0
LINE
8
BLACK
6
CONTINUOUS
10
139.0230169999999816
20
-99.8399419999999935
11
138.8449999999999989
21
-99.8599999999999994
0
LINE
8
BLACK
6
CONTINUOUS
10
138.8449999999999989
20
-99.8599999999999994
11
138.0449999999999875
21
-99.8599999999999994
0
LINE
8
BLACK
6
CONTINUOUS
10
138.0449999999999875
20
-99.8599999999999994
11
137.8669830000000047
21
-99.8399419999999935
0
LINE
8
BLACK
6
CONTINUOUS
10
137.8669830000000047
20
-99.8399419999999935
11
137.6978929999999934
21
-99.7807749999999913
0
LINE
8
BLACK
6
CONTINUOUS
10
137.6978929999999934
20
-99.7807749999999913
11
137.5462080000000071
21
-99.6854649999999936
0
LINE
8
BLACK
6
CONTINUOUS
10
137.5462080000000071
20
-99.6854649999999936
11
137.4195349999999962
21
-99.5587919999999968
0
LINE
8
BLACK
6
CONTINUOUS
10
137.4195349999999962
20
-99.5587919999999968
11
137.3242249999999842
21
-99.4071069999999963
0
LINE
8
BLACK
6
CONTINUOUS
10
137.3242249999999842
20
-99.4071069999999963
11
137.265057999999982
21
-99.2380169999999993
0
LINE
8
BLACK
6
CONTINUOUS
10
137.265057999999982
20
-99.2380169999999993
11
137.2450000000000045
21
-99.0600000000000023
0
LINE
8
BLACK
6
CONTINUOUS
10
137.2450000000000045
20
-99.0600000000000023
11
137.265057999999982
21
-98.8819829999999911
0
LINE
8
BLACK
6
CONTINUOUS
10
137.265057999999982
20
-98.8819829999999911
11
137.3242249999999842
21
-98.712892999999994
0
LINE
8
BLACK
6
CONTINUOUS
10
137.3242249999999842
20
-98.712892999999994
11
137.4195349999999962
21
-98.5612079999999935
0
LINE
8
BLACK
6
CONTINUOUS
10
137.4195349999999962
20
-98.5612079999999935
11
137.5462080000000071
21
-98.4345349999999968
0
LINE
8
BLACK
6
CONTINUOUS
10
137.5462080000000071
20
-98.4345349999999968
11
137.6978929999999934
21
-98.339224999999999
0
LINE
8
BLACK
6
CONTINUOUS
10
137.6978929999999934
20
-98.339224999999999
11
137.8669830000000047
21
-98.2800579999999968
0
LINE
8
BLACK
6
CONTINUOUS
10
137.8669830000000047
20
-98.2800579999999968
11
138.0449999999999875
21
-98.2599999999999909
0
LINE
8
BLACK
6
CONTINUOUS
10
138.0449999999999875
20
-98.2599999999999909
11
138.8449999999999989
21
-98.2599999999999909
0
LINE
8
BLACK
6
CONTINUOUS
10
138.8449999999999989
20
-98.2599999999999909
11
139.0230169999999816
21
-98.2800579999999968
0
LINE
8
BLACK
6
CONTINUOUS
10
132.342663999999985
20
-95.7116019999999992
11
132.5049999999999955
21
-95.7838780000000014
0
LINE
8
BLACK
6
CONTINUOUS
10
132.5049999999999955
20
-95.7838780000000014
11
132.6487610000000075
21
-95.8883269999999897
0
LINE
8
BLACK
6
CONTINUOUS
10
132.6487610000000075
20
-95.8883269999999897
11
132.7676639999999963
21
-96.0203829999999954
0
LINE
8
BLACK
6
CONTINUOUS
10
132.7676639999999963
20
-96.0203829999999954
11
132.8565140000000042
21
-96.1742739999999969
0
LINE
8
BLACK
6
CONTINUOUS
10
132.8565140000000042
20
-96.1742739999999969
11
132.9114249999999799
21
-96.3432749999999913
0
LINE
8
BLACK
6
CONTINUOUS
10
132.9114249999999799
20
-96.3432749999999913
11
132.9300000000000068
21
-96.519999999999996
0
LINE
8
BLACK
6
CONTINUOUS
10
132.9300000000000068
20
-96.519999999999996
11
132.9114249999999799
21
-96.6967250000000007
0
LINE
8
BLACK
6
CONTINUOUS
10
132.9114249999999799
20
-96.6967250000000007
11
132.8565140000000042
21
-96.8657259999999951
0
LINE
8
BLACK
6
CONTINUOUS
10
132.8565140000000042
20
-96.8657259999999951
11
132.7676639999999963
21
-97.0196169999999967
0
LINE
8
BLACK
6
CONTINUOUS
10
132.7676639999999963
20
-97.0196169999999967
11
132.6487610000000075
21
-97.1516730000000024
0
LINE
8
BLACK
6
CONTINUOUS
10
132.6487610000000075
20
-97.1516730000000024
11
132.5049999999999955
21
-97.2561219999999906
0
LINE
8
BLACK
6
CONTINUOUS
10
132.5049999999999955
20
-97.2561219999999906
11
132.342663999999985
21
-97.3283979999999929
0
LINE
8
BLACK
6
CONTINUOUS
10
132.342663999999985
20
-97.3283979999999929
11
132.1688489999999945
21
-97.3653439999999932
0
LINE
8
BLACK
6
CONTINUOUS
10
132.1688489999999945
20
-97.3653439999999932
11
131.9911510000000021
21
-97.3653439999999932
0
LINE
8
BLACK
6
CONTINUOUS
10
131.9911510000000021
20
-97.3653439999999932
11
131.8173359999999832
21
-97.3283979999999929
0
LINE
8
BLACK
6
CONTINUOUS
10
131.8173359999999832
20
-97.3283979999999929
11
131.6550000000000011
21
-97.2561219999999906
0
LINE
8
BLACK
6
CONTINUOUS
10
131.6550000000000011
20
-97.2561219999999906
11
131.5112389999999891
21
-97.1516730000000024
0
LINE
8
BLACK
6
CONTINUOUS
10
131.5112389999999891
20
-97.1516730000000024
11
131.3923360000000002
21
-97.0196169999999967
0
LINE
8
BLACK
6
CONTINUOUS
10
131.3923360000000002
20
-97.0196169999999967
11
131.3034859999999924
21
-96.8657259999999951
0
LINE
8
BLACK
6
CONTINUOUS
10
131.3034859999999924
20
-96.8657259999999951
11
131.2485749999999882
21
-96.6967250000000007
0
LINE
8
BLACK
6
CONTINUOUS
10
131.2485749999999882
20
-96.6967250000000007
11
131.2299999999999898
21
-96.519999999999996
0
LINE
8
BLACK
6
CONTINUOUS
10
131.2299999999999898
20
-96.519999999999996
11
131.2485749999999882
21
-96.3432749999999913
0
LINE
8
BLACK
6
CONTINUOUS
10
131.2485749999999882
20
-96.3432749999999913
11
131.3034859999999924
21
-96.1742739999999969
0
LINE
8
BLACK
6
CONTINUOUS
10
131.3034859999999924
20
-96.1742739999999969
11
131.3923360000000002
21
-96.0203829999999954
0
LINE
8
BLACK
6
CONTINUOUS
10
131.3923360000000002
20
-96.0203829999999954
11
131.5112389999999891
21
-95.8883269999999897
0
LINE
8
BLACK
6
CONTINUOUS
10
131.5112389999999891
20
-95.8883269999999897
11
131.6550000000000011
21
-95.7838780000000014
0
LINE
8
BLACK
6
CONTINUOUS
10
131.6550000000000011
20
-95.7838780000000014
11
131.8173359999999832
21
-95.7116019999999992
0
LINE
8
BLACK
6
CONTINUOUS
10
131.8173359999999832
20
-95.7116019999999992
11
131.9911510000000021
21
-95.6746559999999988
0
LINE
8
BLACK
6
CONTINUOUS
10
131.9911510000000021
20
-95.6746559999999988
11
132.1688489999999945
21
-95.6746559999999988
0
LINE
8
BLACK
6
CONTINUOUS
10
132.1688489999999945
20
-95.6746559999999988
11
132.342663999999985
21
-95.7116019999999992
0
LINE
8
BLACK
6
CONTINUOUS
10
139.0230169999999816
20
-95.7400579999999906
11
139.1921069999999929
21
-95.7992249999999927
0
LINE
8
BLACK
6
CONTINUOUS
10
139.1921069999999929
20
-95.7992249999999927
11
139.3437920000000076
21
-95.8945349999999905
0
LINE
8
BLACK
6
CONTINUOUS
10
139.3437920000000076
20
-95.8945349999999905
11
139.4704649999999901
21
-96.0212080000000014
0
LINE
8
BLACK
6
CONTINUOUS
10
139.4704649999999901
20
-96.0212080000000014
11
139.5657750000000021
21
-96.172893000000002
0
LINE
8
BLACK
6
CONTINUOUS
10
139.5657750000000021
20
-96.172893000000002
11
139.6249420000000043
21
-96.341982999999999
0
LINE
8
BLACK
6
CONTINUOUS
10
139.6249420000000043
20
-96.341982999999999
11
139.6449999999999818
21
-96.519999999999996
0
LINE
8
BLACK
6
CONTINUOUS
10
139.6449999999999818
20
-96.519999999999996
11
139.6249420000000043
21
-96.698016999999993
0
LINE
8
BLACK
6
CONTINUOUS
10
139.6249420000000043
20
-96.698016999999993
11
139.5657750000000021
21
-96.8671069999999901
0
LINE
8
BLACK
6
CONTINUOUS
10
139.5657750000000021
20
-96.8671069999999901
11
139.4704649999999901
21
-97.0187919999999906
0
LINE
8
BLACK
6
CONTINUOUS
10
139.4704649999999901
20
-97.0187919999999906
11
139.3437920000000076
21
-97.1454650000000015
0
LINE
8
BLACK
6
CONTINUOUS
10
139.3437920000000076
20
-97.1454650000000015
11
139.1921069999999929
21
-97.2407749999999993
0
LINE
8
BLACK
6
CONTINUOUS
10
139.1921069999999929
20
-97.2407749999999993
11
139.0230169999999816
21
-97.2999420000000015
0
LINE
8
BLACK
6
CONTINUOUS
10
139.0230169999999816
20
-97.2999420000000015
11
138.8449999999999989
21
-97.3199999999999932
0
LINE
8
BLACK
6
CONTINUOUS
10
138.8449999999999989
20
-97.3199999999999932
11
138.0449999999999875
21
-97.3199999999999932
0
LINE
8
BLACK
6
CONTINUOUS
10
138.0449999999999875
20
-97.3199999999999932
11
137.8669830000000047
21
-97.2999420000000015
0
LINE
8
BLACK
6
CONTINUOUS
10
137.8669830000000047
20
-97.2999420000000015
11
137.6978929999999934
21
-97.2407749999999993
0
LINE
8
BLACK
6
CONTINUOUS
10
137.6978929999999934
20
-97.2407749999999993
11
137.5462080000000071
21
-97.1454650000000015
0
LINE
8
BLACK
6
CONTINUOUS
10
137.5462080000000071
20
-97.1454650000000015
11
137.4195349999999962
21
-97.0187919999999906
0
LINE
8
BLACK
6
CONTINUOUS
10
137.4195349999999962
20
-97.0187919999999906
11
137.3242249999999842
21
-96.8671069999999901
0
LINE
8
BLACK
6
CONTINUOUS
10
137.3242249999999842
20
-96.8671069999999901
11
137.265057999999982
21
-96.698016999999993
0
LINE
8
BLACK
6
CONTINUOUS
10
137.265057999999982
20
-96.698016999999993
11
137.2450000000000045
21
-96.519999999999996
0
LINE
8
BLACK
6
CONTINUOUS
10
137.2450000000000045
20
-96.519999999999996
11
137.265057999999982
21
-96.341982999999999
0
LINE
8
BLACK
6
CONTINUOUS
10
137.265057999999982
20
-96.341982999999999
11
137.3242249999999842
21
-96.172893000000002
0
LINE
8
BLACK
6
CONTINUOUS
10
137.3242249999999842
20
-96.172893000000002
11
137.4195349999999962
21
-96.0212080000000014
0
LINE
8
BLACK
6
CONTINUOUS
10
137.4195349999999962
20
-96.0212080000000014
11
137.5462080000000071
21
-95.8945349999999905
0
LINE
8
BLACK
6
CONTINUOUS
10
137.5462080000000071
20
-95.8945349999999905
11
137.6978929999999934
21
-95.7992249999999927
0
LINE
8
BLACK
6
CONTINUOUS
10
137.6978929999999934
20
-95.7992249999999927
11
137.8669830000000047
21
-95.7400579999999906
0
LINE
8
BLACK
6
CONTINUOUS
10
137.8669830000000047
20
-95.7400579999999906
11
138.0449999999999875
21
-95.7199999999999989
0
LINE
8
BLACK
6
CONTINUOUS
10
138.0449999999999875
20
-95.7199999999999989
11
138.8449999999999989
21
-95.7199999999999989
0
LINE
8
BLACK
6
CONTINUOUS
10
138.8449999999999989
20
-95.7199999999999989
11
139.0230169999999816
21
-95.7400579999999906
0
LINE
8
BLACK
6
CONTINUOUS
10
152.5780169999999885
20
-95.7400579999999906
11
152.7471069999999997
21
-95.7992249999999927
0
LINE
8
BLACK
6
CONTINUOUS
10
152.7471069999999997
20
-95.7992249999999927
11
152.898791999999986
21
-95.8945349999999905
0
LINE
8
BLACK
6
CONTINUOUS
10
152.898791999999986
20
-95.8945349999999905
11
153.025464999999997
21
-96.0212080000000014
0
LINE
8
BLACK
6
CONTINUOUS
10
153.025464999999997
20
-96.0212080000000014
11
153.1207749999999805
21
-96.172893000000002
0
LINE
8
BLACK
6
CONTINUOUS
10
153.1207749999999805
20
-96.172893000000002
11
153.1799419999999827
21
-96.341982999999999
0
LINE
8
BLACK
6
CONTINUOUS
10
153.1799419999999827
20
-96.341982999999999
11
153.1999999999999886
21
-96.519999999999996
0
LINE
8
BLACK
6
CONTINUOUS
10
153.1999999999999886
20
-96.519999999999996
11
153.1799419999999827
21
-96.698016999999993
0
LINE
8
BLACK
6
CONTINUOUS
10
153.1799419999999827
20
-96.698016999999993
11
153.1207749999999805
21
-96.8671069999999901
0
LINE
8
BLACK
6
CONTINUOUS
10
153.1207749999999805
20
-96.8671069999999901
11
153.025464999999997
21
-97.0187919999999906
0
LINE
8
BLACK
6
CONTINUOUS
10
153.025464999999997
20
-97.0187919999999906
11
152.898791999999986
21
-97.1454650000000015
0
LINE
8
BLACK
6
CONTINUOUS
10
152.898791999999986
20
-97.1454650000000015
11
152.7471069999999997
21
-97.2407749999999993
0
LINE
8
BLACK
6
CONTINUOUS
10
152.7471069999999997
20
-97.2407749999999993
11
152.5780169999999885
21
-97.2999420000000015
0
LINE
8
BLACK
6
CONTINUOUS
10
152.5780169999999885
20
-97.2999420000000015
11
152.4000000000000057
21
-97.3199999999999932
0
LINE
8
BLACK
6
CONTINUOUS
10
152.4000000000000057
20
-97.3199999999999932
11
152.2219829999999945
21
-97.2999420000000015
0
LINE
8
BLACK
6
CONTINUOUS
10
152.2219829999999945
20
-97.2999420000000015
11
152.0528929999999832
21
-97.2407749999999993
0
LINE
8
BLACK
6
CONTINUOUS
10
152.0528929999999832
20
-97.2407749999999993
11
151.9012079999999969
21
-97.1454650000000015
0
LINE
8
BLACK
6
CONTINUOUS
10
151.9012079999999969
20
-97.1454650000000015
11
151.774534999999986
21
-97.0187919999999906
0
LINE
8
BLACK
6
CONTINUOUS
10
151.774534999999986
20
-97.0187919999999906
11
151.6792250000000024
21
-96.8671069999999901
0
LINE
8
BLACK
6
CONTINUOUS
10
151.6792250000000024
20
-96.8671069999999901
11
151.6200580000000002
21
-96.698016999999993
0
LINE
8
BLACK
6
CONTINUOUS
10
151.6200580000000002
20
-96.698016999999993
11
151.5999999999999943
21
-96.519999999999996
0
LINE
8
BLACK
6
CONTINUOUS
10
151.5999999999999943
20
-96.519999999999996
11
151.6200580000000002
21
-96.341982999999999
0
LINE
8
BLACK
6
CONTINUOUS
10
151.6200580000000002
20
-96.341982999999999
11
151.6792250000000024
21
-96.172893000000002
0
LINE
8
BLACK
6
CONTINUOUS
10
151.6792250000000024
20
-96.172893000000002
11
151.774534999999986
21
-96.0212080000000014
0
LINE
8
BLACK
6
CONTINUOUS
10
151.774534999999986
20
-96.0212080000000014
11
151.9012079999999969
21
-95.8945349999999905
0
LINE
8
BLACK
6
CONTINUOUS
10
151.9012079999999969
20
-95.8945349999999905
11
152.0528929999999832
21
-95.7992249999999927
0
LINE
8
BLACK
6
CONTINUOUS
10
152.0528929999999832
20
-95.7992249999999927
11
152.2219829999999945
21
-95.7400579999999906
0
LINE
8
BLACK
6
CONTINUOUS
10
152.2219829999999945
20
-95.7400579999999906
11
152.4000000000000057
21
-95.7199999999999989
0
LINE
8
BLACK
6
CONTINUOUS
10
152.4000000000000057
20
-95.7199999999999989
11
152.5780169999999885
21
-95.7400579999999906
0
LINE
8
BLACK
6
CONTINUOUS
10
132.342663999999985
20
-93.1716019999999929
11
132.5049999999999955
21
-93.2438779999999952
0
LINE
8
BLACK
6
CONTINUOUS
10
132.5049999999999955
20
-93.2438779999999952
11
132.6487610000000075
21
-93.3483269999999976
0
LINE
8
BLACK
6
CONTINUOUS
10
132.6487610000000075
20
-93.3483269999999976
11
132.7676639999999963
21
-93.4803829999999891
0
LINE
8
BLACK
6
CONTINUOUS
10
132.7676639999999963
20
-93.4803829999999891
11
132.8565140000000042
21
-93.6342739999999907
0
LINE
8
BLACK
6
CONTINUOUS
10
132.8565140000000042
20
-93.6342739999999907
11
132.9114249999999799
21
-93.8032749999999993
0
LINE
8
BLACK
6
CONTINUOUS
10
132.9114249999999799
20
-93.8032749999999993
11
132.9300000000000068
21
-93.9799999999999898
0
LINE
8
BLACK
6
CONTINUOUS
10
132.9300000000000068
20
-93.9799999999999898
11
132.9114249999999799
21
-94.1567249999999945
0
LINE
8
BLACK
6
CONTINUOUS
10
132.9114249999999799
20
-94.1567249999999945
11
132.8565140000000042
21
-94.3257259999999889
0
LINE
8
BLACK
6
CONTINUOUS
10
132.8565140000000042
20
-94.3257259999999889
11
132.7676639999999963
21
-94.4796169999999904
0
LINE
8
BLACK
6
CONTINUOUS
10
132.7676639999999963
20
-94.4796169999999904
11
132.6487610000000075
21
-94.6116729999999961
0
LINE
8
BLACK
6
CONTINUOUS
10
132.6487610000000075
20
-94.6116729999999961
11
132.5049999999999955
21
-94.7161219999999986
0
LINE
8
BLACK
6
CONTINUOUS
10
132.5049999999999955
20
-94.7161219999999986
11
132.342663999999985
21
-94.7883980000000008
0
LINE
8
BLACK
6
CONTINUOUS
10
132.342663999999985
20
-94.7883980000000008
11
132.1688489999999945
21
-94.8253440000000012
0
LINE
8
BLACK
6
CONTINUOUS
10
132.1688489999999945
20
-94.8253440000000012
11
131.9911510000000021
21
-94.8253440000000012
0
LINE
8
BLACK
6
CONTINUOUS
10
131.9911510000000021
20
-94.8253440000000012
11
131.8173359999999832
21
-94.7883980000000008
0
LINE
8
BLACK
6
CONTINUOUS
10
131.8173359999999832
20
-94.7883980000000008
11
131.6550000000000011
21
-94.7161219999999986
0
LINE
8
BLACK
6
CONTINUOUS
10
131.6550000000000011
20
-94.7161219999999986
11
131.5112389999999891
21
-94.6116729999999961
0
LINE
8
BLACK
6
CONTINUOUS
10
131.5112389999999891
20
-94.6116729999999961
11
131.3923360000000002
21
-94.4796169999999904
0
LINE
8
BLACK
6
CONTINUOUS
10
131.3923360000000002
20
-94.4796169999999904
11
131.3034859999999924
21
-94.3257259999999889
0
LINE
8
BLACK
6
CONTINUOUS
10
131.3034859999999924
20
-94.3257259999999889
11
131.2485749999999882
21
-94.1567249999999945
0
LINE
8
BLACK
6
CONTINUOUS
10
131.2485749999999882
20
-94.1567249999999945
11
131.2299999999999898
21
-93.9799999999999898
0
LINE
8
BLACK
6
CONTINUOUS
10
131.2299999999999898
20
-93.9799999999999898
11
131.2485749999999882
21
-93.8032749999999993
0
LINE
8
BLACK
6
CONTINUOUS
10
131.2485749999999882
20
-93.8032749999999993
11
131.3034859999999924
21
-93.6342739999999907
0
LINE
8
BLACK
6
CONTINUOUS
10
131.3034859999999924
20
-93.6342739999999907
11
131.3923360000000002
21
-93.4803829999999891
0
LINE
8
BLACK
6
CONTINUOUS
10
131.3923360000000002
20
-93.4803829999999891
11
131.5112389999999891
21
-93.3483269999999976
0
LINE
8
BLACK
6
CONTINUOUS
10
131.5112389999999891
20
-93.3483269999999976
11
131.6550000000000011
21
-93.2438779999999952
0
LINE
8
BLACK
6
CONTINUOUS
10
131.6550000000000011
20
-93.2438779999999952
11
131.8173359999999832
21
-93.1716019999999929
0
LINE
8
BLACK
6
CONTINUOUS
10
131.8173359999999832
20
-93.1716019999999929
11
131.9911510000000021
21
-93.1346559999999926
0
LINE
8
BLACK
6
CONTINUOUS
10
131.9911510000000021
20
-93.1346559999999926
11
132.1688489999999945
21
-93.1346559999999926
0
LINE
8
BLACK
6
CONTINUOUS
10
132.1688489999999945
20
-93.1346559999999926
11
132.342663999999985
21
-93.1716019999999929
0
LINE
8
BLACK
6
CONTINUOUS
10
132.342663999999985
20
-90.6316020000000009
11
132.5049999999999955
21
-90.7038779999999889
0
LINE
8
BLACK
6
CONTINUOUS
10
132.5049999999999955
20
-90.7038779999999889
11
132.6487610000000075
21
-90.8083269999999914
0
LINE
8
BLACK
6
CONTINUOUS
10
132.6487610000000075
20
-90.8083269999999914
11
132.7676639999999963
21
-90.9403829999999971
0
LINE
8
BLACK
6
CONTINUOUS
10
132.7676639999999963
20
-90.9403829999999971
11
132.8565140000000042
21
-91.0942739999999986
0
LINE
8
BLACK
6
CONTINUOUS
10
132.8565140000000042
20
-91.0942739999999986
11
132.9114249999999799
21
-91.263274999999993
0
LINE
8
BLACK
6
CONTINUOUS
10
132.9114249999999799
20
-91.263274999999993
11
132.9300000000000068
21
-91.4399999999999977
0
LINE
8
BLACK
6
CONTINUOUS
10
132.9300000000000068
20
-91.4399999999999977
11
132.9114249999999799
21
-91.6167250000000024
0
LINE
8
BLACK
6
CONTINUOUS
10
132.9114249999999799
20
-91.6167250000000024
11
132.8565140000000042
21
-91.7857259999999968
0
LINE
8
BLACK
6
CONTINUOUS
10
132.8565140000000042
20
-91.7857259999999968
11
132.7676639999999963
21
-91.9396169999999984
0
LINE
8
BLACK
6
CONTINUOUS
10
132.7676639999999963
20
-91.9396169999999984
11
132.6487610000000075
21
-92.0716729999999899
0
LINE
8
BLACK
6
CONTINUOUS
10
132.6487610000000075
20
-92.0716729999999899
11
132.5049999999999955
21
-92.1761219999999923
0
LINE
8
BLACK
6
CONTINUOUS
10
132.5049999999999955
20
-92.1761219999999923
11
132.342663999999985
21
-92.2483979999999946
0
LINE
8
BLACK
6
CONTINUOUS
10
132.342663999999985
20
-92.2483979999999946
11
132.1688489999999945
21
-92.2853439999999949
0
LINE
8
BLACK
6
CONTINUOUS
10
132.1688489999999945
20
-92.2853439999999949
11
131.9911510000000021
21
-92.2853439999999949
0
LINE
8
BLACK
6
CONTINUOUS
10
131.9911510000000021
20
-92.2853439999999949
11
131.8173359999999832
21
-92.2483979999999946
0
LINE
8
BLACK
6
CONTINUOUS
10
131.8173359999999832
20
-92.2483979999999946
11
131.6550000000000011
21
-92.1761219999999923
0
LINE
8
BLACK
6
CONTINUOUS
10
131.6550000000000011
20
-92.1761219999999923
11
131.5112389999999891
21
-92.0716729999999899
0
LINE
8
BLACK
6
CONTINUOUS
10
131.5112389999999891
20
-92.0716729999999899
11
131.3923360000000002
21
-91.9396169999999984
0
LINE
8
BLACK
6
CONTINUOUS
10
131.3923360000000002
20
-91.9396169999999984
11
131.3034859999999924
21
-91.7857259999999968
0
LINE
8
BLACK
6
CONTINUOUS
10
131.3034859999999924
20
-91.7857259999999968
11
131.2485749999999882
21
-91.6167250000000024
0
LINE
8
BLACK
6
CONTINUOUS
10
131.2485749999999882
20
-91.6167250000000024
11
131.2299999999999898
21
-91.4399999999999977
0
LINE
8
BLACK
6
CONTINUOUS
10
131.2299999999999898
20
-91.4399999999999977
11
131.2485749999999882
21
-91.263274999999993
0
LINE
8
BLACK
6
CONTINUOUS
10
131.2485749999999882
20
-91.263274999999993
11
131.3034859999999924
21
-91.0942739999999986
0
LINE
8
BLACK
6
CONTINUOUS
10
131.3034859999999924
20
-91.0942739999999986
11
131.3923360000000002
21
-90.9403829999999971
0
LINE
8
BLACK
6
CONTINUOUS
10
131.3923360000000002
20
-90.9403829999999971
11
131.5112389999999891
21
-90.8083269999999914
0
LINE
8
BLACK
6
CONTINUOUS
10
131.5112389999999891
20
-90.8083269999999914
11
131.6550000000000011
21
-90.7038779999999889
0
LINE
8
BLACK
6
CONTINUOUS
10
131.6550000000000011
20
-90.7038779999999889
11
131.8173359999999832
21
-90.6316020000000009
0
LINE
8
BLACK
6
CONTINUOUS
10
131.8173359999999832
20
-90.6316020000000009
11
131.9911510000000021
21
-90.5946560000000005
0
LINE
8
BLACK
6
CONTINUOUS
10
131.9911510000000021
20
-90.5946560000000005
11
132.1688489999999945
21
-90.5946560000000005
0
LINE
8
BLACK
6
CONTINUOUS
10
132.1688489999999945
20
-90.5946560000000005
11
132.342663999999985
21
-90.6316020000000009
0
LINE
8
BLACK
6
CONTINUOUS
10
132.342663999999985
20
-88.0916019999999946
11
132.5049999999999955
21
-88.1638779999999969
0
LINE
8
BLACK
6
CONTINUOUS
10
132.5049999999999955
20
-88.1638779999999969
11
132.6487610000000075
21
-88.2683269999999993
0
LINE
8
BLACK
6
CONTINUOUS
10
132.6487610000000075
20
-88.2683269999999993
11
132.7676639999999963
21
-88.4003829999999908
0
LINE
8
BLACK
6
CONTINUOUS
10
132.7676639999999963
20
-88.4003829999999908
11
132.8565140000000042
21
-88.5542739999999924
0
LINE
8
BLACK
6
CONTINUOUS
10
132.8565140000000042
20
-88.5542739999999924
11
132.9114249999999799
21
-88.723275000000001
0
LINE
8
BLACK
6
CONTINUOUS
10
132.9114249999999799
20
-88.723275000000001
11
132.9300000000000068
21
-88.8999999999999915
0
LINE
8
BLACK
6
CONTINUOUS
10
132.9300000000000068
20
-88.8999999999999915
11
132.9114249999999799
21
-89.0767249999999962
0
LINE
8
BLACK
6
CONTINUOUS
10
132.9114249999999799
20
-89.0767249999999962
11
132.8565140000000042
21
-89.2457259999999906
0
LINE
8
BLACK
6
CONTINUOUS
10
132.8565140000000042
20
-89.2457259999999906
11
132.7676639999999963
21
-89.3996169999999921
0
LINE
8
BLACK
6
CONTINUOUS
10
132.7676639999999963
20
-89.3996169999999921
11
132.7623240000000067
21
-89.4055469999999985
0
LINE
8
BLACK
6
CONTINUOUS
10
132.7623240000000067
20
-89.4055469999999985
11
133.2567769999999996
21
-89.8999999999999915
0
LINE
8
BLACK
6
CONTINUOUS
10
133.2567769999999996
20
-89.8999999999999915
11
143.483224000000007
21
-89.8999999999999915
0
LINE
8
BLACK
6
CONTINUOUS
10
143.483224000000007
20
-89.8999999999999915
11
144.0152009999999905
21
-89.3680219999999963
0
LINE
8
BLACK
6
CONTINUOUS
10
144.0152009999999905
20
-89.3680219999999963
11
143.9392249999999933
21
-89.2471069999999997
0
LINE
8
BLACK
6
CONTINUOUS
10
143.9392249999999933
20
-89.2471069999999997
11
143.8800579999999911
21
-89.0780170000000027
0
LINE
8
BLACK
6
CONTINUOUS
10
143.8800579999999911
20
-89.0780170000000027
11
143.8599999999999852
21
-88.8999999999999915
0
LINE
8
BLACK
6
CONTINUOUS
10
143.8599999999999852
20
-88.8999999999999915
11
143.8800579999999911
21
-88.7219829999999945
0
LINE
8
BLACK
6
CONTINUOUS
10
143.8800579999999911
20
-88.7219829999999945
11
143.9392249999999933
21
-88.5528929999999974
0
LINE
8
BLACK
6
CONTINUOUS
10
143.9392249999999933
20
-88.5528929999999974
11
144.0345350000000053
21
-88.4012079999999969
0
LINE
8
BLACK
6
CONTINUOUS
10
144.0345350000000053
20
-88.4012079999999969
11
144.1612079999999878
21
-88.2745350000000002
0
LINE
8
BLACK
6
CONTINUOUS
10
144.1612079999999878
20
-88.2745350000000002
11
144.3128930000000025
21
-88.1792250000000024
0
LINE
8
BLACK
6
CONTINUOUS
10
144.3128930000000025
20
-88.1792250000000024
11
144.4819829999999854
21
-88.1200580000000002
0
LINE
8
BLACK
6
CONTINUOUS
10
144.4819829999999854
20
-88.1200580000000002
11
144.6599999999999966
21
-88.0999999999999943
0
LINE
8
BLACK
6
CONTINUOUS
10
144.6599999999999966
20
-88.0999999999999943
11
144.8380169999999794
21
-88.1200580000000002
0
LINE
8
BLACK
6
CONTINUOUS
10
144.8380169999999794
20
-88.1200580000000002
11
145.0071069999999906
21
-88.1792250000000024
0
LINE
8
BLACK
6
CONTINUOUS
10
145.0071069999999906
20
-88.1792250000000024
11
145.1587920000000054
21
-88.2745350000000002
0
LINE
8
BLACK
6
CONTINUOUS
10
145.1587920000000054
20
-88.2745350000000002
11
145.2854649999999879
21
-88.4012079999999969
0
LINE
8
BLACK
6
CONTINUOUS
10
145.2854649999999879
20
-88.4012079999999969
11
145.3807749999999999
21
-88.5528929999999974
0
LINE
8
BLACK
6
CONTINUOUS
10
145.3807749999999999
20
-88.5528929999999974
11
145.4399420000000021
21
-88.7219829999999945
0
LINE
8
BLACK
6
CONTINUOUS
10
145.4399420000000021
20
-88.7219829999999945
11
145.4599999999999795
21
-88.8999999999999915
0
LINE
8
BLACK
6
CONTINUOUS
10
145.4599999999999795
20
-88.8999999999999915
11
145.4399420000000021
21
-89.0780170000000027
0
LINE
8
BLACK
6
CONTINUOUS
10
145.4399420000000021
20
-89.0780170000000027
11
145.3807749999999999
21
-89.2471069999999997
0
LINE
8
BLACK
6
CONTINUOUS
10
145.3807749999999999
20
-89.2471069999999997
11
145.2854649999999879
21
-89.3987920000000003
0
LINE
8
BLACK
6
CONTINUOUS
10
145.2854649999999879
20
-89.3987920000000003
11
145.1587920000000054
21
-89.525464999999997
0
LINE
8
BLACK
6
CONTINUOUS
10
145.1587920000000054
20
-89.525464999999997
11
145.0071069999999906
21
-89.6207749999999947
0
LINE
8
BLACK
6
CONTINUOUS
10
145.0071069999999906
20
-89.6207749999999947
11
144.8380169999999794
21
-89.6799419999999969
0
LINE
8
BLACK
6
CONTINUOUS
10
144.8380169999999794
20
-89.6799419999999969
11
144.6599999999999966
21
-89.7000000000000028
0
LINE
8
BLACK
6
CONTINUOUS
10
144.6599999999999966
20
-89.7000000000000028
11
144.4819829999999854
21
-89.6799419999999969
0
LINE
8
BLACK
6
CONTINUOUS
10
144.4819829999999854
20
-89.6799419999999969
11
144.3128930000000025
21
-89.6207749999999947
0
LINE
8
BLACK
6
CONTINUOUS
10
144.3128930000000025
20
-89.6207749999999947
11
144.1919769999999801
21
-89.5447980000000001
0
LINE
8
BLACK
6
CONTINUOUS
10
144.1919769999999801
20
-89.5447980000000001
11
143.6233880000000056
21
-90.1133880000000005
0
LINE
8
BLACK
6
CONTINUOUS
10
143.6233880000000056
20
-90.1133880000000005
11
143.6055189999999868
21
-90.1267639999999943
0
LINE
8
BLACK
6
CONTINUOUS
10
143.6055189999999868
20
-90.1267639999999943
11
143.602579999999989
21
-90.130156999999997
0
LINE
8
BLACK
6
CONTINUOUS
10
143.602579999999989
20
-90.130156999999997
11
143.5999599999999816
21
-90.1309260000000023
0
LINE
8
BLACK
6
CONTINUOUS
10
143.5999599999999816
20
-90.1309260000000023
11
143.5949059999999804
21
-90.1347099999999983
0
LINE
8
BLACK
6
CONTINUOUS
10
143.5949059999999804
20
-90.1347099999999983
11
143.564676999999989
21
-90.1412849999999963
0
LINE
8
BLACK
6
CONTINUOUS
10
143.564676999999989
20
-90.1412849999999963
11
143.5349999999999966
21
-90.1499999999999915
0
LINE
8
BLACK
6
CONTINUOUS
10
143.5349999999999966
20
-90.1499999999999915
11
133.2049999999999841
21
-90.1499999999999915
0
LINE
8
BLACK
6
CONTINUOUS
10
133.2049999999999841
20
-90.1499999999999915
11
133.1829019999999844
21
-90.1468229999999977
0
LINE
8
BLACK
6
CONTINUOUS
10
133.1829019999999844
20
-90.1468229999999977
11
133.1784289999999942
21
-90.1471429999999998
0
LINE
8
BLACK
6
CONTINUOUS
10
133.1784289999999942
20
-90.1471429999999998
11
133.1760349999999846
21
-90.1458349999999911
0
LINE
8
BLACK
6
CONTINUOUS
10
133.1760349999999846
20
-90.1458349999999911
11
133.1697829999999954
21
-90.1449369999999988
0
LINE
8
BLACK
6
CONTINUOUS
10
133.1697829999999954
20
-90.1449369999999988
11
133.1437530000000038
21
-90.1282080000000008
0
LINE
8
BLACK
6
CONTINUOUS
10
133.1437530000000038
20
-90.1282080000000008
11
133.116611000000006
21
-90.1133880000000005
0
LINE
8
BLACK
6
CONTINUOUS
10
133.116611000000006
20
-90.1133880000000005
11
132.5828109999999924
21
-89.5795880000000011
0
LINE
8
BLACK
6
CONTINUOUS
10
132.5828109999999924
20
-89.5795880000000011
11
132.5049999999999955
21
-89.6361220000000003
0
LINE
8
BLACK
6
CONTINUOUS
10
132.5049999999999955
20
-89.6361220000000003
11
132.342663999999985
21
-89.7083980000000025
0
LINE
8
BLACK
6
CONTINUOUS
10
132.342663999999985
20
-89.7083980000000025
11
132.1688489999999945
21
-89.7453440000000029
0
LINE
8
BLACK
6
CONTINUOUS
10
132.1688489999999945
20
-89.7453440000000029
11
131.9911510000000021
21
-89.7453440000000029
0
LINE
8
BLACK
6
CONTINUOUS
10
131.9911510000000021
20
-89.7453440000000029
11
131.8173359999999832
21
-89.7083980000000025
0
LINE
8
BLACK
6
CONTINUOUS
10
131.8173359999999832
20
-89.7083980000000025
11
131.6550000000000011
21
-89.6361220000000003
0
LINE
8
BLACK
6
CONTINUOUS
10
131.6550000000000011
20
-89.6361220000000003
11
131.5112389999999891
21
-89.5316729999999978
0
LINE
8
BLACK
6
CONTINUOUS
10
131.5112389999999891
20
-89.5316729999999978
11
131.3923360000000002
21
-89.3996169999999921
0
LINE
8
BLACK
6
CONTINUOUS
10
131.3923360000000002
20
-89.3996169999999921
11
131.3034859999999924
21
-89.2457259999999906
0
LINE
8
BLACK
6
CONTINUOUS
10
131.3034859999999924
20
-89.2457259999999906
11
131.2485749999999882
21
-89.0767249999999962
0
LINE
8
BLACK
6
CONTINUOUS
10
131.2485749999999882
20
-89.0767249999999962
11
131.2299999999999898
21
-88.8999999999999915
0
LINE
8
BLACK
6
CONTINUOUS
10
131.2299999999999898
20
-88.8999999999999915
11
131.2485749999999882
21
-88.723275000000001
0
LINE
8
BLACK
6
CONTINUOUS
10
131.2485749999999882
20
-88.723275000000001
11
131.3034859999999924
21
-88.5542739999999924
0
LINE
8
BLACK
6
CONTINUOUS
10
131.3034859999999924
20
-88.5542739999999924
11
131.3923360000000002
21
-88.4003829999999908
0
LINE
8
BLACK
6
CONTINUOUS
10
131.3923360000000002
20
-88.4003829999999908
11
131.5112389999999891
21
-88.2683269999999993
0
LINE
8
BLACK
6
CONTINUOUS
10
131.5112389999999891
20
-88.2683269999999993
11
131.6550000000000011
21
-88.1638779999999969
0
LINE
8
BLACK
6
CONTINUOUS
10
131.6550000000000011
20
-88.1638779999999969
11
131.8173359999999832
21
-88.0916019999999946
0
LINE
8
BLACK
6
CONTINUOUS
10
131.8173359999999832
20
-88.0916019999999946
11
131.9911510000000021
21
-88.0546559999999943
0
LINE
8
BLACK
6
CONTINUOUS
10
131.9911510000000021
20
-88.0546559999999943
11
132.1688489999999945
21
-88.0546559999999943
0
LINE
8
BLACK
6
CONTINUOUS
10
132.1688489999999945
20
-88.0546559999999943
11
132.342663999999985
21
-88.0916019999999946
0
LINE
8
BLACK
6
CONTINUOUS
10
137.3380170000000078
20
-88.1200580000000002
11
137.5071069999999906
21
-88.1792250000000024
0
LINE
8
BLACK
6
CONTINUOUS
10
137.5071069999999906
20
-88.1792250000000024
11
137.6587920000000054
21
-88.2745350000000002
0
LINE
8
BLACK
6
CONTINUOUS
10
137.6587920000000054
20
-88.2745350000000002
11
137.7854649999999879
21
-88.4012079999999969
0
LINE
8
BLACK
6
CONTINUOUS
10
137.7854649999999879
20
-88.4012079999999969
11
137.8807749999999999
21
-88.5528929999999974
0
LINE
8
BLACK
6
CONTINUOUS
10
137.8807749999999999
20
-88.5528929999999974
11
137.9399420000000021
21
-88.7219829999999945
0
LINE
8
BLACK
6
CONTINUOUS
10
137.9399420000000021
20
-88.7219829999999945
11
137.960000000000008
21
-88.8999999999999915
0
LINE
8
BLACK
6
CONTINUOUS
10
137.960000000000008
20
-88.8999999999999915
11
137.9399420000000021
21
-89.0780170000000027
0
LINE
8
BLACK
6
CONTINUOUS
10
137.9399420000000021
20
-89.0780170000000027
11
137.8807749999999999
21
-89.2471069999999997
0
LINE
8
BLACK
6
CONTINUOUS
10
137.8807749999999999
20
-89.2471069999999997
11
137.7854649999999879
21
-89.3987920000000003
0
LINE
8
BLACK
6
CONTINUOUS
10
137.7854649999999879
20
-89.3987920000000003
11
137.6587920000000054
21
-89.525464999999997
0
LINE
8
BLACK
6
CONTINUOUS
10
137.6587920000000054
20
-89.525464999999997
11
137.5071069999999906
21
-89.6207749999999947
0
LINE
8
BLACK
6
CONTINUOUS
10
137.5071069999999906
20
-89.6207749999999947
11
137.3380170000000078
21
-89.6799419999999969
0
LINE
8
BLACK
6
CONTINUOUS
10
137.3380170000000078
20
-89.6799419999999969
11
137.1599999999999966
21
-89.7000000000000028
0
LINE
8
BLACK
6
CONTINUOUS
10
137.1599999999999966
20
-89.7000000000000028
11
136.9819829999999854
21
-89.6799419999999969
0
LINE
8
BLACK
6
CONTINUOUS
10
136.9819829999999854
20
-89.6799419999999969
11
136.8128930000000025
21
-89.6207749999999947
0
LINE
8
BLACK
6
CONTINUOUS
10
136.8128930000000025
20
-89.6207749999999947
11
136.6612079999999878
21
-89.525464999999997
0
LINE
8
BLACK
6
CONTINUOUS
10
136.6612079999999878
20
-89.525464999999997
11
136.5345350000000053
21
-89.3987920000000003
0
LINE
8
BLACK
6
CONTINUOUS
10
136.5345350000000053
20
-89.3987920000000003
11
136.4392249999999933
21
-89.2471069999999997
0
LINE
8
BLACK
6
CONTINUOUS
10
136.4392249999999933
20
-89.2471069999999997
11
136.3800579999999911
21
-89.0780170000000027
0
LINE
8
BLACK
6
CONTINUOUS
10
136.3800579999999911
20
-89.0780170000000027
11
136.3599999999999852
21
-88.8999999999999915
0
LINE
8
BLACK
6
CONTINUOUS
10
136.3599999999999852
20
-88.8999999999999915
11
136.3800579999999911
21
-88.7219829999999945
0
LINE
8
BLACK
6
CONTINUOUS
10
136.3800579999999911
20
-88.7219829999999945
11
136.4392249999999933
21
-88.5528929999999974
0
LINE
8
BLACK
6
CONTINUOUS
10
136.4392249999999933
20
-88.5528929999999974
11
136.5345350000000053
21
-88.4012079999999969
0
LINE
8
BLACK
6
CONTINUOUS
10
136.5345350000000053
20
-88.4012079999999969
11
136.6612079999999878
21
-88.2745350000000002
0
LINE
8
BLACK
6
CONTINUOUS
10
136.6612079999999878
20
-88.2745350000000002
11
136.8128930000000025
21
-88.1792250000000024
0
LINE
8
BLACK
6
CONTINUOUS
10
136.8128930000000025
20
-88.1792250000000024
11
136.9819829999999854
21
-88.1200580000000002
0
LINE
8
BLACK
6
CONTINUOUS
10
136.9819829999999854
20
-88.1200580000000002
11
137.1599999999999966
21
-88.0999999999999943
0
LINE
8
BLACK
6
CONTINUOUS
10
137.1599999999999966
20
-88.0999999999999943
11
137.3380170000000078
21
-88.1200580000000002
0
LINE
8
BLACK
6
CONTINUOUS
10
157.658017000000001
20
-88.1200580000000002
11
157.8271069999999838
21
-88.1792250000000024
0
LINE
8
BLACK
6
CONTINUOUS
10
157.8271069999999838
20
-88.1792250000000024
11
157.9787919999999986
21
-88.2745350000000002
0
LINE
8
BLACK
6
CONTINUOUS
10
157.9787919999999986
20
-88.2745350000000002
11
158.105464999999981
21
-88.4012079999999969
0
LINE
8
BLACK
6
CONTINUOUS
10
158.105464999999981
20
-88.4012079999999969
11
158.200774999999993
21
-88.5528929999999974
0
LINE
8
BLACK
6
CONTINUOUS
10
158.200774999999993
20
-88.5528929999999974
11
158.2599419999999952
21
-88.7219829999999945
0
LINE
8
BLACK
6
CONTINUOUS
10
158.2599419999999952
20
-88.7219829999999945
11
158.2800000000000011
21
-88.8999999999999915
0
LINE
8
BLACK
6
CONTINUOUS
10
158.2800000000000011
20
-88.8999999999999915
11
158.2599419999999952
21
-89.0780170000000027
0
LINE
8
BLACK
6
CONTINUOUS
10
158.2599419999999952
20
-89.0780170000000027
11
158.200774999999993
21
-89.2471069999999997
0
LINE
8
BLACK
6
CONTINUOUS
10
158.200774999999993
20
-89.2471069999999997
11
158.105464999999981
21
-89.3987920000000003
0
LINE
8
BLACK
6
CONTINUOUS
10
158.105464999999981
20
-89.3987920000000003
11
157.9787919999999986
21
-89.525464999999997
0
LINE
8
BLACK
6
CONTINUOUS
10
157.9787919999999986
20
-89.525464999999997
11
157.8271069999999838
21
-89.6207749999999947
0
LINE
8
BLACK
6
CONTINUOUS
10
157.8271069999999838
20
-89.6207749999999947
11
157.658017000000001
21
-89.6799419999999969
0
LINE
8
BLACK
6
CONTINUOUS
10
157.658017000000001
20
-89.6799419999999969
11
157.4799999999999898
21
-89.7000000000000028
0
LINE
8
BLACK
6
CONTINUOUS
10
157.4799999999999898
20
-89.7000000000000028
11
157.301983000000007
21
-89.6799419999999969
0
LINE
8
BLACK
6
CONTINUOUS
10
157.301983000000007
20
-89.6799419999999969
11
157.1328929999999957
21
-89.6207749999999947
0
LINE
8
BLACK
6
CONTINUOUS
10
157.1328929999999957
20
-89.6207749999999947
11
156.981207999999981
21
-89.525464999999997
0
LINE
8
BLACK
6
CONTINUOUS
10
156.981207999999981
20
-89.525464999999997
11
156.8545349999999985
21
-89.3987920000000003
0
LINE
8
BLACK
6
CONTINUOUS
10
156.8545349999999985
20
-89.3987920000000003
11
156.7592249999999865
21
-89.2471069999999997
0
LINE
8
BLACK
6
CONTINUOUS
10
156.7592249999999865
20
-89.2471069999999997
11
156.7000579999999843
21
-89.0780170000000027
0
LINE
8
BLACK
6
CONTINUOUS
10
156.7000579999999843
20
-89.0780170000000027
11
156.6800000000000068
21
-88.8999999999999915
0
LINE
8
BLACK
6
CONTINUOUS
10
156.6800000000000068
20
-88.8999999999999915
11
156.7000579999999843
21
-88.7219829999999945
0
LINE
8
BLACK
6
CONTINUOUS
10
156.7000579999999843
20
-88.7219829999999945
11
156.7592249999999865
21
-88.5528929999999974
0
LINE
8
BLACK
6
CONTINUOUS
10
156.7592249999999865
20
-88.5528929999999974
11
156.8545349999999985
21
-88.4012079999999969
0
LINE
8
BLACK
6
CONTINUOUS
10
156.8545349999999985
20
-88.4012079999999969
11
156.981207999999981
21
-88.2745350000000002
0
LINE
8
BLACK
6
CONTINUOUS
10
156.981207999999981
20
-88.2745350000000002
11
157.1328929999999957
21
-88.1792250000000024
0
LINE
8
BLACK
6
CONTINUOUS
10
157.1328929999999957
20
-88.1792250000000024
11
157.301983000000007
21
-88.1200580000000002
0
LINE
8
BLACK
6
CONTINUOUS
10
157.301983000000007
20
-88.1200580000000002
11
157.4799999999999898
21
-88.0999999999999943
0
LINE
8
BLACK
6
CONTINUOUS
10
157.4799999999999898
20
-88.0999999999999943
11
157.658017000000001
21
-88.1200580000000002
0
CIRCLE
8
BLACK
10
149.8599999999999852
20
-109.3399999999999892
40
0.4
0
CIRCLE
8
BLACK
10
149.8599999999999852
20
-116.8399999999999892
40
0.4
0
CIRCLE
8
BLACK
10
137.1599999999999966
20
-88.8999999999999915
40
0.4
0
CIRCLE
8
BLACK
10
144.6599999999999966
20
-88.8999999999999915
40
0.4
0
CIRCLE
8
BLACK
10
159.9000000000000057
20
-96.519999999999996
40
0.4
0
CIRCLE
8
BLACK
10
152.4000000000000057
20
-96.519999999999996
40
0.4
0
CIRCLE
8
BLACK
10
132.0799999999999841
20
-101.5999999999999943
40
0.5
0
CIRCLE
8
BLACK
10
132.0799999999999841
20
-99.0600000000000023
40
0.5
0
CIRCLE
8
BLACK
10
132.0799999999999841
20
-96.519999999999996
40
0.5
0
CIRCLE
8
BLACK
10
132.0799999999999841
20
-93.9799999999999898
40
0.5
0
CIRCLE
8
BLACK
10
132.0799999999999841
20
-91.4399999999999977
40
0.5
0
CIRCLE
8
BLACK
10
132.0799999999999841
20
-88.8999999999999915
40
0.5
0
CIRCLE
8
BLACK
10
152.4000000000000057
20
-104.1400000000000006
40
0.4
0
CIRCLE
8
BLACK
10
160.0199999999999818
20
-104.1400000000000006
40
0.4
0
CIRCLE
8
BLACK
10
149.8599999999999852
20
-88.8999999999999915
40
0.4
0
CIRCLE
8
BLACK
10
157.4799999999999898
20
-88.8999999999999915
40
0.4
0
CIRCLE
8
BLACK
10
146.0649999999999977
20
-104.1400000000000006
40
0.4
0
CIRCLE
8
BLACK
10
146.0649999999999977
20
-101.5999999999999943
40
0.4
0
CIRCLE
8
BLACK
10
146.0649999999999977
20
-99.0600000000000023
40
0.4
0
CIRCLE
8
BLACK
10
146.0649999999999977
20
-96.519999999999996
40
0.4
0
CIRCLE
8
BLACK
10
138.4449999999999932
20
-96.519999999999996
40
0.4
0
CIRCLE
8
BLACK
10
138.4449999999999932
20
-99.0600000000000023
40
0.4
0
CIRCLE
8
BLACK
10
138.4449999999999932
20
-101.5999999999999943
40
0.4
0
CIRCLE
8
BLACK
10
138.4449999999999932
20
-104.1400000000000006
40
0.4
0
CIRCLE
8
BLACK
10
132.0799999999999841
20
-116.8399999999999892
40
0.4
0
CIRCLE
8
BLACK
10
134.6200000000000045
20
-116.8399999999999892
40
0.4
0
CIRCLE
8
BLACK
10
137.1599999999999966
20
-116.8399999999999892
40
0.4
0
CIRCLE
8
BLACK
10
139.6999999999999886
20
-116.8399999999999892
40
0.4
0
CIRCLE
8
BLACK
10
139.6999999999999886
20
-109.2199999999999989
40
0.4
0
CIRCLE
8
BLACK
10
137.1599999999999966
20
-109.2199999999999989
40
0.4
0
CIRCLE
8
BLACK
10
134.6200000000000045
20
-109.2199999999999989
40
0.4
0
CIRCLE
8
BLACK
10
132.0799999999999841
20
-109.2199999999999989
40
0.4
0
CIRCLE
8
BLACK
10
157.4799999999999898
20
-116.8399999999999892
40
0.4
0
CIRCLE
8
BLACK
10
157.4799999999999898
20
-109.2199999999999989
40
0.4
  0
ENDSEC
  0
EOF
